Public Sans-Light.ufo
<glyph name="exclam" format="1">
  <advance width="216"/>
  <unicode hex="0021"/>
  <outline>
    <contour>
      <point x="77" y="144" type="line"/>
      <point x="106" y="144" type="line"/>
      <point x="197" y="723" type="line"/>
      <point x="150" y="723" type="line"/>
    </contour>
    <contour>
      <point x="44" y="0" type="line"/>
      <point x="99" y="0" type="line"/>
      <point x="110" y="77" type="line"/>
      <point x="54" y="77" type="line"/>
    </contour>
  </outline>
</glyph>
<glyph name="numbersign" format="1">
  <advance width="562"/>
  <unicode hex="0023"/>
  <outline>
    <contour>
      <point x="364" y="-1" type="line"/>
      <point x="475" y="719" type="line"/>
      <point x="438" y="724" type="line"/>
      <point x="327" y="5" type="line"/>
    </contour>
    <contour>
      <point x="46" y="244" type="line"/>
      <point x="514" y="244" type="line"/>
      <point x="514" y="281" type="line"/>
      <point x="46" y="281" type="line"/>
    </contour>
    <contour>
      <point x="166" y="-1" type="line"/>
      <point x="277" y="719" type="line"/>
      <point x="240" y="724" type="line"/>
      <point x="129" y="5" type="line"/>
    </contour>
    <contour>
      <point x="78" y="449" type="line"/>
      <point x="546" y="449" type="line"/>
      <point x="546" y="486" type="line"/>
      <point x="78" y="486" type="line"/>
    </contour>
  </outline>
</glyph>
<glyph name="dollar" format="1">
  <advance width="595"/>
  <unicode hex="0024"/>
  <outline>
    <contour>
      <point x="265" y="-10" type="curve" smooth="yes"/>
      <point x="395" y="-10"/>
      <point x="499" y="71"/>
      <point x="514" y="177" type="curve" smooth="yes"/>
      <point x="525" y="256"/>
      <point x="497" y="327"/>
      <point x="398" y="364" type="curve" smooth="yes"/>
      <point x="290" y="404" type="line" smooth="yes"/>
      <point x="191" y="441"/>
      <point x="160" y="471"/>
      <point x="169" y="533" type="curve" smooth="yes"/>
      <point x="184" y="643"/>
      <point x="289" y="691"/>
      <point x="368" y="691" type="curve" smooth="yes"/>
      <point x="459" y="691"/>
      <point x="511" y="640"/>
      <point x="515" y="532" type="curve"/>
      <point x="552" y="540" type="line"/>
      <point x="557" y="640"/>
      <point x="499" y="732"/>
      <point x="376" y="732" type="curve" smooth="yes"/>
      <point x="242" y="732"/>
      <point x="145" y="646"/>
      <point x="129" y="532" type="curve" smooth="yes"/>
      <point x="117" y="446"/>
      <point x="168" y="398"/>
      <point x="259" y="366" type="curve" smooth="yes"/>
      <point x="374" y="326" type="line" smooth="yes"/>
      <point x="455" y="298"/>
      <point x="485" y="249"/>
      <point x="474" y="175" type="curve" smooth="yes"/>
      <point x="462" y="86"/>
      <point x="360" y="32"/>
      <point x="271" y="32" type="curve" smooth="yes"/>
      <point x="174" y="32"/>
      <point x="107" y="78"/>
      <point x="96" y="176" type="curve"/>
      <point x="57" y="167" type="line"/>
      <point x="61" y="55"/>
      <point x="144" y="-10"/>
    </contour>
    <contour>
      <point x="229" y="-114" type="line"/>
      <point x="270" y="-114" type="line"/>
      <point x="288" y="15" type="line"/>
      <point x="247" y="15" type="line"/>
    </contour>
    <contour>
      <point x="352" y="707" type="line"/>
      <point x="394" y="707" type="line"/>
      <point x="412" y="836" type="line"/>
      <point x="370" y="836" type="line"/>
    </contour>
  </outline>
</glyph>
<glyph name="percent" format="1">
  <advance width="809"/>
  <unicode hex="0025"/>
  <outline>
    <contour>
      <point x="566" y="-10" type="curve" smooth="yes"/>
      <point x="652" y="-10"/>
      <point x="722" y="61"/>
      <point x="741" y="199" type="curve" smooth="yes"/>
      <point x="760" y="334"/>
      <point x="710" y="406"/>
      <point x="625" y="406" type="curve" smooth="yes"/>
      <point x="539" y="406"/>
      <point x="468" y="334"/>
      <point x="449" y="199" type="curve" smooth="yes"/>
      <point x="429" y="61"/>
      <point x="481" y="-10"/>
    </contour>
    <contour>
      <point x="216" y="319" type="curve" smooth="yes"/>
      <point x="302" y="319"/>
      <point x="371" y="390"/>
      <point x="391" y="527" type="curve" smooth="yes"/>
      <point x="410" y="663"/>
      <point x="360" y="734"/>
      <point x="274" y="734" type="curve" smooth="yes"/>
      <point x="189" y="734"/>
      <point x="117" y="663"/>
      <point x="98" y="527" type="curve" smooth="yes"/>
      <point x="79" y="390"/>
      <point x="131" y="319"/>
    </contour>
    <contour>
      <point x="219" y="348" type="curve" smooth="yes"/>
      <point x="149" y="348"/>
      <point x="115" y="424"/>
      <point x="129" y="527" type="curve" smooth="yes"/>
      <point x="144" y="629"/>
      <point x="200" y="705"/>
      <point x="269" y="705" type="curve" smooth="yes"/>
      <point x="339" y="705"/>
      <point x="374" y="630"/>
      <point x="359" y="527" type="curve" smooth="yes"/>
      <point x="345" y="423"/>
      <point x="289" y="348"/>
    </contour>
    <contour>
      <point x="570" y="20" type="curve" smooth="yes"/>
      <point x="503" y="20"/>
      <point x="466" y="98"/>
      <point x="480" y="198" type="curve" smooth="yes"/>
      <point x="494" y="297"/>
      <point x="553" y="376"/>
      <point x="620" y="376" type="curve" smooth="yes"/>
      <point x="687" y="376"/>
      <point x="724" y="298"/>
      <point x="710" y="198" type="curve" smooth="yes"/>
      <point x="696" y="98"/>
      <point x="637" y="20"/>
    </contour>
    <component base="fraction" xScale="0.92" yxScale="0.141" xOffset="271"/>
  </outline>
</glyph>
<glyph name="ampersand" format="1">
  <advance width="586"/>
  <unicode hex="0026"/>
  <outline>
    <contour>
      <point x="188" y="-5" type="curve" smooth="yes"/>
      <point x="260" y="-5"/>
      <point x="330" y="26"/>
      <point x="402" y="90" type="curve"/>
      <point x="462" y="0" type="line"/>
      <point x="506" y="0" type="line"/>
      <point x="430" y="119" type="line"/>
      <point x="486" y="183"/>
      <point x="526" y="251"/>
      <point x="546" y="368" type="curve"/>
      <point x="515" y="368" type="line"/>
      <point x="496" y="248"/>
      <point x="438" y="170"/>
      <point x="412" y="146" type="curve"/>
      <point x="258" y="384" type="line"/>
      <point x="424" y="468"/>
      <point x="448" y="546"/>
      <point x="453" y="583" type="curve" smooth="yes"/>
      <point x="467" y="677"/>
      <point x="396" y="734"/>
      <point x="314" y="734" type="curve" smooth="yes"/>
      <point x="227" y="734"/>
      <point x="158" y="668"/>
      <point x="146" y="585" type="curve" smooth="yes"/>
      <point x="137" y="521"/>
      <point x="158" y="461"/>
      <point x="206" y="398" type="curve"/>
      <point x="97" y="340"/>
      <point x="40" y="272"/>
      <point x="27" y="182" type="curve" smooth="yes"/>
      <point x="12" y="70"/>
      <point x="74" y="-5"/>
    </contour>
    <contour>
      <point x="197" y="32" type="curve" smooth="yes"/>
      <point x="110" y="32"/>
      <point x="52" y="91"/>
      <point x="64" y="178" type="curve" smooth="yes"/>
      <point x="76" y="258"/>
      <point x="137" y="322"/>
      <point x="223" y="369" type="curve"/>
      <point x="385" y="118" type="line"/>
      <point x="331" y="68"/>
      <point x="264" y="32"/>
    </contour>
    <contour>
      <point x="242" y="414" type="curve"/>
      <point x="231" y="431" type="line" smooth="yes"/>
      <point x="215" y="453"/>
      <point x="175" y="520"/>
      <point x="184" y="586" type="curve" smooth="yes"/>
      <point x="192" y="643"/>
      <point x="237" y="696"/>
      <point x="308" y="696" type="curve" smooth="yes"/>
      <point x="367" y="696"/>
      <point x="428" y="668"/>
      <point x="416" y="585" type="curve" smooth="yes"/>
      <point x="409" y="536"/>
      <point x="378" y="490"/>
    </contour>
  </outline>
</glyph>
<glyph name="quotesingle" format="1">
  <advance width="233"/>
  <unicode hex="0027"/>
  <outline>
    <contour>
      <point x="139" y="536" type="line"/>
      <point x="170" y="536" type="line"/>
      <point x="216" y="723" type="line"/>
      <point x="147" y="723" type="line"/>
    </contour>
  </outline>
</glyph>
<glyph name="parenleft" format="1">
  <advance width="259"/>
  <unicode hex="0028"/>
  <outline>
    <contour>
      <point x="150" y="-104" type="curve"/>
      <point x="172" y="-104" type="line"/>
      <point x="129" y="44"/>
      <point x="114" y="185"/>
      <point x="135" y="334" type="curve" smooth="yes"/>
      <point x="157" y="491"/>
      <point x="228" y="651"/>
      <point x="307" y="780" type="curve"/>
      <point x="285" y="780" type="line"/>
      <point x="192" y="657"/>
      <point x="114" y="499"/>
      <point x="91" y="335" type="curve" smooth="yes"/>
      <point x="68" y="166"/>
      <point x="95" y="36"/>
    </contour>
  </outline>
</glyph>
<glyph name="parenright" format="1">
  <advance width="256"/>
  <unicode hex="0029"/>
  <outline>
    <contour>
      <point x="-40" y="-161" type="curve"/>
      <point x="-15" y="-161" type="line"/>
      <point x="77" y="-37"/>
      <point x="153" y="121"/>
      <point x="174" y="283" type="curve" smooth="yes"/>
      <point x="196" y="453"/>
      <point x="167" y="585"/>
      <point x="107" y="723" type="curve"/>
      <point x="89" y="723" type="line"/>
      <point x="134" y="574"/>
      <point x="150" y="436"/>
      <point x="131" y="287" type="curve" smooth="yes"/>
      <point x="109" y="129"/>
      <point x="39" y="-31"/>
    </contour>
  </outline>
</glyph>
<glyph name="asterisk" format="1">
  <advance width="314"/>
  <unicode hex="002A"/>
  <outline>
    <contour>
      <point x="136" y="440" type="line"/>
      <point x="213" y="560" type="line"/>
      <point x="286" y="444" type="line"/>
      <point x="318" y="468" type="line"/>
      <point x="235" y="573" type="line"/>
      <point x="349" y="613" type="line"/>
      <point x="339" y="644" type="line"/>
      <point x="226" y="597" type="line"/>
      <point x="231" y="723" type="line"/>
      <point x="190" y="723" type="line"/>
      <point x="197" y="597" type="line"/>
      <point x="85" y="638" type="line"/>
      <point x="74" y="606" type="line"/>
      <point x="190" y="572" type="line"/>
      <point x="104" y="461" type="line"/>
    </contour>
  </outline>
</glyph>
<glyph name="plus" format="1">
  <advance width="494"/>
  <unicode hex="002B"/>
  <outline>
    <contour>
      <point x="218" y="168" type="line"/>
      <point x="252" y="168" type="line"/>
      <point x="306" y="559" type="line"/>
      <point x="272" y="559" type="line"/>
    </contour>
    <contour>
      <point x="79" y="344" type="line"/>
      <point x="439" y="345" type="line"/>
      <point x="444" y="382" type="line"/>
      <point x="84" y="381" type="line"/>
    </contour>
  </outline>
</glyph>
<glyph name="comma" format="1">
  <advance width="198"/>
  <unicode hex="002C"/>
  <outline>
    <contour>
      <point x="-12" y="-111" type="line"/>
      <point x="17" y="-111" type="line"/>
      <point x="98" y="12" type="line"/>
      <point x="107" y="80" type="line"/>
      <point x="31" y="80" type="line"/>
      <point x="20" y="0" type="line"/>
      <point x="53" y="0" type="line"/>
    </contour>
  </outline>
</glyph>
<glyph name="hyphen" format="1">
  <advance width="347"/>
  <unicode hex="002D"/>
  <outline>
    <contour>
      <point x="63" y="239" type="line"/>
      <point x="279" y="240" type="line"/>
      <point x="284" y="279" type="line"/>
      <point x="68" y="278" type="line"/>
    </contour>
  </outline>
</glyph>
<glyph name="period" format="1">
  <advance width="181"/>
  <unicode hex="002E"/>
  <outline>
    <contour>
      <point x="26" y="0" type="line"/>
      <point x="82" y="0" type="line"/>
      <point x="93" y="77" type="line"/>
      <point x="37" y="77" type="line"/>
    </contour>
  </outline>
</glyph>
<glyph name="slash" format="1">
  <advance width="296"/>
  <unicode hex="002F"/>
  <outline>
    <contour>
      <point x="-30" y="-59" type="line"/>
      <point x="8" y="-59" type="line"/>
      <point x="346" y="723" type="line"/>
      <point x="308" y="723" type="line"/>
    </contour>
  </outline>
</glyph>
<glyph name="zero" format="1">
  <advance width="547"/>
  <unicode hex="0030"/>
  <outline>
    <contour>
      <point x="235" y="-10" type="curve" smooth="yes"/>
      <point x="366" y="-10"/>
      <point x="471" y="109"/>
      <point x="506" y="360" type="curve" smooth="yes"/>
      <point x="541" y="612"/>
      <point x="470" y="733"/>
      <point x="340" y="733" type="curve" smooth="yes"/>
      <point x="210" y="733"/>
      <point x="105" y="611"/>
      <point x="69" y="358" type="curve" smooth="yes"/>
      <point x="34" y="108"/>
      <point x="104" y="-10"/>
    </contour>
    <contour>
      <point x="242" y="31" type="curve" smooth="yes"/>
      <point x="132" y="31"/>
      <point x="79" y="130"/>
      <point x="111" y="360" type="curve" smooth="yes"/>
      <point x="144" y="592"/>
      <point x="225" y="692"/>
      <point x="334" y="692" type="curve" smooth="yes"/>
      <point x="444" y="692"/>
      <point x="495" y="593"/>
      <point x="463" y="360" type="curve" smooth="yes"/>
      <point x="430" y="129"/>
      <point x="353" y="31"/>
    </contour>
  </outline>
</glyph>
<glyph name="one" format="1">
  <advance width="368"/>
  <unicode hex="0031"/>
  <outline>
    <contour>
      <point x="152" y="0" type="line"/>
      <point x="191" y="0" type="line"/>
      <point x="293" y="723" type="line"/>
      <point x="261" y="723" type="line"/>
      <point x="253" y="668"/>
      <point x="229" y="648"/>
      <point x="105" y="648" type="curve"/>
      <point x="100" y="609" type="line"/>
      <point x="238" y="609" type="line"/>
    </contour>
  </outline>
</glyph>
<glyph name="two" format="1">
  <advance width="539"/>
  <unicode hex="0032"/>
  <outline>
    <contour>
      <point x="40" y="0" type="line"/>
      <point x="442" y="0" type="line"/>
      <point x="448" y="41" type="line"/>
      <point x="86" y="41" type="line"/>
      <point x="89" y="63" type="line" smooth="yes"/>
      <point x="122" y="298"/>
      <point x="474" y="277"/>
      <point x="511" y="540" type="curve" smooth="yes"/>
      <point x="527" y="656"/>
      <point x="460" y="733"/>
      <point x="342" y="733" type="curve" smooth="yes"/>
      <point x="206" y="733"/>
      <point x="117" y="636"/>
      <point x="97" y="524" type="curve"/>
      <point x="138" y="524" type="line"/>
      <point x="155" y="618"/>
      <point x="226" y="691"/>
      <point x="332" y="691" type="curve" smooth="yes"/>
      <point x="430" y="691"/>
      <point x="485" y="631"/>
      <point x="472" y="541" type="curve" smooth="yes"/>
      <point x="440" y="308"/>
      <point x="86" y="325"/>
      <point x="49" y="63" type="curve" smooth="yes"/>
      <point x="46" y="41" type="line"/>
    </contour>
  </outline>
</glyph>
<glyph name="three" format="1">
  <advance width="556"/>
  <unicode hex="0033"/>
  <outline>
    <contour>
      <point x="228" y="-10" type="curve" smooth="yes"/>
      <point x="370" y="-12"/>
      <point x="475" y="72"/>
      <point x="492" y="194" type="curve" smooth="yes"/>
      <point x="505" y="284"/>
      <point x="463" y="354"/>
      <point x="366" y="384" type="curve"/>
      <point x="457" y="417"/>
      <point x="512" y="482"/>
      <point x="522" y="554" type="curve" smooth="yes"/>
      <point x="537" y="661"/>
      <point x="464" y="733"/>
      <point x="336" y="733" type="curve" smooth="yes"/>
      <point x="225" y="733"/>
      <point x="118" y="649"/>
      <point x="100" y="524" type="curve"/>
      <point x="141" y="524" type="line"/>
      <point x="157" y="636"/>
      <point x="253" y="692"/>
      <point x="332" y="692" type="curve" smooth="yes"/>
      <point x="446" y="692"/>
      <point x="491" y="622"/>
      <point x="482" y="554" type="curve" smooth="yes"/>
      <point x="471" y="475"/>
      <point x="377" y="401"/>
      <point x="273" y="401" type="curve" smooth="yes"/>
      <point x="217" y="401" type="line"/>
      <point x="212" y="360" type="line"/>
      <point x="268" y="360" type="line" smooth="yes"/>
      <point x="381" y="360"/>
      <point x="467" y="304"/>
      <point x="451" y="191" type="curve" smooth="yes"/>
      <point x="437" y="95"/>
      <point x="352" y="31"/>
      <point x="238" y="31" type="curve" smooth="yes"/>
      <point x="138" y="31"/>
      <point x="80" y="95"/>
      <point x="81" y="192" type="curve"/>
      <point x="41" y="192" type="line"/>
      <point x="29" y="71"/>
      <point x="113" y="-8"/>
    </contour>
  </outline>
</glyph>
<glyph name="four" format="1">
  <advance width="566"/>
  <unicode hex="0034"/>
  <outline>
    <contour>
      <point x="334" y="0" type="line"/>
      <point x="372" y="0" type="line"/>
      <point x="401" y="209" type="line"/>
      <point x="519" y="209" type="line"/>
      <point x="525" y="250" type="line"/>
      <point x="407" y="250" type="line"/>
      <point x="473" y="723" type="line"/>
      <point x="432" y="723" type="line"/>
      <point x="50" y="258" type="line"/>
      <point x="43" y="209" type="line"/>
      <point x="363" y="209" type="line"/>
    </contour>
    <contour>
      <point x="88" y="250" type="line"/>
      <point x="423" y="656" type="line"/>
      <point x="365" y="250" type="line"/>
    </contour>
  </outline>
</glyph>
<glyph name="five" format="1">
  <advance width="585"/>
  <unicode hex="0035"/>
  <outline>
    <contour>
      <point x="258" y="-10" type="curve" smooth="yes"/>
      <point x="392" y="-10"/>
      <point x="496" y="89"/>
      <point x="517" y="237" type="curve" smooth="yes"/>
      <point x="539" y="393"/>
      <point x="443" y="471"/>
      <point x="336" y="471" type="curve" smooth="yes"/>
      <point x="267" y="471"/>
      <point x="200" y="449"/>
      <point x="152" y="390" type="curve"/>
      <point x="215" y="683" type="line"/>
      <point x="543" y="683" type="line"/>
      <point x="549" y="723" type="line"/>
      <point x="182" y="723" type="line"/>
      <point x="98" y="338" type="line"/>
      <point x="143" y="338" type="line" smooth="yes"/>
      <point x="143" y="338"/>
      <point x="143" y="338"/>
      <point x="143" y="338" type="curve" smooth="yes"/>
      <point x="210" y="420"/>
      <point x="263" y="432"/>
      <point x="330" y="432" type="curve" smooth="yes"/>
      <point x="420" y="432"/>
      <point x="494" y="359"/>
      <point x="477" y="236" type="curve" smooth="yes"/>
      <point x="458" y="104"/>
      <point x="375" y="29"/>
      <point x="265" y="29" type="curve" smooth="yes"/>
      <point x="170" y="29"/>
      <point x="106" y="93"/>
      <point x="92" y="190" type="curve"/>
      <point x="50" y="190" type="line"/>
      <point x="59" y="70"/>
      <point x="143" y="-10"/>
    </contour>
  </outline>
</glyph>
<glyph name="six" format="1">
  <advance width="547"/>
  <unicode hex="0036"/>
  <outline>
    <contour>
      <point x="251" y="-2" type="curve" smooth="yes"/>
      <point x="384" y="-2"/>
      <point x="475" y="97"/>
      <point x="495" y="245" type="curve" smooth="yes"/>
      <point x="516" y="395"/>
      <point x="443" y="481"/>
      <point x="315" y="481" type="curve" smooth="yes"/>
      <point x="221" y="481"/>
      <point x="134" y="411"/>
      <point x="101" y="312" type="curve"/>
      <point x="129" y="577"/>
      <point x="219" y="702"/>
      <point x="359" y="702" type="curve" smooth="yes"/>
      <point x="441" y="702"/>
      <point x="492" y="650"/>
      <point x="500" y="574" type="curve"/>
      <point x="538" y="574" type="line"/>
      <point x="531" y="680"/>
      <point x="460" y="741"/>
      <point x="364" y="741" type="curve" smooth="yes"/>
      <point x="203" y="741"/>
      <point x="102" y="589"/>
      <point x="70" y="362" type="curve" smooth="yes"/>
      <point x="37" y="129"/>
      <point x="112" y="-2"/>
    </contour>
    <contour>
      <point x="259" y="39" type="curve" smooth="yes"/>
      <point x="152" y="39"/>
      <point x="95" y="137"/>
      <point x="114" y="262" type="curve"/>
      <point x="128" y="364"/>
      <point x="224" y="440"/>
      <point x="314" y="440" type="curve" smooth="yes"/>
      <point x="430" y="440"/>
      <point x="470" y="361"/>
      <point x="454" y="243" type="curve" smooth="yes"/>
      <point x="436" y="121"/>
      <point x="359" y="39"/>
    </contour>
  </outline>
</glyph>
<glyph name="seven" format="1">
  <advance width="538"/>
  <unicode hex="0037"/>
  <outline>
    <contour>
      <point x="133" y="0" type="curve"/>
      <point x="173" y="0" type="line"/>
      <point x="218" y="137"/>
      <point x="386" y="473"/>
      <point x="547" y="683" type="curve"/>
      <point x="553" y="723" type="line"/>
      <point x="116" y="723" type="line"/>
      <point x="110" y="683" type="line"/>
      <point x="500" y="683" type="line"/>
      <point x="320" y="436"/>
      <point x="184" y="147"/>
    </contour>
  </outline>
</glyph>
<glyph name="eight" format="1">
  <advance width="598"/>
  <unicode hex="0038"/>
  <outline>
    <contour>
      <point x="262" y="-1" type="curve" smooth="yes"/>
      <point x="408" y="-1"/>
      <point x="513" y="80"/>
      <point x="530" y="201" type="curve" smooth="yes"/>
      <point x="542" y="286"/>
      <point x="485" y="373"/>
      <point x="414" y="387" type="curve"/>
      <point x="486" y="415"/>
      <point x="536" y="463"/>
      <point x="548" y="546" type="curve" smooth="yes"/>
      <point x="565" y="667"/>
      <point x="485" y="737"/>
      <point x="366" y="737" type="curve" smooth="yes"/>
      <point x="248" y="737"/>
      <point x="147" y="667"/>
      <point x="130" y="546" type="curve" smooth="yes"/>
      <point x="119" y="463"/>
      <point x="156" y="415"/>
      <point x="220" y="387" type="curve"/>
      <point x="145" y="373"/>
      <point x="64" y="286"/>
      <point x="52" y="201" type="curve" smooth="yes"/>
      <point x="35" y="80"/>
      <point x="117" y="-1"/>
    </contour>
    <contour>
      <point x="268" y="38" type="curve" smooth="yes"/>
      <point x="149" y="38"/>
      <point x="79" y="101"/>
      <point x="92" y="198" type="curve" smooth="yes"/>
      <point x="106" y="294"/>
      <point x="195" y="364"/>
      <point x="313" y="364" type="curve" smooth="yes"/>
      <point x="433" y="364"/>
      <point x="502" y="294"/>
      <point x="489" y="198" type="curve" smooth="yes"/>
      <point x="475" y="101"/>
      <point x="387" y="38"/>
    </contour>
    <contour>
      <point x="320" y="409" type="curve" smooth="yes"/>
      <point x="220" y="409"/>
      <point x="158" y="456"/>
      <point x="171" y="548" type="curve" smooth="yes"/>
      <point x="184" y="639"/>
      <point x="260" y="697"/>
      <point x="360" y="697" type="curve" smooth="yes"/>
      <point x="461" y="697"/>
      <point x="521" y="640"/>
      <point x="508" y="548" type="curve" smooth="yes"/>
      <point x="495" y="456"/>
      <point x="421" y="409"/>
    </contour>
  </outline>
</glyph>
<glyph name="nine" format="1">
  <advance width="556"/>
  <unicode hex="0039"/>
  <outline>
    <contour>
      <point x="220" y="-2" type="curve" smooth="yes"/>
      <point x="382" y="-2"/>
      <point x="486" y="150"/>
      <point x="518" y="377" type="curve" smooth="yes"/>
      <point x="550" y="610"/>
      <point x="477" y="741"/>
      <point x="338" y="741" type="curve" smooth="yes"/>
      <point x="204" y="741"/>
      <point x="115" y="642"/>
      <point x="94" y="494" type="curve" smooth="yes"/>
      <point x="73" y="344"/>
      <point x="146" y="258"/>
      <point x="274" y="258" type="curve" smooth="yes"/>
      <point x="368" y="258"/>
      <point x="455" y="328"/>
      <point x="488" y="427" type="curve"/>
      <point x="460" y="162"/>
      <point x="365" y="37"/>
      <point x="225" y="37" type="curve" smooth="yes"/>
      <point x="143" y="37"/>
      <point x="88" y="88"/>
      <point x="79" y="164" type="curve"/>
      <point x="42" y="164" type="line"/>
      <point x="49" y="58"/>
      <point x="124" y="-2"/>
    </contour>
    <contour>
      <point x="275" y="299" type="curve" smooth="yes"/>
      <point x="159" y="299"/>
      <point x="119" y="378"/>
      <point x="135" y="496" type="curve" smooth="yes"/>
      <point x="152" y="618"/>
      <point x="230" y="700"/>
      <point x="329" y="700" type="curve" smooth="yes"/>
      <point x="437" y="700"/>
      <point x="494" y="602"/>
      <point x="475" y="477" type="curve"/>
      <point x="460" y="375"/>
      <point x="365" y="299"/>
    </contour>
  </outline>
</glyph>
<glyph name="colon" format="1">
  <advance width="181"/>
  <unicode hex="003A"/>
  <outline>
    <contour>
      <point x="84" y="410" type="line"/>
      <point x="140" y="410" type="line"/>
      <point x="151" y="488" type="line"/>
      <point x="95" y="488" type="line"/>
    </contour>
    <contour>
      <point x="26" y="3" type="line"/>
      <point x="82" y="3" type="line"/>
      <point x="93" y="80" type="line"/>
      <point x="37" y="80" type="line"/>
    </contour>
  </outline>
</glyph>
<glyph name="semicolon" format="1">
  <advance width="209"/>
  <unicode hex="003B"/>
  <outline>
    <contour>
      <point x="-7" y="-131" type="line"/>
      <point x="12" y="-131" type="line"/>
      <point x="88" y="9" type="line"/>
      <point x="97" y="77" type="line"/>
      <point x="41" y="77" type="line"/>
      <point x="31" y="0" type="line"/>
      <point x="56" y="0" type="line"/>
    </contour>
    <contour>
      <point x="84" y="410" type="line"/>
      <point x="140" y="410" type="line"/>
      <point x="151" y="488" type="line"/>
      <point x="94" y="488" type="line"/>
    </contour>
  </outline>
</glyph>
<glyph name="less" format="1">
  <advance width="484"/>
  <unicode hex="003C"/>
  <outline>
    <contour>
      <point x="406" y="174" type="line"/>
      <point x="412" y="219" type="line"/>
      <point x="133" y="349" type="line"/>
      <point x="450" y="478" type="line"/>
      <point x="456" y="527" type="line"/>
      <point x="81" y="372" type="line"/>
      <point x="75" y="325" type="line"/>
    </contour>
  </outline>
</glyph>
<glyph name="equal" format="1">
  <advance width="490"/>
  <unicode hex="003D"/>
  <outline>
    <contour>
      <point x="91" y="442" type="line"/>
      <point x="451" y="443" type="line"/>
      <point x="456" y="480" type="line"/>
      <point x="96" y="479" type="line"/>
    </contour>
    <contour>
      <point x="61" y="227" type="line"/>
      <point x="421" y="228" type="line"/>
      <point x="426" y="265" type="line"/>
      <point x="66" y="264" type="line"/>
    </contour>
  </outline>
</glyph>
<glyph name="greater" format="1">
  <advance width="483"/>
  <unicode hex="003E"/>
  <outline>
    <contour>
      <point x="54" y="174" type="line"/>
      <point x="427" y="325" type="line"/>
      <point x="434" y="372" type="line"/>
      <point x="103" y="527" type="line"/>
      <point x="96" y="478" type="line"/>
      <point x="376" y="349" type="line"/>
      <point x="61" y="219" type="line"/>
    </contour>
  </outline>
</glyph>
<glyph name="question" format="1">
  <advance width="483"/>
  <unicode hex="003F"/>
  <outline>
    <contour>
      <point x="185" y="146" type="curve"/>
      <point x="222" y="146" type="line"/>
      <point x="248" y="328"/>
      <point x="445" y="380"/>
      <point x="470" y="556" type="curve" smooth="yes"/>
      <point x="485" y="664"/>
      <point x="421" y="733"/>
      <point x="305" y="733" type="curve" smooth="yes"/>
      <point x="219" y="733"/>
      <point x="133" y="684"/>
      <point x="84" y="608" type="curve"/>
      <point x="119" y="589" type="line"/>
      <point x="147" y="644"/>
      <point x="229" y="692"/>
      <point x="299" y="692" type="curve" smooth="yes"/>
      <point x="389" y="692"/>
      <point x="440" y="640"/>
      <point x="428" y="556" type="curve" smooth="yes"/>
      <point x="405" y="394"/>
      <point x="212" y="341"/>
    </contour>
    <contour>
      <point x="156" y="0" type="line"/>
      <point x="211" y="0" type="line"/>
      <point x="222" y="77" type="line"/>
      <point x="167" y="77" type="line"/>
    </contour>
  </outline>
</glyph>
<glyph name="at" format="1">
  <advance width="752"/>
  <unicode hex="0040"/>
  <outline>
    <contour>
      <point x="342" y="-110" type="curve" smooth="yes"/>
      <point x="418" y="-110"/>
      <point x="490" y="-83"/>
      <point x="557" y="-35" type="curve"/>
      <point x="538" y="-1" type="line"/>
      <point x="485" y="-37"/>
      <point x="441" y="-67"/>
      <point x="359" y="-67" type="curve" smooth="yes"/>
      <point x="150" y="-67"/>
      <point x="69" y="84"/>
      <point x="92" y="252" type="curve" smooth="yes"/>
      <point x="119" y="443"/>
      <point x="262" y="603"/>
      <point x="452" y="603" type="curve" smooth="yes"/>
      <point x="577" y="603"/>
      <point x="709" y="523"/>
      <point x="681" y="326" type="curve" smooth="yes"/>
      <point x="664" y="203"/>
      <point x="596" y="121"/>
      <point x="527" y="121" type="curve" smooth="yes"/>
      <point x="490" y="121"/>
      <point x="479" y="143"/>
      <point x="498" y="209" type="curve" smooth="yes"/>
      <point x="565" y="438" type="line"/>
      <point x="528" y="438" type="line"/>
      <point x="512" y="396" type="line" smooth="yes"/>
      <point x="510" y="391"/>
      <point x="506" y="391"/>
      <point x="506" y="393" type="curve" smooth="yes"/>
      <point x="492" y="436"/>
      <point x="457" y="463"/>
      <point x="408" y="463" type="curve" smooth="yes"/>
      <point x="311" y="463"/>
      <point x="226" y="364"/>
      <point x="208" y="237" type="curve" smooth="yes"/>
      <point x="193" y="133"/>
      <point x="242" y="65"/>
      <point x="304" y="65" type="curve" smooth="yes"/>
      <point x="367" y="65"/>
      <point x="410" y="96"/>
      <point x="442" y="137" type="curve" smooth="yes"/>
      <point x="449" y="144"/>
      <point x="451" y="144"/>
      <point x="452" y="135" type="curve" smooth="yes"/>
      <point x="454" y="92"/>
      <point x="477" y="79"/>
      <point x="520" y="79" type="curve" smooth="yes"/>
      <point x="616" y="79"/>
      <point x="706" y="182"/>
      <point x="727" y="332" type="curve" smooth="yes"/>
      <point x="758" y="550"/>
      <point x="610" y="644"/>
      <point x="459" y="644" type="curve" smooth="yes"/>
      <point x="249" y="644"/>
      <point x="79" y="465"/>
      <point x="49" y="254" type="curve" smooth="yes"/>
      <point x="21" y="54"/>
      <point x="126" y="-110"/>
    </contour>
    <contour>
      <point x="315" y="108" type="curve" smooth="yes"/>
      <point x="265" y="108"/>
      <point x="241" y="156"/>
      <point x="253" y="238" type="curve" smooth="yes"/>
      <point x="267" y="338"/>
      <point x="327" y="420"/>
      <point x="404" y="420" type="curve" smooth="yes"/>
      <point x="455" y="420"/>
      <point x="502" y="371"/>
      <point x="470" y="259" type="curve" smooth="yes"/>
      <point x="446" y="176"/>
      <point x="379" y="108"/>
    </contour>
  </outline>
</glyph>
<glyph name="A" format="1">
  <advance width="647"/>
  <unicode hex="0041"/>
  <outline>
    <contour>
      <point x="19" y="0" type="line"/>
      <point x="57" y="0" type="line"/>
      <point x="167" y="228" type="line"/>
      <point x="472" y="228" type="line"/>
      <point x="516" y="0" type="line"/>
      <point x="556" y="0" type="line"/>
      <point x="415" y="723" type="line"/>
      <point x="364" y="723" type="line"/>
    </contour>
    <contour>
      <point x="186" y="271" type="line"/>
      <point x="384" y="681" type="line"/>
      <point x="464" y="271" type="line"/>
    </contour>
    <contour>
      <point x="287" y="0" type="move" name="bottom"/>
    </contour>
    <contour>
      <point x="556" y="12" type="move" name="ogonek"/>
    </contour>
    <contour>
      <point x="389" y="723" type="move" name="top"/>
    </contour>
  </outline>
</glyph>
<glyph name="B" format="1">
  <advance width="609"/>
  <unicode hex="0042"/>
  <outline>
    <contour>
      <point x="69" y="0" type="line"/>
      <point x="259" y="0" type="line"/>
      <point x="416" y="0"/>
      <point x="517" y="64"/>
      <point x="535" y="193" type="curve"/>
      <point x="549" y="289"/>
      <point x="507" y="349"/>
      <point x="412" y="367" type="curve"/>
      <point x="511" y="397"/>
      <point x="555" y="454"/>
      <point x="567" y="536" type="curve" smooth="yes"/>
      <point x="584" y="657"/>
      <point x="507" y="723"/>
      <point x="358" y="723" type="curve" smooth="yes"/>
      <point x="171" y="723" type="line"/>
    </contour>
    <contour>
      <point x="111" y="41" type="line"/>
      <point x="154" y="345" type="line"/>
      <point x="316" y="345" type="line" smooth="yes"/>
      <point x="428" y="345"/>
      <point x="515" y="304"/>
      <point x="499" y="187" type="curve" smooth="yes"/>
      <point x="484" y="81"/>
      <point x="402" y="41"/>
      <point x="260" y="41" type="curve"/>
    </contour>
    <contour>
      <point x="159" y="386" type="line"/>
      <point x="201" y="683" type="line"/>
      <point x="348" y="683" type="line" smooth="yes"/>
      <point x="470" y="683"/>
      <point x="545" y="637"/>
      <point x="530" y="531" type="curve" smooth="yes"/>
      <point x="514" y="412"/>
      <point x="404" y="386"/>
      <point x="321" y="386" type="curve" smooth="yes"/>
    </contour>
  </outline>
</glyph>
<glyph name="C" format="1">
  <advance width="1262"/>
  <unicode hex="0043"/>
  <outline>
    <contour>
      <point x="598" y="-20" type="curve" smooth="yes"/>
      <point x="818" y="-20"/>
      <point x="1052" y="138"/>
      <point x="1100" y="346" type="curve"/>
      <point x="1026" y="368" type="line"/>
      <point x="956" y="174"/>
      <point x="796" y="62"/>
      <point x="614" y="62" type="curve" smooth="yes"/>
      <point x="302" y="62"/>
      <point x="190" y="298"/>
      <point x="250" y="718" type="curve" smooth="yes"/>
      <point x="310" y="1152"/>
      <point x="492" y="1384"/>
      <point x="784" y="1384" type="curve" smooth="yes"/>
      <point x="1012" y="1384"/>
      <point x="1120" y="1246"/>
      <point x="1128" y="1058" type="curve"/>
      <point x="1210" y="1072" type="line"/>
      <point x="1218" y="1280"/>
      <point x="1064" y="1466"/>
      <point x="792" y="1466" type="curve" smooth="yes"/>
      <point x="458" y="1466"/>
      <point x="234" y="1190"/>
      <point x="168" y="718" type="curve" smooth="yes"/>
      <point x="102" y="248"/>
      <point x="252" y="-20"/>
    </contour>
    <contour>
      <point x="602" y="0" type="move" name="bottom"/>
    </contour>
    <contour>
      <point x="792" y="1446" type="move" name="top"/>
    </contour>
  </outline>
</glyph>
<glyph name="D" format="1">
  <advance width="628"/>
  <unicode hex="0044"/>
  <outline>
    <contour>
      <point x="69" y="0" type="line"/>
      <point x="167" y="0" type="line" smooth="yes"/>
      <point x="411" y="0"/>
      <point x="542" y="112"/>
      <point x="578" y="367" type="curve" smooth="yes"/>
      <point x="612" y="608"/>
      <point x="527" y="721"/>
      <point x="281" y="722" type="curve" smooth="yes"/>
      <point x="226" y="722"/>
      <point x="173" y="723"/>
      <point x="171" y="723" type="curve"/>
    </contour>
    <contour>
      <point x="114" y="41" type="line"/>
      <point x="204" y="682" type="line"/>
      <point x="265" y="682" type="line" smooth="yes"/>
      <point x="469" y="682"/>
      <point x="574" y="612"/>
      <point x="539" y="363" type="curve" smooth="yes"/>
      <point x="506" y="127"/>
      <point x="385" y="41"/>
      <point x="170" y="41" type="curve" smooth="yes"/>
    </contour>
    <contour>
      <point x="296" y="0" type="move" name="bottom"/>
    </contour>
    <contour>
      <point x="323" y="362" type="move" name="center"/>
    </contour>
    <contour>
      <point x="368" y="723" type="move" name="top"/>
    </contour>
  </outline>
</glyph>
<glyph name="E" format="1">
  <advance width="1140"/>
  <unicode hex="0045"/>
  <outline>
    <contour>
      <point x="137" y="0" type="line"/>
      <point x="927" y="0" type="line"/>
      <point x="939" y="82" type="line"/>
      <point x="221" y="84" type="line"/>
      <point x="307" y="690" type="line"/>
      <point x="951" y="690" type="line"/>
      <point x="961" y="772" type="line"/>
      <point x="317" y="772" type="line"/>
      <point x="401" y="1366" type="line"/>
      <point x="1093" y="1366" type="line"/>
      <point x="1105" y="1446" type="line"/>
      <point x="341" y="1446" type="line"/>
    </contour>
    <contour>
      <point x="541" y="0" type="move" name="bottom"/>
    </contour>
    <contour>
      <point x="921" y="20" type="move" name="ogonek"/>
    </contour>
    <contour>
      <point x="705" y="1446" type="move" name="top"/>
    </contour>
  </outline>
</glyph>
<glyph name="F" format="1">
  <advance width="528"/>
  <unicode hex="0046"/>
  <outline>
    <contour>
      <point x="71" y="0" type="line"/>
      <point x="110" y="0" type="line"/>
      <point x="159" y="346" type="line"/>
      <point x="472" y="346" type="line"/>
      <point x="477" y="387" type="line"/>
      <point x="165" y="387" type="line"/>
      <point x="206" y="683" type="line"/>
      <point x="543" y="683" type="line"/>
      <point x="548" y="723" type="line"/>
      <point x="172" y="723" type="line"/>
    </contour>
  </outline>
</glyph>
<glyph name="G" format="1">
  <advance width="668"/>
  <unicode hex="0047"/>
  <outline>
    <contour>
      <point x="297" y="-10" type="curve" smooth="yes"/>
      <point x="400" y="-10"/>
      <point x="476" y="50"/>
      <point x="523" y="126" type="curve"/>
      <point x="505" y="0" type="line"/>
      <point x="541" y="0" type="line"/>
      <point x="593" y="368" type="line"/>
      <point x="371" y="368" type="line"/>
      <point x="366" y="333" type="line"/>
      <point x="552" y="333" type="line"/>
      <point x="540" y="249" type="line" smooth="yes"/>
      <point x="527" y="157"/>
      <point x="445" y="29"/>
      <point x="303" y="29" type="curve" smooth="yes"/>
      <point x="157" y="29"/>
      <point x="92" y="149"/>
      <point x="122" y="365" type="curve" smooth="yes"/>
      <point x="151" y="569"/>
      <point x="252" y="692"/>
      <point x="396" y="692" type="curve" smooth="yes"/>
      <point x="492" y="692"/>
      <point x="558" y="621"/>
      <point x="559" y="530" type="curve"/>
      <point x="603" y="538" type="line"/>
      <point x="608" y="644"/>
      <point x="513" y="733"/>
      <point x="402" y="733" type="curve" smooth="yes"/>
      <point x="239" y="733"/>
      <point x="117" y="599"/>
      <point x="84" y="359" type="curve" smooth="yes"/>
      <point x="51" y="126"/>
      <point x="130" y="-10"/>
    </contour>
    <contour>
      <point x="298" y="0" type="move" name="bottom"/>
    </contour>
    <contour>
      <point x="401" y="723" type="move" name="top"/>
    </contour>
  </outline>
</glyph>
<glyph name="H" format="1">
  <advance width="645"/>
  <unicode hex="0048"/>
  <outline>
    <contour>
      <point x="69" y="0" type="line"/>
      <point x="105" y="0" type="line"/>
      <point x="155" y="356" type="line"/>
      <point x="522" y="356" type="line"/>
      <point x="472" y="0" type="line"/>
      <point x="508" y="0" type="line"/>
      <point x="610" y="723" type="line"/>
      <point x="574" y="723" type="line"/>
      <point x="528" y="397" type="line"/>
      <point x="161" y="397" type="line"/>
      <point x="207" y="723" type="line"/>
      <point x="171" y="723" type="line"/>
    </contour>
    <contour>
      <point x="289" y="0" type="move" name="bottom"/>
    </contour>
    <contour>
      <point x="391" y="723" type="move" name="top"/>
    </contour>
  </outline>
</glyph>
<glyph name="I" format="1">
  <advance width="245"/>
  <unicode hex="0049"/>
  <outline>
    <contour>
      <point x="71" y="0" type="line"/>
      <point x="107" y="0" type="line"/>
      <point x="208" y="723" type="line"/>
      <point x="172" y="723" type="line"/>
    </contour>
    <contour>
      <point x="90" y="0" type="move" name="bottom"/>
    </contour>
    <contour>
      <point x="103" y="10" type="move" name="ogonek"/>
    </contour>
    <contour>
      <point x="191" y="723" type="move" name="top"/>
    </contour>
  </outline>
</glyph>
<glyph name="J" format="1">
  <advance width="343"/>
  <unicode hex="004A"/>
  <outline>
    <contour>
      <point x="88" y="-10" type="curve" smooth="yes"/>
      <point x="174" y="-10"/>
      <point x="208" y="48"/>
      <point x="221" y="140" type="curve" smooth="yes"/>
      <point x="303" y="723" type="line"/>
      <point x="267" y="723" type="line"/>
      <point x="187" y="154" type="line" smooth="yes"/>
      <point x="175" y="63"/>
      <point x="150" y="31"/>
      <point x="92" y="31" type="curve" smooth="yes"/>
      <point x="45" y="31"/>
      <point x="25" y="52"/>
      <point x="6" y="62" type="curve"/>
      <point x="-9" y="19" type="line"/>
      <point x="-4" y="13"/>
      <point x="36" y="-10"/>
    </contour>
    <contour>
      <point x="285" y="723" type="move" name="top"/>
    </contour>
  </outline>
</glyph>
<glyph name="K" format="1">
  <advance width="601"/>
  <unicode hex="004B"/>
  <outline>
    <contour>
      <point x="71" y="0" type="line"/>
      <point x="109" y="0" type="line"/>
      <point x="144" y="248" type="line"/>
      <point x="298" y="407" type="line"/>
      <point x="480" y="0" type="line"/>
      <point x="527" y="0" type="line"/>
      <point x="333" y="438" type="line"/>
      <point x="613" y="723" type="line"/>
      <point x="564" y="723" type="line"/>
      <point x="152" y="306" type="line"/>
      <point x="210" y="723" type="line"/>
      <point x="173" y="723" type="line"/>
    </contour>
    <contour>
      <point x="275" y="0" type="move" name="bottom"/>
    </contour>
    <contour>
      <point x="393" y="723" type="move" name="top"/>
    </contour>
  </outline>
</glyph>
<glyph name="L" format="1">
  <advance width="519"/>
  <unicode hex="004C"/>
  <outline>
    <contour>
      <point x="69" y="0" type="line"/>
      <point x="448" y="0" type="line"/>
      <point x="454" y="43" type="line"/>
      <point x="114" y="43" type="line"/>
      <point x="210" y="723" type="line"/>
      <point x="171" y="723" type="line"/>
    </contour>
    <contour>
      <point x="253" y="0" type="move" name="bottom"/>
    </contour>
    <contour>
      <point x="191" y="723" type="move" name="top"/>
    </contour>
    <contour>
      <point x="446" y="723" type="move" name="topright"/>
    </contour>
  </outline>
</glyph>
<glyph name="M" format="1">
  <advance width="791"/>
  <unicode hex="004D"/>
  <outline>
    <contour>
      <point x="71" y="0" type="line"/>
      <point x="110" y="0" type="line"/>
      <point x="196" y="608" type="line"/>
      <point x="334" y="0" type="line"/>
      <point x="387" y="0" type="line"/>
      <point x="700" y="616" type="line"/>
      <point x="613" y="0" type="line"/>
      <point x="653" y="0" type="line"/>
      <point x="754" y="723" type="line"/>
      <point x="715" y="723" type="line"/>
      <point x="366" y="44" type="line"/>
      <point x="213" y="723" type="line"/>
      <point x="172" y="723" type="line"/>
    </contour>
  </outline>
</glyph>
<glyph name="N" format="1">
  <advance width="676"/>
  <unicode hex="004E"/>
  <outline>
    <contour>
      <point x="71" y="0" type="line"/>
      <point x="107" y="0" type="line"/>
      <point x="198" y="643" type="line"/>
      <point x="506" y="0" type="line"/>
      <point x="537" y="0" type="line"/>
      <point x="639" y="723" type="line"/>
      <point x="603" y="723" type="line"/>
      <point x="512" y="78" type="line"/>
      <point x="202" y="723" type="line"/>
      <point x="173" y="723" type="line"/>
    </contour>
    <contour>
      <point x="282" y="0" type="move" name="bottom"/>
    </contour>
    <contour>
      <point x="406" y="723" type="move" name="top"/>
    </contour>
  </outline>
</glyph>
<glyph name="O" format="1">
  <advance width="680"/>
  <unicode hex="004F"/>
  <outline>
    <contour>
      <point x="303" y="-10" type="curve" smooth="yes"/>
      <point x="471" y="-10"/>
      <point x="590" y="119"/>
      <point x="624" y="360" type="curve" smooth="yes"/>
      <point x="658" y="603"/>
      <point x="576" y="733"/>
      <point x="408" y="733" type="curve" smooth="yes"/>
      <point x="239" y="733"/>
      <point x="118" y="602"/>
      <point x="84" y="358" type="curve" smooth="yes"/>
      <point x="50" y="118"/>
      <point x="133" y="-10"/>
    </contour>
    <contour>
      <point x="310" y="31" type="curve" smooth="yes"/>
      <point x="161" y="31"/>
      <point x="94" y="139"/>
      <point x="125" y="360" type="curve" smooth="yes"/>
      <point x="156" y="582"/>
      <point x="254" y="692"/>
      <point x="402" y="692" type="curve" smooth="yes"/>
      <point x="550" y="692"/>
      <point x="615" y="583"/>
      <point x="584" y="360" type="curve" smooth="yes"/>
      <point x="553" y="138"/>
      <point x="458" y="31"/>
    </contour>
    <contour>
      <point x="306" y="0" type="move" name="bottom"/>
    </contour>
    <contour>
      <point x="564" y="606" type="move" name="horn"/>
    </contour>
    <contour>
      <point x="370" y="9" type="move" name="ogonek"/>
    </contour>
    <contour>
      <point x="408" y="723" type="move" name="top"/>
    </contour>
  </outline>
</glyph>
<glyph name="P" format="1">
  <advance width="585"/>
  <unicode hex="0050"/>
  <outline>
    <contour>
      <point x="71" y="0" type="line"/>
      <point x="110" y="0" type="line"/>
      <point x="149" y="277" type="line"/>
      <point x="320" y="277" type="line" smooth="yes"/>
      <point x="456" y="277"/>
      <point x="565" y="358"/>
      <point x="586" y="503" type="curve" smooth="yes"/>
      <point x="606" y="648"/>
      <point x="517" y="723"/>
      <point x="377" y="723" type="curve" smooth="yes"/>
      <point x="172" y="723" type="line"/>
    </contour>
    <contour>
      <point x="155" y="320" type="line"/>
      <point x="206" y="681" type="line"/>
      <point x="370" y="681" type="line" smooth="yes"/>
      <point x="492" y="681"/>
      <point x="562" y="626"/>
      <point x="546" y="506" type="curve" smooth="yes"/>
      <point x="529" y="386"/>
      <point x="441" y="320"/>
      <point x="326" y="320" type="curve" smooth="yes"/>
    </contour>
  </outline>
</glyph>
<glyph name="Q" format="1">
  <advance width="662"/>
  <unicode hex="0051"/>
  <outline>
    <contour>
      <point x="535" y="-119" type="curve"/>
      <point x="541" y="-79" type="line"/>
      <point x="483" y="-76"/>
      <point x="435" y="-50"/>
      <point x="414" y="18" type="curve"/>
      <point x="530" y="79"/>
      <point x="588" y="194"/>
      <point x="611" y="360" type="curve" smooth="yes"/>
      <point x="645" y="605"/>
      <point x="562" y="733"/>
      <point x="394" y="733" type="curve" smooth="yes"/>
      <point x="225" y="733"/>
      <point x="105" y="605"/>
      <point x="71" y="360" type="curve" smooth="yes"/>
      <point x="36" y="113"/>
      <point x="125" y="-10"/>
      <point x="289" y="-10" type="curve" smooth="yes"/>
      <point x="315" y="-10"/>
      <point x="341" y="-6"/>
      <point x="372" y="1" type="curve"/>
      <point x="405" y="-98"/>
      <point x="491" y="-119"/>
    </contour>
    <contour>
      <point x="295" y="31" type="curve" smooth="yes"/>
      <point x="148" y="31"/>
      <point x="80" y="137"/>
      <point x="111" y="358" type="curve" smooth="yes"/>
      <point x="142" y="577"/>
      <point x="238" y="692"/>
      <point x="388" y="692" type="curve" smooth="yes"/>
      <point x="538" y="692"/>
      <point x="602" y="577"/>
      <point x="571" y="360" type="curve" smooth="yes"/>
      <point x="540" y="137"/>
      <point x="442" y="31"/>
    </contour>
  </outline>
</glyph>
<glyph name="R" format="1">
  <advance width="620"/>
  <unicode hex="0052"/>
  <outline>
    <contour>
      <point x="69" y="0" type="line"/>
      <point x="105" y="0" type="line"/>
      <point x="154" y="344" type="line"/>
      <point x="377" y="344" type="line"/>
      <point x="463" y="0" type="line"/>
      <point x="504" y="0" type="line"/>
      <point x="416" y="353" type="line"/>
      <point x="483" y="371"/>
      <point x="568" y="423"/>
      <point x="585" y="544" type="curve" smooth="yes"/>
      <point x="601" y="663"/>
      <point x="534" y="723"/>
      <point x="405" y="723" type="curve" smooth="yes"/>
      <point x="171" y="723" type="line"/>
    </contour>
    <contour>
      <point x="159" y="385" type="line"/>
      <point x="201" y="683" type="line"/>
      <point x="399" y="683" type="line" smooth="yes"/>
      <point x="508" y="683"/>
      <point x="559" y="640"/>
      <point x="545" y="537" type="curve" smooth="yes"/>
      <point x="530" y="428"/>
      <point x="455" y="385"/>
      <point x="327" y="385" type="curve" smooth="yes"/>
    </contour>
    <contour>
      <point x="268" y="0" type="move" name="bottom"/>
    </contour>
    <contour>
      <point x="363" y="723" type="move" name="top"/>
    </contour>
  </outline>
</glyph>
<glyph name="S" format="1">
  <advance width="631"/>
  <unicode hex="0053"/>
  <outline>
    <contour>
      <point x="278" y="-10" type="curve" smooth="yes"/>
      <point x="436" y="-10"/>
      <point x="527" y="75"/>
      <point x="541" y="177" type="curve" smooth="yes"/>
      <point x="553" y="259"/>
      <point x="525" y="334"/>
      <point x="425" y="364" type="curve" smooth="yes"/>
      <point x="289" y="404" type="line" smooth="yes"/>
      <point x="188" y="434"/>
      <point x="159" y="471"/>
      <point x="168" y="533" type="curve" smooth="yes"/>
      <point x="183" y="643"/>
      <point x="292" y="691"/>
      <point x="371" y="691" type="curve" smooth="yes"/>
      <point x="462" y="691"/>
      <point x="539" y="650"/>
      <point x="541" y="532" type="curve"/>
      <point x="579" y="540" type="line"/>
      <point x="584" y="640"/>
      <point x="530" y="732"/>
      <point x="379" y="732" type="curve" smooth="yes"/>
      <point x="245" y="732"/>
      <point x="144" y="646"/>
      <point x="128" y="532" type="curve" smooth="yes"/>
      <point x="116" y="446"/>
      <point x="165" y="399"/>
      <point x="259" y="372" type="curve" smooth="yes"/>
      <point x="402" y="332" type="line" smooth="yes"/>
      <point x="484" y="309"/>
      <point x="512" y="252"/>
      <point x="501" y="175" type="curve" smooth="yes"/>
      <point x="489" y="90"/>
      <point x="400" y="29"/>
      <point x="284" y="29" type="curve" smooth="yes"/>
      <point x="186" y="29"/>
      <point x="102" y="78"/>
      <point x="96" y="176" type="curve"/>
      <point x="56" y="167" type="line"/>
      <point x="60" y="55"/>
      <point x="157" y="-10"/>
    </contour>
    <contour>
      <point x="269" y="0" type="move" name="bottom"/>
    </contour>
    <contour>
      <point x="376" y="723" type="move" name="top"/>
    </contour>
  </outline>
</glyph>
<glyph name="T" format="1">
  <advance width="502"/>
  <unicode hex="0054"/>
  <outline>
    <contour>
      <point x="206" y="0" type="line"/>
      <point x="242" y="0" type="line"/>
      <point x="338" y="683" type="line"/>
      <point x="548" y="683" type="line"/>
      <point x="553" y="723" type="line"/>
      <point x="79" y="723" type="line"/>
      <point x="74" y="683" type="line"/>
      <point x="302" y="683" type="line"/>
    </contour>
    <contour>
      <point x="226" y="2" type="move" name="bottom"/>
    </contour>
    <contour>
      <point x="327" y="723" type="move" name="top"/>
    </contour>
  </outline>
</glyph>
<glyph name="U" format="1">
  <advance width="650"/>
  <unicode hex="0055"/>
  <outline>
    <contour>
      <point x="287" y="-10" type="curve" smooth="yes"/>
      <point x="435" y="-10"/>
      <point x="518" y="67"/>
      <point x="540" y="224" type="curve" smooth="yes"/>
      <point x="610" y="723" type="line"/>
      <point x="574" y="723" type="line"/>
      <point x="504" y="222" type="line" smooth="yes"/>
      <point x="486" y="94"/>
      <point x="415" y="28"/>
      <point x="292" y="28" type="curve" smooth="yes"/>
      <point x="170" y="28"/>
      <point x="121" y="96"/>
      <point x="139" y="222" type="curve" smooth="yes"/>
      <point x="209" y="723" type="line"/>
      <point x="170" y="723" type="line"/>
      <point x="102" y="239" type="line" smooth="yes"/>
      <point x="78" y="69"/>
      <point x="136" y="-10"/>
    </contour>
    <contour>
      <point x="287" y="2" type="move" name="bottom"/>
    </contour>
    <contour>
      <point x="580" y="606" type="move" name="horn"/>
    </contour>
    <contour>
      <point x="354" y="9" type="move" name="ogonek"/>
    </contour>
    <contour>
      <point x="391" y="723" type="move" name="top"/>
    </contour>
  </outline>
</glyph>
<glyph name="V" format="1">
  <advance width="560"/>
  <unicode hex="0056"/>
  <outline>
    <contour>
      <point x="214" y="0" type="line"/>
      <point x="267" y="0" type="line"/>
      <point x="610" y="723" type="line"/>
      <point x="571" y="723" type="line"/>
      <point x="246" y="41" type="line"/>
      <point x="119" y="723" type="line"/>
      <point x="80" y="723" type="line"/>
    </contour>
  </outline>
</glyph>
<glyph name="W" format="1">
  <advance width="873"/>
  <unicode hex="0057"/>
  <outline>
    <contour>
      <point x="180" y="0" type="line"/>
      <point x="228" y="0" type="line"/>
      <point x="489" y="648" type="line"/>
      <point x="565" y="0" type="line"/>
      <point x="615" y="0" type="line"/>
      <point x="908" y="723" type="line"/>
      <point x="869" y="723" type="line"/>
      <point x="598" y="49" type="line"/>
      <point x="518" y="723" type="line"/>
      <point x="482" y="723" type="line"/>
      <point x="211" y="49" type="line"/>
      <point x="136" y="723" type="line"/>
      <point x="95" y="723" type="line"/>
    </contour>
    <contour>
      <point x="501" y="723" type="move" name="top"/>
    </contour>
  </outline>
</glyph>
<glyph name="X" format="1">
  <advance width="1136"/>
  <unicode hex="0058"/>
  <outline>
    <contour>
      <point x="-13" y="0" type="line"/>
      <point x="79" y="0" type="line"/>
      <point x="589" y="664" type="line"/>
      <point x="911" y="0" type="line"/>
      <point x="1003" y="0" type="line"/>
      <point x="645" y="742" type="line"/>
      <point x="1183" y="1446" type="line"/>
      <point x="1091" y="1446" type="line"/>
      <point x="609" y="816" type="line"/>
      <point x="307" y="1446" type="line"/>
      <point x="211" y="1446" type="line"/>
      <point x="551" y="742" type="line"/>
    </contour>
  </outline>
</glyph>
<glyph name="Y" format="1">
  <advance width="497"/>
  <unicode hex="0059"/>
  <outline>
    <contour>
      <point x="196" y="0" type="line"/>
      <point x="231" y="0" type="line"/>
      <point x="275" y="311" type="line"/>
      <point x="552" y="723" type="line"/>
      <point x="512" y="723" type="line"/>
      <point x="263" y="351" type="line"/>
      <point x="115" y="723" type="line"/>
      <point x="75" y="723" type="line"/>
      <point x="239" y="312" type="line"/>
    </contour>
    <contour>
      <point x="214" y="0" type="move" name="bottom"/>
    </contour>
    <contour>
      <point x="314" y="725" type="move" name="top"/>
    </contour>
  </outline>
</glyph>
<glyph name="Z" format="1">
  <advance width="549"/>
  <unicode hex="005A"/>
  <outline>
    <contour>
      <point x="19" y="0" type="line"/>
      <point x="457" y="0" type="line"/>
      <point x="463" y="39" type="line"/>
      <point x="70" y="39" type="line"/>
      <point x="555" y="693" type="line"/>
      <point x="559" y="723" type="line"/>
      <point x="129" y="723" type="line"/>
      <point x="124" y="684" type="line"/>
      <point x="506" y="684" type="line"/>
      <point x="24" y="31" type="line"/>
    </contour>
    <contour>
      <point x="249" y="0" type="move" name="bottom"/>
    </contour>
    <contour>
      <point x="344" y="723" type="move" name="top"/>
    </contour>
  </outline>
</glyph>
<glyph name="bracketleft" format="1">
  <advance width="257"/>
  <unicode hex="005B"/>
  <outline>
    <contour>
      <point x="47" y="-161" type="line"/>
      <point x="177" y="-161" type="line"/>
      <point x="182" y="-125" type="line"/>
      <point x="89" y="-125" type="line"/>
      <point x="204" y="687" type="line"/>
      <point x="297" y="687" type="line"/>
      <point x="302" y="723" type="line"/>
      <point x="170" y="723" type="line"/>
    </contour>
  </outline>
</glyph>
<glyph name="backslash" format="1">
  <advance width="296"/>
  <unicode hex="005C"/>
  <outline>
    <contour>
      <point x="197" y="-59" type="line"/>
      <point x="236" y="-59" type="line"/>
      <point x="118" y="723" type="line"/>
      <point x="80" y="723" type="line"/>
    </contour>
  </outline>
</glyph>
<glyph name="asciicircum" format="1">
  <advance width="433"/>
  <unicode hex="005E"/>
  <outline>
    <contour>
      <point x="38" y="136" type="line"/>
      <point x="79" y="136" type="line"/>
      <point x="245" y="463" type="line"/>
      <point x="317" y="134" type="line"/>
      <point x="361" y="134" type="line"/>
      <point x="279" y="491" type="line" smooth="yes"/>
      <point x="268" y="540"/>
      <point x="240" y="536"/>
      <point x="218" y="491" type="curve" smooth="yes"/>
    </contour>
  </outline>
</glyph>
<glyph name="underscore" format="1">
  <advance width="459"/>
  <unicode hex="005F"/>
  <outline>
    <contour>
      <point x="17" y="-99" type="line"/>
      <point x="341" y="-98" type="line"/>
      <point x="347" y="-59" type="line"/>
      <point x="23" y="-60" type="line"/>
    </contour>
  </outline>
</glyph>
<glyph name="a" format="1">
  <advance width="1005"/>
  <unicode hex="0061"/>
  <outline>
    <contour>
      <point x="340" y="-20" type="curve" smooth="yes"/>
      <point x="480" y="-20"/>
      <point x="622" y="28"/>
      <point x="730" y="200" type="curve"/>
      <point x="706" y="0" type="line"/>
      <point x="772" y="0" type="line"/>
      <point x="872" y="716" type="line" smooth="yes"/>
      <point x="902" y="926"/>
      <point x="778" y="1054"/>
      <point x="576" y="1054" type="curve" smooth="yes"/>
      <point x="354" y="1054"/>
      <point x="212" y="904"/>
      <point x="182" y="758" type="curve"/>
      <point x="260" y="758" type="line"/>
      <point x="300" y="900"/>
      <point x="424" y="978"/>
      <point x="562" y="978" type="curve" smooth="yes"/>
      <point x="724" y="978"/>
      <point x="824" y="880"/>
      <point x="800" y="714" type="curve" smooth="yes"/>
      <point x="786" y="614" type="line"/>
      <point x="566" y="606" type="line" smooth="yes"/>
      <point x="248" y="594"/>
      <point x="106" y="496"/>
      <point x="74" y="264" type="curve" smooth="yes"/>
      <point x="50" y="88"/>
      <point x="152" y="-20"/>
    </contour>
    <contour>
      <point x="362" y="54" type="curve" smooth="yes"/>
      <point x="216" y="54"/>
      <point x="132" y="134"/>
      <point x="150" y="270" type="curve" smooth="yes"/>
      <point x="176" y="450"/>
      <point x="286" y="526"/>
      <point x="590" y="532" type="curve" smooth="yes"/>
      <point x="774" y="536" type="line"/>
      <point x="746" y="334" type="line" smooth="yes"/>
      <point x="726" y="194"/>
      <point x="520" y="54"/>
    </contour>
    <contour>
      <point x="430" y="0" type="move" name="bottom"/>
    </contour>
    <contour>
      <point x="764" y="28" type="move" name="ogonek"/>
    </contour>
    <contour>
      <point x="574" y="1034" type="move" name="top"/>
    </contour>
  </outline>
</glyph>
<glyph name="b" format="1">
  <advance width="547"/>
  <unicode hex="0062"/>
  <outline>
    <contour>
      <point x="259" y="-10" type="curve" smooth="yes"/>
      <point x="389" y="-10"/>
      <point x="468" y="94"/>
      <point x="492" y="260" type="curve" smooth="yes"/>
      <point x="512" y="406"/>
      <point x="471" y="527"/>
      <point x="334" y="527" type="curve" smooth="yes"/>
      <point x="215" y="527"/>
      <point x="166" y="442"/>
      <point x="154" y="420" type="curve"/>
      <point x="199" y="743" type="line"/>
      <point x="163" y="743" type="line"/>
      <point x="59" y="0" type="line"/>
      <point x="91" y="0" type="line"/>
      <point x="109" y="106" type="line"/>
      <point x="113" y="82"/>
      <point x="132" y="-10"/>
    </contour>
    <contour>
      <point x="263" y="27" type="curve" smooth="yes"/>
      <point x="165" y="27"/>
      <point x="111" y="104"/>
      <point x="120" y="178" type="curve"/>
      <point x="142" y="339" type="line"/>
      <point x="149" y="361"/>
      <point x="181" y="489"/>
      <point x="325" y="489" type="curve" smooth="yes"/>
      <point x="433" y="489"/>
      <point x="473" y="399"/>
      <point x="453" y="260" type="curve" smooth="yes"/>
      <point x="431" y="100"/>
      <point x="357" y="27"/>
    </contour>
  </outline>
</glyph>
<glyph name="c" format="1">
  <advance width="496"/>
  <unicode hex="0063"/>
  <outline>
    <contour>
      <point x="224" y="-10" type="curve" smooth="yes"/>
      <point x="302" y="-10"/>
      <point x="388" y="28"/>
      <point x="425" y="138" type="curve"/>
      <point x="387" y="138" type="line"/>
      <point x="360" y="61"/>
      <point x="297" y="27"/>
      <point x="233" y="27" type="curve" smooth="yes"/>
      <point x="125" y="27"/>
      <point x="74" y="119"/>
      <point x="93" y="258" type="curve" smooth="yes"/>
      <point x="113" y="396"/>
      <point x="192" y="489"/>
      <point x="299" y="489" type="curve" smooth="yes"/>
      <point x="359" y="489"/>
      <point x="411" y="459"/>
      <point x="420" y="377" type="curve"/>
      <point x="459" y="379" type="line"/>
      <point x="454" y="483"/>
      <point x="380" y="527"/>
      <point x="300" y="527" type="curve" smooth="yes"/>
      <point x="171" y="527"/>
      <point x="78" y="415"/>
      <point x="55" y="256" type="curve" smooth="yes"/>
      <point x="33" y="98"/>
      <point x="95" y="-10"/>
    </contour>
    <contour>
      <point x="226" y="0" type="move" name="bottom"/>
    </contour>
    <contour>
      <point x="297" y="517" type="move" name="top"/>
    </contour>
  </outline>
</glyph>
<glyph name="d" format="1">
  <advance width="542"/>
  <unicode hex="0064"/>
  <outline>
    <contour>
      <point x="212" y="-10" type="curve" smooth="yes"/>
      <point x="339" y="-10"/>
      <point x="384" y="82"/>
      <point x="395" y="106" type="curve"/>
      <point x="383" y="0" type="line"/>
      <point x="415" y="0" type="line"/>
      <point x="520" y="743" type="line"/>
      <point x="484" y="743" type="line"/>
      <point x="440" y="428" type="line"/>
      <point x="433" y="450"/>
      <point x="399" y="527"/>
      <point x="288" y="527" type="curve" smooth="yes"/>
      <point x="151" y="527"/>
      <point x="76" y="406"/>
      <point x="55" y="260" type="curve" smooth="yes"/>
      <point x="32" y="94"/>
      <point x="83" y="-10"/>
    </contour>
    <contour>
      <point x="218" y="27" type="curve" smooth="yes"/>
      <point x="125" y="27"/>
      <point x="71" y="100"/>
      <point x="94" y="260" type="curve" smooth="yes"/>
      <point x="113" y="399"/>
      <point x="179" y="489"/>
      <point x="286" y="489" type="curve" smooth="yes"/>
      <point x="420" y="489"/>
      <point x="426" y="361"/>
      <point x="427" y="339" type="curve"/>
      <point x="404" y="178" type="line"/>
      <point x="392" y="104"/>
      <point x="317" y="27"/>
    </contour>
    <contour>
      <point x="228" y="0" type="move" name="bottom"/>
    </contour>
    <contour>
      <point x="275" y="258" type="move" name="center"/>
    </contour>
    <contour>
      <point x="621" y="723" type="move" name="topright"/>
    </contour>
  </outline>
</glyph>
<glyph name="e" format="1">
  <advance width="1014"/>
  <unicode hex="0065"/>
  <outline>
    <contour>
      <point x="453" y="-20" type="curve" smooth="yes"/>
      <point x="623" y="-20"/>
      <point x="777" y="66"/>
      <point x="859" y="276" type="curve"/>
      <point x="783" y="276" type="line"/>
      <point x="723" y="138"/>
      <point x="613" y="58"/>
      <point x="465" y="58" type="curve" smooth="yes"/>
      <point x="225" y="58"/>
      <point x="151" y="262"/>
      <point x="183" y="496" type="curve"/>
      <point x="901" y="496" type="line"/>
      <point x="909" y="554" type="line"/>
      <point x="955" y="872"/>
      <point x="837" y="1054"/>
      <point x="593" y="1054" type="curve" smooth="yes"/>
      <point x="335" y="1054"/>
      <point x="157" y="850"/>
      <point x="109" y="508" type="curve" smooth="yes"/>
      <point x="61" y="170"/>
      <point x="205" y="-20"/>
    </contour>
    <contour>
      <point x="197" y="574" type="line"/>
      <point x="223" y="768"/>
      <point x="349" y="976"/>
      <point x="581" y="976" type="curve" smooth="yes"/>
      <point x="795" y="976"/>
      <point x="869" y="804"/>
      <point x="837" y="574" type="curve"/>
    </contour>
    <contour>
      <point x="443" y="0" type="move" name="bottom"/>
    </contour>
    <contour>
      <point x="621" y="36" type="move" name="ogonek"/>
    </contour>
    <contour>
      <point x="591" y="1034" type="move" name="top"/>
    </contour>
  </outline>
</glyph>
<glyph name="f" format="1">
  <advance width="371"/>
  <unicode hex="0066"/>
  <outline>
    <contour>
      <point x="121" y="0" type="line"/>
      <point x="157" y="0" type="line"/>
      <point x="224" y="483" type="line"/>
      <point x="355" y="483" type="line"/>
      <point x="360" y="517" type="line"/>
      <point x="229" y="517" type="line"/>
      <point x="242" y="611" type="line" smooth="yes"/>
      <point x="249" y="661"/>
      <point x="265" y="689"/>
      <point x="310" y="689" type="curve" smooth="yes"/>
      <point x="389" y="689" type="line"/>
      <point x="393" y="723" type="line"/>
      <point x="324" y="723" type="line" smooth="yes"/>
      <point x="252" y="723"/>
      <point x="217" y="683"/>
      <point x="205" y="603" type="curve" smooth="yes"/>
      <point x="193" y="517" type="line"/>
      <point x="80" y="517" type="line"/>
      <point x="75" y="483" type="line"/>
      <point x="189" y="483" type="line"/>
    </contour>
  </outline>
</glyph>
<glyph name="g" format="1">
  <advance width="1117"/>
  <unicode hex="0067"/>
  <outline>
    <contour>
      <point x="400" y="-342" type="curve" smooth="yes"/>
      <point x="670" y="-342"/>
      <point x="844" y="-232"/>
      <point x="870" y="-38" type="curve" smooth="yes"/>
      <point x="892" y="118"/>
      <point x="822" y="214"/>
      <point x="632" y="226" type="curve" smooth="yes"/>
      <point x="542" y="232"/>
      <point x="472" y="236"/>
      <point x="418" y="240" type="curve" smooth="yes"/>
      <point x="268" y="252"/>
      <point x="226" y="268"/>
      <point x="232" y="312" type="curve" smooth="yes"/>
      <point x="238" y="356"/>
      <point x="302" y="404"/>
      <point x="492" y="408" type="curve" smooth="yes"/>
      <point x="498" y="408"/>
      <point x="504" y="408"/>
      <point x="512" y="408" type="curve" smooth="yes"/>
      <point x="764" y="408"/>
      <point x="894" y="546"/>
      <point x="918" y="720" type="curve" smooth="yes"/>
      <point x="926" y="772"/>
      <point x="914" y="852"/>
      <point x="900" y="892" type="curve"/>
      <point x="1074" y="932" type="line"/>
      <point x="1092" y="1048" type="line"/>
      <point x="1066" y="1038"/>
      <point x="898" y="964"/>
      <point x="872" y="952" type="curve"/>
      <point x="808" y="1018"/>
      <point x="732" y="1050"/>
      <point x="614" y="1050" type="curve" smooth="yes"/>
      <point x="378" y="1050"/>
      <point x="220" y="926"/>
      <point x="192" y="720" type="curve" smooth="yes"/>
      <point x="174" y="590"/>
      <point x="206" y="514"/>
      <point x="316" y="444" type="curve"/>
      <point x="220" y="414"/>
      <point x="164" y="366"/>
      <point x="156" y="310" type="curve" smooth="yes"/>
      <point x="148" y="248"/>
      <point x="188" y="226"/>
      <point x="220" y="202" type="curve"/>
      <point x="188" y="176"/>
      <point x="32" y="104"/>
      <point x="10" y="-52" type="curve" smooth="yes"/>
      <point x="-16" y="-234"/>
      <point x="124" y="-342"/>
    </contour>
    <contour>
      <point x="426" y="-268" type="curve" smooth="yes"/>
      <point x="190" y="-268"/>
      <point x="66" y="-188"/>
      <point x="86" y="-44" type="curve" smooth="yes"/>
      <point x="104" y="84"/>
      <point x="248" y="172"/>
      <point x="306" y="168" type="curve" smooth="yes"/>
      <point x="618" y="146" type="line" smooth="yes"/>
      <point x="768" y="136"/>
      <point x="810" y="70"/>
      <point x="796" y="-38" type="curve" smooth="yes"/>
      <point x="772" y="-196"/>
      <point x="644" y="-268"/>
    </contour>
    <contour>
      <point x="524" y="482" type="curve" smooth="yes"/>
      <point x="334" y="482"/>
      <point x="242" y="566"/>
      <point x="264" y="724" type="curve" smooth="yes"/>
      <point x="286" y="884"/>
      <point x="406" y="976"/>
      <point x="594" y="976" type="curve" smooth="yes"/>
      <point x="766" y="976"/>
      <point x="872" y="896"/>
      <point x="846" y="724" type="curve" smooth="yes"/>
      <point x="824" y="564"/>
      <point x="718" y="482"/>
    </contour>
    <contour>
      <point x="608" y="1034" type="move" name="top"/>
    </contour>
  </outline>
</glyph>
<glyph name="h" format="1">
  <advance width="546"/>
  <unicode hex="0068"/>
  <outline>
    <contour>
      <point x="59" y="0" type="line"/>
      <point x="95" y="0" type="line"/>
      <point x="146" y="360" type="line"/>
      <point x="158" y="448"/>
      <point x="237" y="489"/>
      <point x="321" y="489" type="curve" smooth="yes"/>
      <point x="402" y="489"/>
      <point x="446" y="444"/>
      <point x="435" y="368" type="curve" smooth="yes"/>
      <point x="383" y="0" type="line"/>
      <point x="419" y="0" type="line"/>
      <point x="473" y="383" type="line" smooth="yes"/>
      <point x="485" y="468"/>
      <point x="422" y="527"/>
      <point x="328" y="527" type="curve" smooth="yes"/>
      <point x="250" y="527"/>
      <point x="186" y="489"/>
      <point x="154" y="440" type="curve"/>
      <point x="197" y="743" type="line"/>
      <point x="164" y="743" type="line"/>
    </contour>
    <contour>
      <point x="249" y="0" type="move" name="bottom"/>
    </contour>
    <contour>
      <point x="342" y="517" type="move" name="top"/>
    </contour>
  </outline>
</glyph>
<glyph name="i" format="1">
  <advance width="245"/>
  <unicode hex="0069"/>
  <outline>
    <contour>
      <point x="69" y="0" type="line"/>
      <point x="105" y="0" type="line"/>
      <point x="177" y="517" type="line"/>
      <point x="141" y="517" type="line"/>
    </contour>
    <contour>
      <point x="155" y="647" type="line"/>
      <point x="199" y="647" type="line"/>
      <point x="208" y="707" type="line"/>
      <point x="164" y="707" type="line"/>
    </contour>
    <contour>
      <point x="86" y="0" type="move" name="bottom"/>
    </contour>
  </outline>
</glyph>
<glyph name="j" format="1">
  <advance width="224"/>
  <unicode hex="006A"/>
  <outline>
    <contour>
      <point x="-31" y="-166" type="curve" smooth="yes"/>
      <point x="51" y="-166"/>
      <point x="75" y="-130"/>
      <point x="86" y="-50" type="curve" smooth="yes"/>
      <point x="166" y="517" type="line"/>
      <point x="130" y="517" type="line"/>
      <point x="51" y="-45" type="line" smooth="yes"/>
      <point x="42" y="-107"/>
      <point x="21" y="-129"/>
      <point x="-27" y="-130" type="curve" smooth="yes"/>
      <point x="-84" y="-131" type="line"/>
      <point x="-88" y="-157" type="line" smooth="yes"/>
      <point x="-88" y="-157"/>
      <point x="-85" y="-166"/>
    </contour>
    <contour>
      <point x="145" y="647" type="line"/>
      <point x="189" y="647" type="line"/>
      <point x="197" y="707" type="line"/>
      <point x="153" y="707" type="line"/>
    </contour>
  </outline>
</glyph>
<glyph name="k" format="1">
  <advance width="515"/>
  <unicode hex="006B"/>
  <outline>
    <contour>
      <point x="59" y="0" type="line"/>
      <point x="95" y="0" type="line"/>
      <point x="117" y="158" type="line"/>
      <point x="262" y="296" type="line"/>
      <point x="389" y="0" type="line"/>
      <point x="435" y="0" type="line"/>
      <point x="294" y="329" type="line"/>
      <point x="491" y="517" type="line"/>
      <point x="440" y="517" type="line"/>
      <point x="125" y="214" type="line"/>
      <point x="199" y="743" type="line"/>
      <point x="164" y="743" type="line"/>
    </contour>
    <contour>
      <point x="222" y="0" type="move" name="bottom"/>
    </contour>
  </outline>
</glyph>
<glyph name="l" format="1">
  <advance width="259"/>
  <unicode hex="006C"/>
  <outline>
    <contour>
      <point x="147" y="-4" type="curve" smooth="yes"/>
      <point x="153" y="-4"/>
      <point x="166" y="-3"/>
      <point x="178" y="0" type="curve"/>
      <point x="182" y="29" type="line"/>
      <point x="153" y="29" type="line"/>
      <point x="127" y="29"/>
      <point x="103" y="54"/>
      <point x="112" y="121" type="curve"/>
      <point x="200" y="743" type="line"/>
      <point x="164" y="743" type="line"/>
      <point x="76" y="121" type="line"/>
      <point x="66" y="50"/>
      <point x="84" y="-4"/>
    </contour>
    <contour>
      <point x="96" y="1" type="move" name="bottom"/>
    </contour>
    <contour>
      <point x="181" y="762" type="move" name="top"/>
    </contour>
    <contour>
      <point x="306" y="723" type="move" name="topright"/>
    </contour>
  </outline>
</glyph>
<glyph name="m" format="1">
  <advance width="795"/>
  <unicode hex="006D"/>
  <outline>
    <contour>
      <point x="59" y="0" type="line"/>
      <point x="94" y="0" type="line"/>
      <point x="145" y="360" type="line" smooth="yes"/>
      <point x="158" y="453"/>
      <point x="237" y="489"/>
      <point x="297" y="489" type="curve" smooth="yes"/>
      <point x="350" y="489"/>
      <point x="409" y="452"/>
      <point x="398" y="376" type="curve" smooth="yes"/>
      <point x="346" y="0" type="line"/>
      <point x="381" y="0" type="line"/>
      <point x="432" y="360" type="line" smooth="yes"/>
      <point x="446" y="462"/>
      <point x="529" y="489"/>
      <point x="584" y="489" type="curve" smooth="yes"/>
      <point x="646" y="489"/>
      <point x="698" y="460"/>
      <point x="681" y="335" type="curve" smooth="yes"/>
      <point x="634" y="0" type="line"/>
      <point x="669" y="0" type="line"/>
      <point x="716" y="335" type="line" smooth="yes"/>
      <point x="740" y="501"/>
      <point x="653" y="527"/>
      <point x="589" y="527" type="curve" smooth="yes"/>
      <point x="525" y="527"/>
      <point x="468" y="495"/>
      <point x="431" y="441" type="curve"/>
      <point x="418" y="497"/>
      <point x="358" y="527"/>
      <point x="303" y="527" type="curve" smooth="yes"/>
      <point x="229" y="527"/>
      <point x="183" y="486"/>
      <point x="153" y="440" type="curve"/>
      <point x="164" y="517" type="line"/>
      <point x="131" y="517" type="line"/>
    </contour>
  </outline>
</glyph>
<glyph name="n" format="1">
  <advance width="544"/>
  <unicode hex="006E"/>
  <outline>
    <contour>
      <point x="59" y="0" type="line"/>
      <point x="94" y="0" type="line"/>
      <point x="145" y="360" type="line" smooth="yes"/>
      <point x="157" y="448"/>
      <point x="236" y="489"/>
      <point x="321" y="489" type="curve" smooth="yes"/>
      <point x="401" y="489"/>
      <point x="444" y="435"/>
      <point x="430" y="335" type="curve" smooth="yes"/>
      <point x="382" y="0" type="line"/>
      <point x="418" y="0" type="line"/>
      <point x="465" y="335" type="line" smooth="yes"/>
      <point x="484" y="467"/>
      <point x="421" y="527"/>
      <point x="326" y="527" type="curve" smooth="yes"/>
      <point x="249" y="527"/>
      <point x="185" y="489"/>
      <point x="154" y="440" type="curve"/>
      <point x="164" y="517" type="line"/>
      <point x="131" y="517" type="line"/>
    </contour>
    <contour>
      <point x="240" y="0" type="move" name="bottom"/>
    </contour>
    <contour>
      <point x="321" y="517" type="move" name="top"/>
    </contour>
  </outline>
</glyph>
<glyph name="o" format="1">
  <advance width="520"/>
  <unicode hex="006F"/>
  <outline>
    <contour>
      <point x="223" y="-10" type="curve" smooth="yes"/>
      <point x="354" y="-10"/>
      <point x="443" y="99"/>
      <point x="465" y="257" type="curve" smooth="yes"/>
      <point x="487" y="415"/>
      <point x="429" y="527"/>
      <point x="300" y="527" type="curve" smooth="yes"/>
      <point x="168" y="527"/>
      <point x="78" y="414"/>
      <point x="55" y="255" type="curve" smooth="yes"/>
      <point x="33" y="98"/>
      <point x="91" y="-10"/>
    </contour>
    <contour>
      <point x="230" y="27" type="curve" smooth="yes"/>
      <point x="119" y="27"/>
      <point x="74" y="120"/>
      <point x="93" y="257" type="curve" smooth="yes"/>
      <point x="113" y="395"/>
      <point x="184" y="489"/>
      <point x="294" y="489" type="curve" smooth="yes"/>
      <point x="404" y="489"/>
      <point x="447" y="396"/>
      <point x="427" y="257" type="curve" smooth="yes"/>
      <point x="408" y="119"/>
      <point x="341" y="27"/>
    </contour>
    <contour>
      <point x="226" y="0" type="move" name="bottom"/>
    </contour>
    <contour>
      <point x="451" y="357" type="move" name="horn"/>
    </contour>
    <contour>
      <point x="283" y="10" type="move" name="ogonek"/>
    </contour>
    <contour>
      <point x="299" y="517" type="move" name="top"/>
    </contour>
  </outline>
</glyph>
<glyph name="p" format="1">
  <advance width="546"/>
  <unicode hex="0070"/>
  <outline>
    <contour>
      <point x="36" y="-161" type="line"/>
      <point x="72" y="-161" type="line"/>
      <point x="104" y="68" type="line"/>
      <point x="138" y="16"/>
      <point x="182" y="-10"/>
      <point x="237" y="-10" type="curve" smooth="yes"/>
      <point x="369" y="-10"/>
      <point x="468" y="102"/>
      <point x="492" y="268" type="curve" smooth="yes"/>
      <point x="516" y="441"/>
      <point x="438" y="527"/>
      <point x="323" y="527" type="curve" smooth="yes"/>
      <point x="223" y="527"/>
      <point x="172" y="459"/>
      <point x="154" y="440" type="curve"/>
      <point x="165" y="517" type="line"/>
      <point x="131" y="517" type="line"/>
    </contour>
    <contour>
      <point x="242" y="27" type="curve" smooth="yes"/>
      <point x="186" y="27"/>
      <point x="145" y="56"/>
      <point x="109" y="101" type="curve"/>
      <point x="144" y="355" type="line" smooth="yes"/>
      <point x="152" y="413"/>
      <point x="224" y="489"/>
      <point x="313" y="489" type="curve" smooth="yes"/>
      <point x="403" y="489"/>
      <point x="475" y="419"/>
      <point x="453" y="264" type="curve" smooth="yes"/>
      <point x="433" y="116"/>
      <point x="345" y="27"/>
    </contour>
  </outline>
</glyph>
<glyph name="q" format="1">
  <advance width="541"/>
  <unicode hex="0071"/>
  <outline>
    <contour>
      <point x="356" y="-161" type="line"/>
      <point x="391" y="-161" type="line"/>
      <point x="487" y="517" type="line"/>
      <point x="453" y="517" type="line"/>
      <point x="442" y="440" type="line"/>
      <point x="429" y="459"/>
      <point x="397" y="527"/>
      <point x="297" y="527" type="curve" smooth="yes"/>
      <point x="182" y="527"/>
      <point x="80" y="441"/>
      <point x="56" y="268" type="curve" smooth="yes"/>
      <point x="33" y="102"/>
      <point x="100" y="-10"/>
      <point x="232" y="-10" type="curve" smooth="yes"/>
      <point x="305" y="-10"/>
      <point x="363" y="31"/>
      <point x="392" y="96" type="curve"/>
    </contour>
    <contour>
      <point x="238" y="27" type="curve" smooth="yes"/>
      <point x="135" y="27"/>
      <point x="73" y="116"/>
      <point x="93" y="264" type="curve" smooth="yes"/>
      <point x="115" y="419"/>
      <point x="206" y="489"/>
      <point x="296" y="489" type="curve" smooth="yes"/>
      <point x="385" y="489"/>
      <point x="436" y="413"/>
      <point x="428" y="355" type="curve" smooth="yes"/>
      <point x="404" y="182" type="line"/>
      <point x="395" y="116"/>
      <point x="339" y="27"/>
    </contour>
  </outline>
</glyph>
<glyph name="r" format="1">
  <advance width="340"/>
  <unicode hex="0072"/>
  <outline>
    <contour>
      <point x="59" y="0" type="line"/>
      <point x="95" y="0" type="line"/>
      <point x="146" y="360" type="line" smooth="yes"/>
      <point x="157" y="440"/>
      <point x="224" y="488"/>
      <point x="342" y="487" type="curve"/>
      <point x="348" y="527" type="line"/>
      <point x="258" y="527"/>
      <point x="186" y="489"/>
      <point x="154" y="440" type="curve"/>
      <point x="165" y="517" type="line"/>
      <point x="132" y="517" type="line"/>
    </contour>
    <contour>
      <point x="77" y="0" type="move" name="bottom"/>
    </contour>
    <contour>
      <point x="232" y="517" type="move" name="top"/>
    </contour>
  </outline>
</glyph>
<glyph name="s" format="1">
  <advance width="471"/>
  <unicode hex="0073"/>
  <outline>
    <contour>
      <point x="202" y="-10" type="curve" smooth="yes"/>
      <point x="291" y="-10"/>
      <point x="374" y="40"/>
      <point x="388" y="135" type="curve" smooth="yes"/>
      <point x="395" y="190"/>
      <point x="377" y="242"/>
      <point x="311" y="263" type="curve" smooth="yes"/>
      <point x="202" y="297" type="line" smooth="yes"/>
      <point x="151" y="313"/>
      <point x="123" y="335"/>
      <point x="130" y="382" type="curve" smooth="yes"/>
      <point x="141" y="465"/>
      <point x="218" y="487"/>
      <point x="270" y="487" type="curve" smooth="yes"/>
      <point x="338" y="487"/>
      <point x="374" y="448"/>
      <point x="372" y="390" type="curve"/>
      <point x="411" y="390" type="line"/>
      <point x="419" y="478"/>
      <point x="364" y="527"/>
      <point x="276" y="527" type="curve" smooth="yes"/>
      <point x="185" y="527"/>
      <point x="106" y="482"/>
      <point x="92" y="382" type="curve" smooth="yes"/>
      <point x="82" y="313"/>
      <point x="121" y="280"/>
      <point x="187" y="258" type="curve" smooth="yes"/>
      <point x="288" y="224" type="line" smooth="yes"/>
      <point x="330" y="210"/>
      <point x="356" y="181"/>
      <point x="350" y="133" type="curve" smooth="yes"/>
      <point x="340" y="67"/>
      <point x="284" y="30"/>
      <point x="207" y="30" type="curve" smooth="yes"/>
      <point x="131" y="30"/>
      <point x="83" y="66"/>
      <point x="81" y="138" type="curve"/>
      <point x="40" y="138" type="line"/>
      <point x="37" y="43"/>
      <point x="101" y="-10"/>
    </contour>
    <contour>
      <point x="191" y="0" type="move" name="bottom"/>
    </contour>
    <contour>
      <point x="256" y="517" type="move" name="top"/>
    </contour>
  </outline>
</glyph>
<glyph name="t" format="1">
  <advance width="310"/>
  <unicode hex="0074"/>
  <outline>
    <contour>
      <point x="166" y="0" type="curve" smooth="yes"/>
      <point x="189" y="0"/>
      <point x="212" y="1"/>
      <point x="224" y="5" type="curve"/>
      <point x="229" y="39" type="line"/>
      <point x="189" y="39" type="line" smooth="yes"/>
      <point x="133" y="39"/>
      <point x="116" y="49"/>
      <point x="126" y="121" type="curve" smooth="yes"/>
      <point x="177" y="483" type="line"/>
      <point x="287" y="483" type="line"/>
      <point x="292" y="517" type="line"/>
      <point x="182" y="517" type="line"/>
      <point x="202" y="662" type="line"/>
      <point x="174" y="662" type="line"/>
      <point x="144" y="517" type="line"/>
      <point x="67" y="517" type="line"/>
      <point x="62" y="483" type="line"/>
      <point x="140" y="483" type="line"/>
      <point x="88" y="116" type="line" smooth="yes"/>
      <point x="76" y="33"/>
      <point x="94" y="0"/>
    </contour>
    <contour>
      <point x="143" y="0" type="move" name="bottom"/>
    </contour>
    <contour>
      <point x="159" y="310" type="move" name="center"/>
    </contour>
    <contour>
      <point x="376" y="736" type="move" name="topright"/>
    </contour>
  </outline>
</glyph>
<glyph name="u" format="1">
  <advance width="540"/>
  <unicode hex="0075"/>
  <outline>
    <contour>
      <point x="232" y="-9" type="curve" smooth="yes"/>
      <point x="302" y="-10"/>
      <point x="366" y="34"/>
      <point x="391" y="96" type="curve"/>
      <point x="381" y="1" type="line"/>
      <point x="414" y="1" type="line"/>
      <point x="486" y="519" type="line"/>
      <point x="451" y="519" type="line"/>
      <point x="403" y="182" type="line"/>
      <point x="388" y="76"/>
      <point x="308" y="29"/>
      <point x="235" y="29" type="curve" smooth="yes"/>
      <point x="177" y="29"/>
      <point x="98" y="60"/>
      <point x="114" y="174" type="curve" smooth="yes"/>
      <point x="163" y="519" type="line"/>
      <point x="127" y="519" type="line"/>
      <point x="78" y="174" type="line" smooth="yes"/>
      <point x="59" y="35"/>
      <point x="153" y="-8"/>
    </contour>
    <contour>
      <point x="232" y="0" type="move" name="bottom"/>
    </contour>
    <contour>
      <point x="460" y="428" type="move" name="horn"/>
    </contour>
    <contour>
      <point x="407" y="11" type="move" name="ogonek"/>
    </contour>
    <contour>
      <point x="306" y="517" type="move" name="top"/>
    </contour>
  </outline>
</glyph>
<glyph name="v" format="1">
  <advance width="457"/>
  <unicode hex="0076"/>
  <outline>
    <contour>
      <point x="163" y="0" type="line"/>
      <point x="221" y="0" type="line"/>
      <point x="458" y="517" type="line"/>
      <point x="422" y="517" type="line"/>
      <point x="203" y="44" type="line"/>
      <point x="191" y="44" type="line"/>
      <point x="110" y="517" type="line"/>
      <point x="71" y="517" type="line"/>
    </contour>
  </outline>
</glyph>
<glyph name="w" format="1">
  <advance width="720"/>
  <unicode hex="0077"/>
  <outline>
    <contour>
      <point x="143" y="0" type="line"/>
      <point x="206" y="0" type="line"/>
      <point x="387" y="450" type="line"/>
      <point x="452" y="0" type="line"/>
      <point x="512" y="0" type="line"/>
      <point x="716" y="517" type="line"/>
      <point x="679" y="517" type="line"/>
      <point x="492" y="45" type="line"/>
      <point x="481" y="45" type="line"/>
      <point x="413" y="517" type="line"/>
      <point x="380" y="517" type="line"/>
      <point x="186" y="43" type="line"/>
      <point x="175" y="43" type="line"/>
      <point x="115" y="517" type="line"/>
      <point x="76" y="517" type="line"/>
    </contour>
    <contour>
      <point x="400" y="517" type="move" name="top"/>
    </contour>
  </outline>
</glyph>
<glyph name="x" format="1">
  <advance width="503"/>
  <unicode hex="0078"/>
  <outline>
    <contour>
      <point x="8" y="0" type="line"/>
      <point x="53" y="0" type="line"/>
      <point x="248" y="237" type="line"/>
      <point x="378" y="0" type="line"/>
      <point x="423" y="0" type="line"/>
      <point x="276" y="268" type="line"/>
      <point x="481" y="517" type="line"/>
      <point x="436" y="517" type="line"/>
      <point x="257" y="299" type="line"/>
      <point x="139" y="517" type="line"/>
      <point x="94" y="517" type="line"/>
      <point x="229" y="268" type="line"/>
    </contour>
  </outline>
</glyph>
<glyph name="y" format="1">
  <advance width="928"/>
  <unicode hex="0079"/>
  <outline>
    <contour>
      <point x="85" y="-330" type="curve" smooth="yes"/>
      <point x="199" y="-330"/>
      <point x="293" y="-280"/>
      <point x="359" y="-150" type="curve" smooth="yes"/>
      <point x="941" y="1034" type="line"/>
      <point x="871" y="1034" type="line"/>
      <point x="415" y="112" type="line"/>
      <point x="211" y="1034" type="line"/>
      <point x="133" y="1034" type="line"/>
      <point x="361" y="6" type="line"/>
      <point x="293" y="-132" type="line"/>
      <point x="257" y="-204"/>
      <point x="201" y="-260"/>
      <point x="83" y="-260" type="curve" smooth="yes"/>
      <point x="-19" y="-260" type="line"/>
      <point x="-27" y="-314" type="line" smooth="yes"/>
      <point x="-27" y="-314"/>
      <point x="-7" y="-330"/>
    </contour>
    <contour>
      <point x="543" y="1034" type="move" name="top"/>
    </contour>
  </outline>
</glyph>
<glyph name="z" format="1">
  <advance width="456"/>
  <unicode hex="007A"/>
  <outline>
    <contour>
      <point x="19" y="0" type="line"/>
      <point x="365" y="0" type="line"/>
      <point x="369" y="34" type="line"/>
      <point x="65" y="34" type="line"/>
      <point x="425" y="476" type="line"/>
      <point x="431" y="517" type="line"/>
      <point x="111" y="517" type="line"/>
      <point x="106" y="483" type="line"/>
      <point x="387" y="483" type="line"/>
      <point x="24" y="38" type="line"/>
    </contour>
    <contour>
      <point x="198" y="0" type="move" name="bottom"/>
    </contour>
    <contour>
      <point x="271" y="517" type="move" name="top"/>
    </contour>
  </outline>
</glyph>
<glyph name="braceleft" format="1">
  <advance width="251"/>
  <unicode hex="007B"/>
  <outline>
    <contour>
      <point x="147" y="-161" type="curve" smooth="yes"/>
      <point x="172" y="-161" type="line"/>
      <point x="177" y="-125" type="line"/>
      <point x="152" y="-125" type="line" smooth="yes"/>
      <point x="107" y="-125"/>
      <point x="97" y="-108"/>
      <point x="102" y="-71" type="curve" smooth="yes"/>
      <point x="134" y="158" type="line" smooth="yes"/>
      <point x="145" y="239"/>
      <point x="112" y="274"/>
      <point x="66" y="278" type="curve" smooth="yes"/>
      <point x="58" y="279"/>
      <point x="60" y="284"/>
      <point x="67" y="285" type="curve" smooth="yes"/>
      <point x="115" y="290"/>
      <point x="158" y="330"/>
      <point x="169" y="409" type="curve" smooth="yes"/>
      <point x="201" y="636" type="line" smooth="yes"/>
      <point x="206" y="672"/>
      <point x="224" y="687"/>
      <point x="265" y="687" type="curve" smooth="yes"/>
      <point x="291" y="687" type="line"/>
      <point x="296" y="723" type="line"/>
      <point x="271" y="723" type="line" smooth="yes"/>
      <point x="204" y="723"/>
      <point x="169" y="686"/>
      <point x="162" y="636" type="curve" smooth="yes"/>
      <point x="130" y="409" type="line" smooth="yes"/>
      <point x="121" y="350"/>
      <point x="81" y="301"/>
      <point x="11" y="300" type="curve"/>
      <point x="5" y="262" type="line"/>
      <point x="74" y="262"/>
      <point x="101" y="205"/>
      <point x="95" y="158" type="curve" smooth="yes"/>
      <point x="62" y="-71" type="line" smooth="yes"/>
      <point x="55" y="-121"/>
      <point x="76" y="-161"/>
    </contour>
  </outline>
</glyph>
<glyph name="bar" format="1">
  <advance width="240"/>
  <unicode hex="007C"/>
  <outline>
    <contour>
      <point x="47" y="-161" type="line"/>
      <point x="81" y="-161" type="line"/>
      <point x="220" y="826" type="line"/>
      <point x="185" y="826" type="line"/>
    </contour>
  </outline>
</glyph>
<glyph name="asciitilde" format="1">
  <advance width="491"/>
  <unicode hex="007E"/>
  <outline>
    <contour>
      <point x="81" y="327" type="line"/>
      <point x="103" y="348"/>
      <point x="135" y="370"/>
      <point x="181" y="370" type="curve" smooth="yes"/>
      <point x="245" y="370"/>
      <point x="270" y="327"/>
      <point x="342" y="327" type="curve" smooth="yes"/>
      <point x="397" y="327"/>
      <point x="432" y="351"/>
      <point x="447" y="369" type="curve"/>
      <point x="440" y="403" type="line"/>
      <point x="421" y="384"/>
      <point x="396" y="362"/>
      <point x="348" y="362" type="curve" smooth="yes"/>
      <point x="284" y="362"/>
      <point x="248" y="406"/>
      <point x="184" y="406" type="curve" smooth="yes"/>
      <point x="133" y="406"/>
      <point x="101" y="382"/>
      <point x="74" y="359" type="curve"/>
    </contour>
  </outline>
</glyph>
<glyph name="exclamdown" format="1">
  <advance width="218"/>
  <unicode hex="00A1"/>
  <outline>
    <contour>
      <point x="32" y="-161" type="line"/>
      <point x="79" y="-161" type="line"/>
      <point x="139" y="372" type="line"/>
      <point x="110" y="372" type="line"/>
    </contour>
    <contour>
      <point x="106" y="440" type="line"/>
      <point x="161" y="440" type="line"/>
      <point x="171" y="517" type="line"/>
      <point x="116" y="517" type="line"/>
    </contour>
  </outline>
</glyph>
<glyph name="cent" format="1">
  <advance width="492"/>
  <unicode hex="00A2"/>
  <outline>
    <contour>
      <point x="273" y="605" type="line"/>
      <point x="309" y="605" type="line"/>
      <point x="309" y="723" type="line"/>
      <point x="273" y="723" type="line"/>
    </contour>
    <contour>
      <point x="273" y="0" type="line"/>
      <point x="309" y="0" type="line"/>
      <point x="309" y="118" type="line"/>
      <point x="273" y="118" type="line"/>
    </contour>
    <component base="c" xOffset="14" yOffset="111"/>
  </outline>
</glyph>
<glyph name="sterling" format="1">
  <advance width="539"/>
  <unicode hex="00A3"/>
  <outline>
    <contour>
      <point x="-25" y="0" type="line"/>
      <point x="281" y="0" type="line" smooth="yes"/>
      <point x="361" y="0"/>
      <point x="424" y="35"/>
      <point x="462" y="107" type="curve"/>
      <point x="431" y="122" type="line"/>
      <point x="400" y="60"/>
      <point x="353" y="39"/>
      <point x="287" y="39" type="curve" smooth="yes"/>
      <point x="91" y="39" type="line"/>
      <point x="108" y="57"/>
      <point x="155" y="112"/>
      <point x="171" y="226" type="curve" smooth="yes"/>
      <point x="176" y="265"/>
      <point x="177" y="301"/>
      <point x="175" y="350" type="curve"/>
      <point x="332" y="350" type="line"/>
      <point x="338" y="387" type="line"/>
      <point x="176" y="387" type="line"/>
      <point x="166" y="438"/>
      <point x="165" y="505"/>
      <point x="171" y="553" type="curve" smooth="yes"/>
      <point x="184" y="641"/>
      <point x="255" y="691"/>
      <point x="333" y="691" type="curve" smooth="yes"/>
      <point x="400" y="691"/>
      <point x="433" y="665"/>
      <point x="449" y="620" type="curve"/>
      <point x="485" y="639" type="line"/>
      <point x="474" y="685"/>
      <point x="413" y="733"/>
      <point x="337" y="733" type="curve" smooth="yes"/>
      <point x="223" y="733"/>
      <point x="114" y="627"/>
      <point x="130" y="461" type="curve" smooth="yes"/>
      <point x="138" y="386" type="line"/>
      <point x="50" y="386" type="line"/>
      <point x="45" y="349" type="line"/>
      <point x="137" y="349" type="line"/>
      <point x="138" y="288"/>
      <point x="135" y="245"/>
      <point x="130" y="209" type="curve" smooth="yes"/>
      <point x="113" y="91"/>
      <point x="65" y="38"/>
      <point x="18" y="38" type="curve" smooth="yes"/>
      <point x="-20" y="38" type="line"/>
    </contour>
  </outline>
</glyph>
<glyph name="currency" format="1">
  <advance width="471"/>
  <unicode hex="00A4"/>
  <outline>
    <contour>
      <point x="79" y="178" type="line"/>
      <point x="131" y="228" type="line" smooth="yes"/>
      <point x="135" y="233"/>
      <point x="139" y="232"/>
      <point x="142" y="229" type="curve" smooth="yes"/>
      <point x="164" y="210"/>
      <point x="193" y="199"/>
      <point x="226" y="199" type="curve" smooth="yes"/>
      <point x="261" y="199"/>
      <point x="295" y="213"/>
      <point x="325" y="235" type="curve"/>
      <point x="369" y="179" type="line"/>
      <point x="399" y="208" type="line"/>
      <point x="358" y="257" type="line" smooth="yes"/>
      <point x="354" y="262"/>
      <point x="356" y="266"/>
      <point x="359" y="271" type="curve" smooth="yes"/>
      <point x="380" y="296"/>
      <point x="394" y="329"/>
      <point x="399" y="364" type="curve" smooth="yes"/>
      <point x="404" y="401"/>
      <point x="397" y="436"/>
      <point x="382" y="464" type="curve"/>
      <point x="442" y="521" type="line"/>
      <point x="421" y="550" type="line"/>
      <point x="365" y="498" type="line" smooth="yes"/>
      <point x="361" y="494"/>
      <point x="358" y="494"/>
      <point x="353" y="497" type="curve" smooth="yes"/>
      <point x="332" y="517"/>
      <point x="303" y="527"/>
      <point x="272" y="527" type="curve" smooth="yes"/>
      <point x="238" y="527"/>
      <point x="202" y="515"/>
      <point x="174" y="493" type="curve"/>
      <point x="133" y="548" type="line"/>
      <point x="103" y="520" type="line"/>
      <point x="140" y="471" type="line" smooth="yes"/>
      <point x="142" y="468"/>
      <point x="143" y="464"/>
      <point x="139" y="459" type="curve" smooth="yes"/>
      <point x="118" y="433"/>
      <point x="103" y="400"/>
      <point x="98" y="364" type="curve" smooth="yes"/>
      <point x="93" y="326"/>
      <point x="98" y="291"/>
      <point x="114" y="261" type="curve"/>
      <point x="58" y="209" type="line"/>
    </contour>
    <contour>
      <point x="234" y="242" type="curve" smooth="yes"/>
      <point x="169" y="242"/>
      <point x="130" y="299"/>
      <point x="139" y="364" type="curve" smooth="yes"/>
      <point x="148" y="428"/>
      <point x="204" y="486"/>
      <point x="268" y="486" type="curve" smooth="yes"/>
      <point x="332" y="486"/>
      <point x="371" y="428"/>
      <point x="362" y="364" type="curve" smooth="yes"/>
      <point x="353" y="299"/>
      <point x="297" y="242"/>
    </contour>
  </outline>
</glyph>
<glyph name="yen" format="1">
  <advance width="518"/>
  <unicode hex="00A5"/>
  <outline>
    <contour>
      <point x="205" y="0" type="line"/>
      <point x="246" y="0" type="line"/>
      <point x="291" y="319" type="line"/>
      <point x="570" y="723" type="line"/>
      <point x="529" y="723" type="line"/>
      <point x="274" y="351" type="line"/>
      <point x="126" y="723" type="line"/>
      <point x="79" y="723" type="line"/>
      <point x="247" y="303" type="line"/>
    </contour>
    <contour>
      <point x="83" y="154" type="line"/>
      <point x="411" y="155" type="line"/>
      <point x="417" y="192" type="line"/>
      <point x="88" y="191" type="line"/>
    </contour>
    <contour>
      <point x="102" y="291" type="line"/>
      <point x="431" y="292" type="line"/>
      <point x="436" y="329" type="line"/>
      <point x="107" y="328" type="line"/>
    </contour>
  </outline>
</glyph>
<glyph name="brokenbar" format="1">
  <advance width="240"/>
  <unicode hex="00A6"/>
  <outline>
    <contour>
      <point x="130" y="432" type="line"/>
      <point x="164" y="432" type="line"/>
      <point x="220" y="826" type="line"/>
      <point x="185" y="826" type="line"/>
    </contour>
    <contour>
      <point x="47" y="-161" type="line"/>
      <point x="81" y="-161" type="line"/>
      <point x="136" y="233" type="line"/>
      <point x="102" y="233" type="line"/>
    </contour>
  </outline>
</glyph>
<glyph name="section" format="1">
  <advance width="439"/>
  <unicode hex="00A7"/>
  <outline>
    <contour>
      <point x="185" y="-66" type="curve" smooth="yes"/>
      <point x="281" y="-66"/>
      <point x="355" y="-11"/>
      <point x="366" y="62" type="curve" smooth="yes"/>
      <point x="373" y="117"/>
      <point x="345" y="156"/>
      <point x="294" y="190" type="curve"/>
      <point x="343" y="213"/>
      <point x="392" y="247"/>
      <point x="401" y="316" type="curve" smooth="yes"/>
      <point x="410" y="378"/>
      <point x="383" y="430"/>
      <point x="299" y="471" type="curve" smooth="yes"/>
      <point x="223" y="507" type="line" smooth="yes"/>
      <point x="153" y="540"/>
      <point x="142" y="575"/>
      <point x="146" y="609" type="curve" smooth="yes"/>
      <point x="154" y="660"/>
      <point x="204" y="694"/>
      <point x="283" y="694" type="curve" smooth="yes"/>
      <point x="338" y="694"/>
      <point x="376" y="662"/>
      <point x="401" y="618" type="curve"/>
      <point x="434" y="639" type="line"/>
      <point x="409" y="689"/>
      <point x="357" y="733"/>
      <point x="284" y="733" type="curve" smooth="yes"/>
      <point x="190" y="733"/>
      <point x="118" y="679"/>
      <point x="107" y="607" type="curve" smooth="yes"/>
      <point x="101" y="561"/>
      <point x="111" y="518"/>
      <point x="188" y="473" type="curve"/>
      <point x="129" y="451"/>
      <point x="79" y="406"/>
      <point x="70" y="344" type="curve" smooth="yes"/>
      <point x="63" y="289"/>
      <point x="85" y="242"/>
      <point x="154" y="211" type="curve" smooth="yes"/>
      <point x="236" y="174" type="line" smooth="yes"/>
      <point x="314" y="138"/>
      <point x="332" y="102"/>
      <point x="326" y="62" type="curve" smooth="yes"/>
      <point x="318" y="5"/>
      <point x="262" y="-27"/>
      <point x="193" y="-27" type="curve" smooth="yes"/>
      <point x="124" y="-27"/>
      <point x="71" y="12"/>
      <point x="48" y="69" type="curve"/>
      <point x="16" y="49" type="line"/>
      <point x="40" y="-22"/>
      <point x="110" y="-66"/>
    </contour>
    <contour>
      <point x="244" y="216" type="curve"/>
      <point x="185" y="246" type="line" smooth="yes"/>
      <point x="117" y="279"/>
      <point x="104" y="305"/>
      <point x="110" y="347" type="curve" smooth="yes"/>
      <point x="117" y="397"/>
      <point x="176" y="446"/>
      <point x="235" y="451" type="curve"/>
      <point x="290" y="426" type="line" smooth="yes"/>
      <point x="358" y="394"/>
      <point x="367" y="360"/>
      <point x="360" y="310" type="curve" smooth="yes"/>
      <point x="353" y="257"/>
      <point x="297" y="212"/>
    </contour>
  </outline>
</glyph>
<glyph name="copyright" format="1">
  <advance width="747"/>
  <unicode hex="00A9"/>
  <outline>
    <contour>
      <point x="337" y="-10" type="curve" smooth="yes"/>
      <point x="524" y="-10"/>
      <point x="701" y="155"/>
      <point x="730" y="362" type="curve" smooth="yes"/>
      <point x="759" y="566"/>
      <point x="629" y="733"/>
      <point x="441" y="733" type="curve" smooth="yes"/>
      <point x="252" y="733"/>
      <point x="75" y="566"/>
      <point x="47" y="362" type="curve" smooth="yes"/>
      <point x="18" y="155"/>
      <point x="147" y="-10"/>
    </contour>
    <contour>
      <point x="362" y="155" type="curve" smooth="yes"/>
      <point x="422" y="155"/>
      <point x="479" y="194"/>
      <point x="522" y="256" type="curve"/>
      <point x="496" y="275" type="line"/>
      <point x="466" y="226"/>
      <point x="419" y="193"/>
      <point x="369" y="193" type="curve" smooth="yes"/>
      <point x="293" y="193"/>
      <point x="247" y="263"/>
      <point x="262" y="366" type="curve" smooth="yes"/>
      <point x="276" y="467"/>
      <point x="341" y="537"/>
      <point x="418" y="537" type="curve" smooth="yes"/>
      <point x="460" y="537"/>
      <point x="493" y="512"/>
      <point x="515" y="461" type="curve"/>
      <point x="551" y="482" type="line"/>
      <point x="524" y="535"/>
      <point x="485" y="575"/>
      <point x="421" y="575" type="curve" smooth="yes"/>
      <point x="321" y="575"/>
      <point x="239" y="488"/>
      <point x="222" y="364" type="curve" smooth="yes"/>
      <point x="204" y="239"/>
      <point x="261" y="155"/>
    </contour>
    <contour>
      <point x="343" y="33" type="curve" smooth="yes"/>
      <point x="180" y="33"/>
      <point x="59" y="162"/>
      <point x="87" y="362" type="curve" smooth="yes"/>
      <point x="115" y="559"/>
      <point x="272" y="691"/>
      <point x="435" y="691" type="curve" smooth="yes"/>
      <point x="594" y="691"/>
      <point x="718" y="559"/>
      <point x="690" y="362" type="curve" smooth="yes"/>
      <point x="662" y="162"/>
      <point x="501" y="33"/>
    </contour>
  </outline>
</glyph>
<glyph name="ordfeminine" format="1">
  <advance width="388"/>
  <unicode hex="00AA"/>
  <outline>
    <contour>
      <point x="177" y="395" type="curve" smooth="yes"/>
      <point x="219" y="395"/>
      <point x="253" y="412"/>
      <point x="291" y="451" type="curve"/>
      <point x="292" y="401" type="line"/>
      <point x="326" y="401" type="line"/>
      <point x="327" y="443" type="line"/>
      <point x="328" y="468"/>
      <point x="329" y="488"/>
      <point x="332" y="508" type="curve" smooth="yes"/>
      <point x="335" y="527"/>
      <point x="340" y="566"/>
      <point x="348" y="618" type="curve" smooth="yes"/>
      <point x="357" y="687"/>
      <point x="323" y="730"/>
      <point x="252" y="730" type="curve" smooth="yes"/>
      <point x="196" y="730"/>
      <point x="148" y="703"/>
      <point x="120" y="657" type="curve"/>
      <point x="147" y="644" type="line"/>
      <point x="178" y="685"/>
      <point x="205" y="697"/>
      <point x="244" y="697" type="curve" smooth="yes"/>
      <point x="297" y="697"/>
      <point x="323" y="673"/>
      <point x="316" y="622" type="curve" smooth="yes"/>
      <point x="313" y="597" type="line"/>
      <point x="246" y="590" type="line" smooth="yes"/>
      <point x="151" y="580"/>
      <point x="98" y="546"/>
      <point x="89" y="484" type="curve" smooth="yes"/>
      <point x="81" y="428"/>
      <point x="114" y="395"/>
    </contour>
    <contour>
      <point x="188" y="426" type="curve" smooth="yes"/>
      <point x="145" y="426"/>
      <point x="119" y="449"/>
      <point x="124" y="485" type="curve" smooth="yes"/>
      <point x="130" y="527"/>
      <point x="170" y="554"/>
      <point x="253" y="561" type="curve" smooth="yes"/>
      <point x="308" y="566" type="line"/>
      <point x="300" y="508" type="line" smooth="yes"/>
      <point x="298" y="490"/>
      <point x="285" y="474"/>
      <point x="265" y="457" type="curve" smooth="yes"/>
      <point x="241" y="436"/>
      <point x="217" y="426"/>
    </contour>
  </outline>
</glyph>
<glyph name="guillemetleft" format="1">
  <advance width="381"/>
  <unicode hex="00AB"/>
  <outline>
    <contour>
      <point x="286" y="76" type="line"/>
      <point x="311" y="76" type="line"/>
      <point x="227" y="251" type="line"/>
      <point x="363" y="434" type="line"/>
      <point x="337" y="434" type="line"/>
      <point x="179" y="251" type="line"/>
    </contour>
    <contour>
      <point x="136" y="76" type="line"/>
      <point x="161" y="76" type="line"/>
      <point x="77" y="251" type="line"/>
      <point x="213" y="434" type="line"/>
      <point x="187" y="434" type="line"/>
      <point x="29" y="251" type="line"/>
    </contour>
  </outline>
</glyph>
<glyph name="logicalnot" format="1">
  <advance width="495"/>
  <unicode hex="00AC"/>
  <outline>
    <contour>
      <point x="79" y="344" type="line"/>
      <point x="439" y="345" type="line"/>
      <point x="445" y="382" type="line"/>
      <point x="85" y="381" type="line"/>
    </contour>
    <contour>
      <point x="387" y="209" type="line"/>
      <point x="420" y="209" type="line"/>
      <point x="444" y="375" type="line"/>
      <point x="409" y="375" type="line"/>
    </contour>
  </outline>
</glyph>
<glyph name="registered" format="1">
  <advance width="491"/>
  <unicode hex="00AE"/>
  <outline>
    <contour>
      <point x="247" y="268" type="curve" smooth="yes"/>
      <point x="365" y="268"/>
      <point x="475" y="371"/>
      <point x="493" y="500" type="curve" smooth="yes"/>
      <point x="511" y="629"/>
      <point x="430" y="733"/>
      <point x="313" y="733" type="curve" smooth="yes"/>
      <point x="193" y="733"/>
      <point x="84" y="629"/>
      <point x="66" y="500" type="curve" smooth="yes"/>
      <point x="47" y="371"/>
      <point x="128" y="268"/>
    </contour>
    <contour>
      <point x="252" y="302" type="curve" smooth="yes"/>
      <point x="144" y="302"/>
      <point x="81" y="379"/>
      <point x="98" y="500" type="curve" smooth="yes"/>
      <point x="115" y="620"/>
      <point x="200" y="699"/>
      <point x="308" y="699" type="curve" smooth="yes"/>
      <point x="414" y="699"/>
      <point x="478" y="620"/>
      <point x="461" y="500" type="curve" smooth="yes"/>
      <point x="444" y="379"/>
      <point x="358" y="302"/>
    </contour>
    <contour>
      <point x="185" y="383" type="line"/>
      <point x="212" y="383" type="line"/>
      <point x="228" y="494" type="line"/>
      <point x="286" y="494" type="line"/>
      <point x="309" y="383" type="line"/>
      <point x="338" y="383" type="line"/>
      <point x="313" y="496" type="line"/>
      <point x="336" y="504"/>
      <point x="363" y="519"/>
      <point x="368" y="558" type="curve" smooth="yes"/>
      <point x="373" y="595"/>
      <point x="352" y="614"/>
      <point x="310" y="614" type="curve" smooth="yes"/>
      <point x="218" y="614" type="line"/>
    </contour>
    <contour>
      <point x="231" y="522" type="line"/>
      <point x="241" y="587" type="line"/>
      <point x="297" y="587" type="line" smooth="yes"/>
      <point x="336" y="587"/>
      <point x="342" y="571"/>
      <point x="340" y="554" type="curve" smooth="yes"/>
      <point x="336" y="528"/>
      <point x="314" y="522"/>
      <point x="290" y="522" type="curve" smooth="yes"/>
    </contour>
  </outline>
</glyph>
<glyph name="degree" format="1">
  <advance width="428"/>
  <unicode hex="00B0"/>
  <outline>
    <contour>
      <point x="254" y="544" type="curve" smooth="yes"/>
      <point x="332" y="544"/>
      <point x="397" y="605"/>
      <point x="409" y="690" type="curve" smooth="yes"/>
      <point x="421" y="776"/>
      <point x="373" y="837"/>
      <point x="296" y="837" type="curve" smooth="yes"/>
      <point x="217" y="837"/>
      <point x="153" y="776"/>
      <point x="141" y="690" type="curve" smooth="yes"/>
      <point x="129" y="605"/>
      <point x="176" y="544"/>
    </contour>
    <contour>
      <point x="258" y="579" type="curve" smooth="yes"/>
      <point x="199" y="579"/>
      <point x="168" y="624"/>
      <point x="176" y="689" type="curve" smooth="yes"/>
      <point x="185" y="754"/>
      <point x="230" y="799"/>
      <point x="288" y="799" type="curve" smooth="yes"/>
      <point x="349" y="799"/>
      <point x="380" y="754"/>
      <point x="370" y="689" type="curve" smooth="yes"/>
      <point x="361" y="624"/>
      <point x="318" y="579"/>
    </contour>
  </outline>
</glyph>
<glyph name="plusminus" format="1">
  <advance width="490"/>
  <unicode hex="00B1"/>
  <outline>
    <contour>
      <point x="226" y="236" type="line"/>
      <point x="259" y="236" type="line"/>
      <point x="314" y="627" type="line"/>
      <point x="280" y="627" type="line"/>
    </contour>
    <contour>
      <point x="40" y="81" type="line"/>
      <point x="400" y="82" type="line"/>
      <point x="405" y="119" type="line"/>
      <point x="45" y="118" type="line"/>
    </contour>
    <contour>
      <point x="87" y="412" type="line"/>
      <point x="447" y="413" type="line"/>
      <point x="452" y="450" type="line"/>
      <point x="92" y="449" type="line"/>
    </contour>
  </outline>
</glyph>
<glyph name="micro" format="1">
  <advance width="545"/>
  <unicode hex="00B5"/>
  <outline>
    <contour>
      <point x="30" y="-165" type="line"/>
      <point x="67" y="-165" type="line"/>
      <point x="95" y="37" type="line"/>
      <point x="123" y="2"/>
      <point x="159" y="-10"/>
      <point x="205" y="-10" type="curve" smooth="yes"/>
      <point x="263" y="-10"/>
      <point x="310" y="15"/>
      <point x="396" y="82" type="curve"/>
      <point x="384" y="0" type="line"/>
      <point x="418" y="0" type="line"/>
      <point x="493" y="530" type="line"/>
      <point x="456" y="530" type="line"/>
      <point x="401" y="134" type="line"/>
      <point x="332" y="69"/>
      <point x="268" y="28"/>
      <point x="208" y="28" type="curve" smooth="yes"/>
      <point x="145" y="28"/>
      <point x="101" y="79"/>
      <point x="109" y="137" type="curve" smooth="yes"/>
      <point x="165" y="530" type="line"/>
      <point x="128" y="530" type="line"/>
    </contour>
  </outline>
</glyph>
<glyph name="paragraph" format="1">
  <advance width="498"/>
  <unicode hex="00B6"/>
  <outline>
    <contour>
      <point x="205" y="-83" type="line"/>
      <point x="236" y="-83" type="line"/>
      <point x="345" y="692" type="line"/>
      <point x="384" y="692" type="line"/>
      <point x="275" y="-83" type="line"/>
      <point x="306" y="-83" type="line"/>
      <point x="415" y="692" type="line"/>
      <point x="469" y="692" type="line"/>
      <point x="473" y="723" type="line"/>
      <point x="328" y="723" type="line" smooth="yes"/>
      <point x="187" y="723"/>
      <point x="104" y="610"/>
      <point x="89" y="501" type="curve" smooth="yes"/>
      <point x="74" y="398"/>
      <point x="128" y="296"/>
      <point x="258" y="296" type="curve"/>
    </contour>
  </outline>
</glyph>
<glyph name="periodcentered" format="1">
  <advance width="193"/>
  <unicode hex="00B7"/>
  <outline>
    <contour>
      <point x="69" y="326" type="line"/>
      <point x="142" y="326" type="line"/>
      <point x="153" y="403" type="line"/>
      <point x="80" y="403" type="line"/>
    </contour>
  </outline>
</glyph>
<glyph name="ordmasculine" format="1">
  <advance width="385"/>
  <unicode hex="00BA"/>
  <outline>
    <contour>
      <point x="211" y="397" type="curve" smooth="yes"/>
      <point x="301" y="397"/>
      <point x="359" y="466"/>
      <point x="373" y="563" type="curve" smooth="yes"/>
      <point x="387" y="664"/>
      <point x="344" y="732"/>
      <point x="259" y="732" type="curve" smooth="yes"/>
      <point x="174" y="732"/>
      <point x="112" y="664"/>
      <point x="98" y="563" type="curve" smooth="yes"/>
      <point x="84" y="466"/>
      <point x="122" y="397"/>
    </contour>
    <contour>
      <point x="216" y="429" type="curve" smooth="yes"/>
      <point x="150" y="429"/>
      <point x="123" y="483"/>
      <point x="135" y="566" type="curve" smooth="yes"/>
      <point x="146" y="644"/>
      <point x="188" y="698"/>
      <point x="254" y="698" type="curve" smooth="yes"/>
      <point x="320" y="698"/>
      <point x="347" y="644"/>
      <point x="336" y="566" type="curve" smooth="yes"/>
      <point x="325" y="483"/>
      <point x="282" y="429"/>
    </contour>
  </outline>
</glyph>
<glyph name="guillemetright" format="1">
  <advance width="382"/>
  <unicode hex="00BB"/>
  <outline>
    <contour>
      <point x="171" y="76" type="line"/>
      <point x="195" y="76" type="line"/>
      <point x="351" y="251" type="line"/>
      <point x="244" y="434" type="line"/>
      <point x="219" y="434" type="line"/>
      <point x="304" y="251" type="line"/>
    </contour>
    <contour>
      <point x="21" y="76" type="line"/>
      <point x="45" y="76" type="line"/>
      <point x="201" y="251" type="line"/>
      <point x="94" y="434" type="line"/>
      <point x="70" y="434" type="line"/>
      <point x="154" y="251" type="line"/>
    </contour>
  </outline>
</glyph>
<glyph name="questiondown" format="1">
  <advance width="501"/>
  <unicode hex="00BF"/>
  <outline>
    <contour>
      <point x="155" y="-171" type="curve" smooth="yes"/>
      <point x="242" y="-171"/>
      <point x="327" y="-122"/>
      <point x="376" y="-46" type="curve"/>
      <point x="340" y="-26" type="line"/>
      <point x="313" y="-82"/>
      <point x="230" y="-130"/>
      <point x="160" y="-130" type="curve" smooth="yes"/>
      <point x="69" y="-130"/>
      <point x="18" y="-77"/>
      <point x="29" y="7" type="curve" smooth="yes"/>
      <point x="49" y="159"/>
      <point x="236" y="165"/>
      <point x="263" y="371" type="curve"/>
      <point x="225" y="371" type="line"/>
      <point x="200" y="179"/>
      <point x="9" y="174"/>
      <point x="-13" y="7" type="curve" smooth="yes"/>
      <point x="-27" y="-101"/>
      <point x="38" y="-171"/>
    </contour>
    <contour>
      <point x="225" y="440" type="line"/>
      <point x="281" y="440" type="line"/>
      <point x="291" y="517" type="line"/>
      <point x="235" y="517" type="line"/>
    </contour>
  </outline>
</glyph>
<glyph name="AE" format="1">
  <advance width="844"/>
  <unicode hex="00C6"/>
  <outline>
    <contour>
      <point x="-36" y="0" type="line"/>
      <point x="2" y="0" type="line"/>
      <point x="157" y="232" type="line"/>
      <point x="398" y="232" type="line"/>
      <point x="365" y="0" type="line"/>
      <point x="738" y="0" type="line"/>
      <point x="743" y="39" type="line"/>
      <point x="411" y="39" type="line"/>
      <point x="454" y="346" type="line"/>
      <point x="710" y="346" type="line"/>
      <point x="715" y="385" type="line"/>
      <point x="460" y="385" type="line"/>
      <point x="502" y="684" type="line"/>
      <point x="821" y="684" type="line"/>
      <point x="826" y="723" type="line"/>
      <point x="445" y="723" type="line"/>
    </contour>
    <contour>
      <point x="180" y="271" type="line"/>
      <point x="461" y="685" type="line"/>
      <point x="403" y="271" type="line"/>
    </contour>
    <contour>
      <point x="633" y="723" type="move" name="top"/>
    </contour>
  </outline>
</glyph>
<glyph name="Eth" format="1">
  <advance width="1293"/>
  <unicode hex="00D0"/>
  <outline>
    <contour>
      <point x="106" y="688" type="line"/>
      <point x="704" y="688" type="line"/>
      <point x="704" y="770" type="line"/>
      <point x="106" y="770" type="line"/>
    </contour>
    <component base="D" xOffset="32"/>
  </outline>
</glyph>
<glyph name="multiply" format="1">
  <advance width="473"/>
  <unicode hex="00D7"/>
  <outline>
    <contour>
      <point x="78" y="177" type="line"/>
      <point x="444" y="524" type="line"/>
      <point x="423" y="550" type="line"/>
      <point x="57" y="204" type="line"/>
    </contour>
    <contour>
      <point x="371" y="177" type="line"/>
      <point x="400" y="204" type="line"/>
      <point x="130" y="548" type="line"/>
      <point x="101" y="522" type="line"/>
    </contour>
  </outline>
</glyph>
<glyph name="Oslash" format="1">
  <advance width="676"/>
  <unicode hex="00D8"/>
  <outline>
    <contour>
      <point x="31" y="-13" type="line"/>
      <point x="118" y="79" type="line"/>
      <point x="155" y="20"/>
      <point x="217" y="-10"/>
      <point x="300" y="-10" type="curve" smooth="yes"/>
      <point x="468" y="-10"/>
      <point x="589" y="119"/>
      <point x="622" y="360" type="curve" smooth="yes"/>
      <point x="636" y="460"/>
      <point x="630" y="541"/>
      <point x="607" y="602" type="curve"/>
      <point x="702" y="704" type="line"/>
      <point x="673" y="735" type="line"/>
      <point x="587" y="643" type="line"/>
      <point x="548" y="702"/>
      <point x="487" y="733"/>
      <point x="405" y="733" type="curve" smooth="yes"/>
      <point x="237" y="733"/>
      <point x="116" y="602"/>
      <point x="82" y="358" type="curve" smooth="yes"/>
      <point x="68" y="259"/>
      <point x="73" y="179"/>
      <point x="97" y="120" type="curve"/>
      <point x="3" y="19" type="line"/>
    </contour>
    <contour>
      <point x="308" y="32" type="curve" smooth="yes"/>
      <point x="233" y="32"/>
      <point x="181" y="59"/>
      <point x="150" y="114" type="curve"/>
      <point x="572" y="566" type="line"/>
      <point x="587" y="513"/>
      <point x="588" y="445"/>
      <point x="576" y="360" type="curve" smooth="yes"/>
      <point x="545" y="138"/>
      <point x="456" y="32"/>
    </contour>
    <contour>
      <point x="132" y="157" type="line"/>
      <point x="117" y="209"/>
      <point x="116" y="276"/>
      <point x="127" y="360" type="curve" smooth="yes"/>
      <point x="159" y="582"/>
      <point x="251" y="691"/>
      <point x="399" y="691" type="curve" smooth="yes"/>
      <point x="473" y="691"/>
      <point x="524" y="664"/>
      <point x="554" y="609" type="curve"/>
    </contour>
    <contour>
      <point x="404" y="723" type="move" name="top"/>
    </contour>
  </outline>
</glyph>
<glyph name="Yacute" format="1">
  <advance width="497"/>
  <unicode hex="00DD"/>
  <outline>
    <component base="Y"/>
    <component base="acutecomb" xOffset="156" yOffset="208"/>
    <contour>
      <point x="271" y="1" type="move" name="bottom"/>
    </contour>
  </outline>
</glyph>
<glyph name="Thorn" format="1">
  <advance width="586"/>
  <unicode hex="00DE"/>
  <outline>
    <contour>
      <point x="69" y="0" type="line"/>
      <point x="110" y="0" type="line"/>
      <point x="135" y="177" type="line"/>
      <point x="306" y="177" type="line" smooth="yes"/>
      <point x="441" y="177"/>
      <point x="548" y="233"/>
      <point x="568" y="380" type="curve" smooth="yes"/>
      <point x="586" y="509"/>
      <point x="496" y="565"/>
      <point x="355" y="565" type="curve" smooth="yes"/>
      <point x="189" y="565" type="line"/>
      <point x="212" y="723" type="line"/>
      <point x="170" y="723" type="line"/>
    </contour>
    <contour>
      <point x="140" y="216" type="line"/>
      <point x="184" y="526" type="line"/>
      <point x="349" y="526" type="line" smooth="yes"/>
      <point x="470" y="526"/>
      <point x="540" y="488"/>
      <point x="525" y="380" type="curve" smooth="yes"/>
      <point x="508" y="261"/>
      <point x="426" y="216"/>
      <point x="311" y="216" type="curve" smooth="yes"/>
    </contour>
  </outline>
</glyph>
<glyph name="germandbls" format="1">
  <advance width="540"/>
  <unicode hex="00DF"/>
  <outline>
    <contour>
      <point x="268" y="-10" type="curve" smooth="yes"/>
      <point x="358" y="-10"/>
      <point x="444" y="47"/>
      <point x="459" y="154" type="curve" smooth="yes"/>
      <point x="477" y="279"/>
      <point x="376" y="309"/>
      <point x="322" y="329" type="curve" smooth="yes"/>
      <point x="271" y="347"/>
      <point x="255" y="355"/>
      <point x="259" y="388" type="curve" smooth="yes"/>
      <point x="264" y="422"/>
      <point x="285" y="433"/>
      <point x="344" y="465" type="curve" smooth="yes"/>
      <point x="396" y="493"/>
      <point x="452" y="515"/>
      <point x="463" y="594" type="curve" smooth="yes"/>
      <point x="471" y="653"/>
      <point x="451" y="723"/>
      <point x="345" y="723" type="curve" smooth="yes"/>
      <point x="236" y="723"/>
      <point x="150" y="646"/>
      <point x="132" y="517" type="curve"/>
      <point x="65" y="517" type="line"/>
      <point x="60" y="483" type="line"/>
      <point x="128" y="483" type="line"/>
      <point x="60" y="0" type="line"/>
      <point x="96" y="0" type="line"/>
      <point x="170" y="522" type="line" smooth="yes"/>
      <point x="185" y="634"/>
      <point x="252" y="686"/>
      <point x="332" y="686" type="curve" smooth="yes"/>
      <point x="400" y="686"/>
      <point x="433" y="652"/>
      <point x="426" y="597" type="curve" smooth="yes"/>
      <point x="417" y="537"/>
      <point x="371" y="519"/>
      <point x="329" y="497" type="curve" smooth="yes"/>
      <point x="260" y="462"/>
      <point x="228" y="436"/>
      <point x="221" y="387" type="curve" smooth="yes"/>
      <point x="212" y="318"/>
      <point x="264" y="304"/>
      <point x="305" y="290" type="curve" smooth="yes"/>
      <point x="369" y="267"/>
      <point x="434" y="241"/>
      <point x="421" y="151" type="curve" smooth="yes"/>
      <point x="410" y="73"/>
      <point x="351" y="27"/>
      <point x="267" y="27" type="curve" smooth="yes"/>
      <point x="222" y="27"/>
      <point x="198" y="40"/>
      <point x="170" y="59" type="curve"/>
      <point x="145" y="26" type="line"/>
      <point x="174" y="3"/>
      <point x="227" y="-10"/>
    </contour>
  </outline>
</glyph>
<glyph name="ae" format="1">
  <advance width="859"/>
  <unicode hex="00E6"/>
  <outline>
    <contour>
      <point x="168" y="-10" type="curve" smooth="yes"/>
      <point x="286" y="-10"/>
      <point x="348" y="60"/>
      <point x="386" y="105" type="curve" smooth="yes"/>
      <point x="389" y="108"/>
      <point x="390" y="108"/>
      <point x="391" y="105" type="curve" smooth="yes"/>
      <point x="411" y="63"/>
      <point x="448" y="-10"/>
      <point x="558" y="-10" type="curve" smooth="yes"/>
      <point x="647" y="-10"/>
      <point x="728" y="39"/>
      <point x="768" y="104" type="curve"/>
      <point x="743" y="126" type="line"/>
      <point x="710" y="83"/>
      <point x="662" y="27"/>
      <point x="565" y="27" type="curve" smooth="yes"/>
      <point x="465" y="27"/>
      <point x="402" y="143"/>
      <point x="416" y="247" type="curve"/>
      <point x="803" y="248" type="line"/>
      <point x="828" y="426"/>
      <point x="759" y="527"/>
      <point x="636" y="527" type="curve" smooth="yes"/>
      <point x="552" y="527"/>
      <point x="483" y="488"/>
      <point x="436" y="410" type="curve"/>
      <point x="428" y="488"/>
      <point x="383" y="527"/>
      <point x="295" y="527" type="curve" smooth="yes"/>
      <point x="217" y="527"/>
      <point x="141" y="485"/>
      <point x="91" y="413" type="curve"/>
      <point x="116" y="392" type="line"/>
      <point x="168" y="455"/>
      <point x="223" y="489"/>
      <point x="282" y="489" type="curve" smooth="yes"/>
      <point x="372" y="489"/>
      <point x="413" y="437"/>
      <point x="401" y="354" type="curve" smooth="yes"/>
      <point x="395" y="310" type="line"/>
      <point x="277" y="300" type="line" smooth="yes"/>
      <point x="130" y="287"/>
      <point x="52" y="228"/>
      <point x="39" y="133" type="curve" smooth="yes"/>
      <point x="26" y="44"/>
      <point x="75" y="-10"/>
    </contour>
    <contour>
      <point x="182" y="28" type="curve" smooth="yes"/>
      <point x="106" y="24"/>
      <point x="69" y="69"/>
      <point x="78" y="135" type="curve" smooth="yes"/>
      <point x="88" y="210"/>
      <point x="154" y="254"/>
      <point x="290" y="265" type="curve" smooth="yes"/>
      <point x="390" y="273" type="line"/>
      <point x="376" y="173" type="line"/>
      <point x="365" y="97"/>
      <point x="279" y="33"/>
    </contour>
    <contour>
      <point x="769" y="283" type="curve"/>
      <point x="424" y="284" type="line"/>
      <point x="442" y="408"/>
      <point x="530" y="489"/>
      <point x="628" y="489" type="curve" smooth="yes"/>
      <point x="727" y="489"/>
      <point x="785" y="397"/>
    </contour>
    <contour>
      <point x="456" y="517" type="move" name="top"/>
    </contour>
  </outline>
</glyph>
<glyph name="eth" format="1">
  <advance width="545"/>
  <unicode hex="00F0"/>
  <outline>
    <contour>
      <point x="233" y="-10" type="curve" smooth="yes"/>
      <point x="371" y="-10"/>
      <point x="468" y="98"/>
      <point x="489" y="249" type="curve" smooth="yes"/>
      <point x="512" y="411"/>
      <point x="482" y="549"/>
      <point x="356" y="652" type="curve"/>
      <point x="447" y="703" type="line"/>
      <point x="437" y="735" type="line"/>
      <point x="329" y="675" type="line"/>
      <point x="298" y="696"/>
      <point x="265" y="716"/>
      <point x="225" y="734" type="curve"/>
      <point x="189" y="710" type="line"/>
      <point x="228" y="692"/>
      <point x="262" y="674"/>
      <point x="292" y="653" type="curve"/>
      <point x="135" y="566" type="line"/>
      <point x="148" y="535" type="line"/>
      <point x="319" y="632" type="line"/>
      <point x="389" y="575"/>
      <point x="426" y="510"/>
      <point x="444" y="440" type="curve"/>
      <point x="412" y="482"/>
      <point x="363" y="507"/>
      <point x="299" y="507" type="curve" smooth="yes"/>
      <point x="177" y="507"/>
      <point x="74" y="398"/>
      <point x="53" y="246" type="curve" smooth="yes"/>
      <point x="32" y="96"/>
      <point x="103" y="-10"/>
    </contour>
    <contour>
      <point x="242" y="27" type="curve" smooth="yes"/>
      <point x="137" y="27"/>
      <point x="73" y="125"/>
      <point x="91" y="248" type="curve" smooth="yes"/>
      <point x="108" y="371"/>
      <point x="199" y="470"/>
      <point x="303" y="470" type="curve" smooth="yes"/>
      <point x="405" y="470"/>
      <point x="469" y="371"/>
      <point x="451" y="248" type="curve" smooth="yes"/>
      <point x="434" y="124"/>
      <point x="345" y="27"/>
    </contour>
  </outline>
</glyph>
<glyph name="divide" format="1">
  <advance width="490"/>
  <unicode hex="00F7"/>
  <outline>
    <contour>
      <point x="77" y="344" type="line"/>
      <point x="437" y="345" type="line"/>
      <point x="442" y="382" type="line"/>
      <point x="82" y="381" type="line"/>
    </contour>
    <contour>
      <point x="196" y="170" type="line"/>
      <point x="270" y="170" type="line"/>
      <point x="280" y="247" type="line"/>
      <point x="207" y="247" type="line"/>
    </contour>
    <contour>
      <point x="240" y="480" type="line"/>
      <point x="313" y="480" type="line"/>
      <point x="324" y="557" type="line"/>
      <point x="250" y="557" type="line"/>
    </contour>
  </outline>
</glyph>
<glyph name="oslash" format="1">
  <advance width="493"/>
  <unicode hex="00F8"/>
  <outline>
    <contour>
      <point x="8" y="-4" type="line"/>
      <point x="511" y="491" type="line"/>
      <point x="484" y="519" type="line"/>
      <point x="-19" y="24" type="line"/>
    </contour>
    <component base="o" xOffset="-39"/>
    <contour>
      <point x="247" y="517" type="move" name="top"/>
    </contour>
  </outline>
</glyph>
<glyph name="thorn" format="1">
  <advance width="1082"/>
  <unicode hex="00FE"/>
  <outline>
    <contour>
      <point x="63" y="-322" type="line"/>
      <point x="135" y="-322" type="line"/>
      <point x="189" y="64" type="line" smooth="yes"/>
      <point x="193" y="90"/>
      <point x="199" y="96"/>
      <point x="215" y="78" type="curve" smooth="yes"/>
      <point x="261" y="32"/>
      <point x="343" y="-20"/>
      <point x="467" y="-20" type="curve" smooth="yes"/>
      <point x="729" y="-20"/>
      <point x="929" y="204"/>
      <point x="975" y="536" type="curve" smooth="yes"/>
      <point x="1023" y="882"/>
      <point x="867" y="1054"/>
      <point x="637" y="1054" type="curve" smooth="yes"/>
      <point x="437" y="1054"/>
      <point x="335" y="918"/>
      <point x="301" y="880" type="curve"/>
      <point x="379" y="1446" type="line"/>
      <point x="311" y="1446" type="line"/>
    </contour>
    <contour>
      <point x="475" y="54" type="curve" smooth="yes"/>
      <point x="365" y="54"/>
      <point x="283" y="112"/>
      <point x="209" y="202" type="curve"/>
      <point x="279" y="710" type="line" smooth="yes"/>
      <point x="297" y="826"/>
      <point x="439" y="978"/>
      <point x="617" y="978" type="curve" smooth="yes"/>
      <point x="797" y="978"/>
      <point x="941" y="838"/>
      <point x="899" y="528" type="curve" smooth="yes"/>
      <point x="857" y="232"/>
      <point x="681" y="54"/>
    </contour>
  </outline>
</glyph>
<glyph name="dcroat" format="1">
  <advance width="564"/>
  <unicode hex="0111"/>
  <outline>
    <contour>
      <point x="284" y="611" type="line"/>
      <point x="565" y="611" type="line"/>
      <point x="565" y="645" type="line"/>
      <point x="284" y="645" type="line"/>
    </contour>
    <component base="d"/>
  </outline>
</glyph>
<glyph name="gcommaaccent" format="1">
  <advance width="564"/>
  <unicode hex="0123"/>
  <outline>
    <contour>
      <point x="288" y="616" type="line"/>
      <point x="344" y="616" type="line"/>
      <point x="356" y="697" type="line"/>
      <point x="333" y="697" type="line"/>
      <point x="375" y="766" type="line"/>
      <point x="344" y="766" type="line"/>
      <point x="300" y="701" type="line"/>
    </contour>
    <component base="g"/>
    <contour>
      <point x="279" y="536" type="move" name="_top"/>
    </contour>
  </outline>
</glyph>
<glyph name="Hbar" format="1">
  <advance width="702"/>
  <unicode hex="0126"/>
  <outline>
    <contour>
      <point x="81" y="564" type="line"/>
      <point x="706" y="564" type="line"/>
      <point x="712" y="603" type="line"/>
      <point x="87" y="603" type="line"/>
    </contour>
    <component base="H" xOffset="48"/>
  </outline>
</glyph>
<glyph name="hbar" format="1">
  <advance width="596"/>
  <unicode hex="0127"/>
  <outline>
    <contour>
      <point x="72" y="611" type="line"/>
      <point x="354" y="611" type="line"/>
      <point x="354" y="645" type="line"/>
      <point x="72" y="645" type="line"/>
    </contour>
    <component base="h" xOffset="50"/>
  </outline>
</glyph>
<glyph name="idotless" format="1">
  <advance width="235"/>
  <unicode hex="0131"/>
  <outline>
    <contour>
      <point x="63" y="0" type="line"/>
      <point x="99" y="0" type="line"/>
      <point x="172" y="517" type="line"/>
      <point x="136" y="517" type="line"/>
    </contour>
    <contour>
      <point x="94" y="13" type="move" name="ogonek"/>
    </contour>
    <contour>
      <point x="153" y="517" type="move" name="top"/>
    </contour>
  </outline>
</glyph>
<glyph name="kgreenlandic" format="1">
  <advance width="515"/>
  <unicode hex="0138"/>
  <outline>
    <contour>
      <point x="59" y="0" type="line"/>
      <point x="95" y="0" type="line"/>
      <point x="117" y="158" type="line"/>
      <point x="262" y="296" type="line"/>
      <point x="389" y="0" type="line"/>
      <point x="435" y="0" type="line"/>
      <point x="294" y="329" type="line"/>
      <point x="490" y="517" type="line"/>
      <point x="440" y="517" type="line"/>
      <point x="125" y="214" type="line"/>
      <point x="168" y="517" type="line"/>
      <point x="132" y="517" type="line"/>
    </contour>
  </outline>
</glyph>
<glyph name="Lslash" format="1">
  <advance width="528"/>
  <unicode hex="0141"/>
  <outline>
    <contour>
      <point x="44" y="317" type="line"/>
      <point x="331" y="392" type="line"/>
      <point x="331" y="428" type="line"/>
      <point x="44" y="355" type="line"/>
    </contour>
    <component base="L" xOffset="9"/>
  </outline>
</glyph>
<glyph name="lslash" format="1">
  <advance width="197"/>
  <unicode hex="0142"/>
  <outline>
    <contour>
      <point x="-6" y="170" type="line"/>
      <point x="225" y="388" type="line"/>
      <point x="225" y="431" type="line"/>
      <point x="-6" y="215" type="line"/>
    </contour>
    <component base="l" xOffset="-2"/>
  </outline>
</glyph>
<glyph name="Eng" format="1">
  <advance width="682"/>
  <unicode hex="014A"/>
  <outline>
    <contour>
      <point x="641" y="723" type="line"/>
      <point x="602" y="723" type="line"/>
      <point x="517" y="78" type="line"/>
      <point x="197" y="723" type="line"/>
      <point x="163" y="723" type="line"/>
      <point x="68" y="0" type="line"/>
      <point x="109" y="0" type="line"/>
      <point x="192" y="638" type="line"/>
      <point x="506" y="12" type="line"/>
      <point x="500" y="-39" type="line" smooth="yes"/>
      <point x="491" y="-108"/>
      <point x="458" y="-132"/>
      <point x="409" y="-132" type="curve" smooth="yes"/>
      <point x="381" y="-132"/>
      <point x="359" y="-124"/>
      <point x="342" y="-118" type="curve"/>
      <point x="334" y="-151" type="line"/>
      <point x="340" y="-157"/>
      <point x="369" y="-171"/>
      <point x="411" y="-171" type="curve" smooth="yes"/>
      <point x="495" y="-171"/>
      <point x="531" y="-122"/>
      <point x="541" y="-46" type="curve" smooth="yes"/>
    </contour>
  </outline>
</glyph>
<glyph name="eng" format="1">
  <advance width="546"/>
  <unicode hex="014B"/>
  <outline>
    <contour>
      <point x="294" y="-166" type="curve" smooth="yes"/>
      <point x="365" y="-166"/>
      <point x="402" y="-120"/>
      <point x="413" y="-40" type="curve" smooth="yes"/>
      <point x="473" y="383" type="line" smooth="yes"/>
      <point x="485" y="468"/>
      <point x="440" y="527"/>
      <point x="348" y="527" type="curve" smooth="yes"/>
      <point x="289" y="527"/>
      <point x="245" y="509"/>
      <point x="154" y="439" type="curve"/>
      <point x="165" y="517" type="line"/>
      <point x="132" y="517" type="line"/>
      <point x="59" y="0" type="line"/>
      <point x="95" y="0" type="line"/>
      <point x="151" y="398" type="line"/>
      <point x="217" y="454"/>
      <point x="281" y="490"/>
      <point x="338" y="490" type="curve" smooth="yes"/>
      <point x="423" y="490"/>
      <point x="445" y="438"/>
      <point x="434" y="362" type="curve" smooth="yes"/>
      <point x="377" y="-45" type="line" smooth="yes"/>
      <point x="368" y="-107"/>
      <point x="345" y="-131"/>
      <point x="297" y="-132" type="curve" smooth="yes"/>
      <point x="247" y="-133" type="line"/>
      <point x="243" y="-157" type="line" smooth="yes"/>
      <point x="242" y="-165"/>
      <point x="248" y="-166"/>
    </contour>
  </outline>
</glyph>
<glyph name="OE" format="1">
  <advance width="2062"/>
  <unicode hex="0152"/>
  <outline>
    <contour>
      <point x="606" y="-20" type="curve" smooth="yes"/>
      <point x="816" y="-20"/>
      <point x="988" y="80"/>
      <point x="1104" y="274" type="curve"/>
      <point x="1066" y="0" type="line"/>
      <point x="1848" y="0" type="line"/>
      <point x="1860" y="78" type="line"/>
      <point x="1158" y="78" type="line"/>
      <point x="1246" y="692" type="line"/>
      <point x="1774" y="692" type="line"/>
      <point x="1784" y="770" type="line"/>
      <point x="1256" y="770" type="line"/>
      <point x="1340" y="1368" type="line"/>
      <point x="2014" y="1368" type="line"/>
      <point x="2024" y="1446" type="line"/>
      <point x="1268" y="1446" type="line"/>
      <point x="1230" y="1170" type="line"/>
      <point x="1168" y="1366"/>
      <point x="1026" y="1466"/>
      <point x="816" y="1466" type="curve" smooth="yes"/>
      <point x="480" y="1466"/>
      <point x="238" y="1204"/>
      <point x="168" y="716" type="curve" smooth="yes"/>
      <point x="100" y="236"/>
      <point x="268" y="-20"/>
    </contour>
    <contour>
      <point x="622" y="62" type="curve" smooth="yes"/>
      <point x="324" y="62"/>
      <point x="194" y="278"/>
      <point x="256" y="720" type="curve" smooth="yes"/>
      <point x="318" y="1164"/>
      <point x="508" y="1384"/>
      <point x="806" y="1384" type="curve" smooth="yes"/>
      <point x="1100" y="1384"/>
      <point x="1222" y="1166"/>
      <point x="1158" y="720" type="curve" smooth="yes"/>
      <point x="1096" y="276"/>
      <point x="918" y="62"/>
    </contour>
  </outline>
</glyph>
<glyph name="oe" format="1">
  <advance width="930"/>
  <unicode hex="0153"/>
  <outline>
    <contour>
      <point x="236" y="-10" type="curve" smooth="yes"/>
      <point x="322" y="-10"/>
      <point x="395" y="36"/>
      <point x="442" y="114" type="curve" smooth="yes"/>
      <point x="452" y="130"/>
      <point x="456" y="129"/>
      <point x="459" y="117" type="curve" smooth="yes"/>
      <point x="484" y="38"/>
      <point x="546" y="-10"/>
      <point x="632" y="-10" type="curve" smooth="yes"/>
      <point x="718" y="-10"/>
      <point x="787" y="28"/>
      <point x="840" y="104" type="curve"/>
      <point x="813" y="126" type="line"/>
      <point x="770" y="62"/>
      <point x="710" y="28"/>
      <point x="638" y="28" type="curve" smooth="yes"/>
      <point x="539" y="28"/>
      <point x="472" y="128"/>
      <point x="489" y="248" type="curve"/>
      <point x="874" y="248" type="line"/>
      <point x="898" y="422"/>
      <point x="837" y="527"/>
      <point x="705" y="527" type="curve" smooth="yes"/>
      <point x="619" y="527"/>
      <point x="541" y="475"/>
      <point x="497" y="392" type="curve" smooth="yes"/>
      <point x="492" y="383"/>
      <point x="488" y="383"/>
      <point x="485" y="392" type="curve" smooth="yes"/>
      <point x="462" y="476"/>
      <point x="401" y="527"/>
      <point x="312" y="527" type="curve" smooth="yes"/>
      <point x="181" y="527"/>
      <point x="78" y="417"/>
      <point x="55" y="255" type="curve" smooth="yes"/>
      <point x="33" y="96"/>
      <point x="103" y="-10"/>
    </contour>
    <contour>
      <point x="243" y="28" type="curve" smooth="yes"/>
      <point x="134" y="28"/>
      <point x="74" y="120"/>
      <point x="93" y="257" type="curve" smooth="yes"/>
      <point x="113" y="395"/>
      <point x="198" y="488"/>
      <point x="307" y="488" type="curve" smooth="yes"/>
      <point x="414" y="488"/>
      <point x="473" y="395"/>
      <point x="454" y="257" type="curve" smooth="yes"/>
      <point x="434" y="119"/>
      <point x="352" y="28"/>
    </contour>
    <contour>
      <point x="842" y="283" type="curve"/>
      <point x="496" y="284" type="line"/>
      <point x="512" y="402"/>
      <point x="598" y="488"/>
      <point x="702" y="488" type="curve" smooth="yes"/>
      <point x="802" y="488"/>
      <point x="858" y="398"/>
    </contour>
  </outline>
</glyph>
<glyph name="Tbar" format="1">
  <advance width="496"/>
  <unicode hex="0166"/>
  <outline>
    <contour>
      <point x="488" y="392" type="line"/>
      <point x="158" y="392" type="line"/>
      <point x="153" y="351" type="line"/>
      <point x="483" y="351" type="line"/>
    </contour>
    <component base="T"/>
  </outline>
</glyph>
<glyph name="tbar" format="1">
  <advance width="323"/>
  <unicode hex="0167"/>
  <outline>
    <contour>
      <point x="45" y="273" type="line"/>
      <point x="268" y="273" type="line"/>
      <point x="268" y="307" type="line"/>
      <point x="45" y="307" type="line"/>
    </contour>
    <component base="t" xOffset="-4"/>
  </outline>
</glyph>
<glyph name="Schwa" format="1">
  <advance width="679"/>
  <unicode hex="018F"/>
  <outline>
    <contour>
      <point x="303" y="-10" type="curve" smooth="yes"/>
      <point x="508" y="-10"/>
      <point x="597" y="176"/>
      <point x="623" y="357" type="curve" smooth="yes"/>
      <point x="646" y="518"/>
      <point x="632" y="733"/>
      <point x="407" y="733" type="curve" smooth="yes"/>
      <point x="203" y="733"/>
      <point x="137" y="546"/>
      <point x="118" y="509" type="curve" smooth="yes"/>
      <point x="116" y="504"/>
      <point x="114" y="501"/>
      <point x="118" y="500" type="curve" smooth="yes"/>
      <point x="150" y="488" type="line" smooth="yes"/>
      <point x="154" y="487"/>
      <point x="155" y="486"/>
      <point x="156" y="488" type="curve" smooth="yes"/>
      <point x="174" y="518"/>
      <point x="214" y="691"/>
      <point x="401" y="691" type="curve" smooth="yes"/>
      <point x="596" y="691"/>
      <point x="596" y="491"/>
      <point x="580" y="376" type="curve" smooth="yes"/>
      <point x="579" y="371"/>
      <point x="578" y="371"/>
      <point x="573" y="371" type="curve" smooth="yes"/>
      <point x="93" y="371" type="line" smooth="yes"/>
      <point x="86" y="371"/>
      <point x="85" y="366"/>
      <point x="84" y="360" type="curve" smooth="yes"/>
      <point x="58" y="170"/>
      <point x="92" y="-10"/>
    </contour>
    <contour>
      <point x="309" y="32" type="curve" smooth="yes"/>
      <point x="132" y="32"/>
      <point x="107" y="187"/>
      <point x="126" y="324" type="curve" smooth="yes"/>
      <point x="127" y="328"/>
      <point x="129" y="330"/>
      <point x="134" y="330" type="curve" smooth="yes"/>
      <point x="573" y="330" type="line"/>
      <point x="550" y="186"/>
      <point x="484" y="32"/>
    </contour>
  </outline>
</glyph>
<glyph name="florin" format="1">
  <advance width="356"/>
  <unicode hex="0192"/>
  <outline>
    <contour>
      <point x="-170" y="-166" type="line"/>
      <point x="-119" y="-166" type="line" smooth="yes"/>
      <point x="-47" y="-166"/>
      <point x="-3" y="-120"/>
      <point x="21" y="-40" type="curve" smooth="yes"/>
      <point x="178" y="483" type="line"/>
      <point x="310" y="483" type="line"/>
      <point x="320" y="517" type="line"/>
      <point x="188" y="517" type="line"/>
      <point x="216" y="607" type="line" smooth="yes"/>
      <point x="231" y="657"/>
      <point x="264" y="689"/>
      <point x="303" y="689" type="curve" smooth="yes"/>
      <point x="376" y="689" type="line"/>
      <point x="386" y="723" type="line"/>
      <point x="317" y="723" type="line" smooth="yes"/>
      <point x="250" y="723"/>
      <point x="203" y="683"/>
      <point x="178" y="603" type="curve" smooth="yes"/>
      <point x="153" y="517" type="line"/>
      <point x="76" y="517" type="line"/>
      <point x="66" y="483" type="line"/>
      <point x="142" y="483" type="line"/>
      <point x="-17" y="-45" type="line" smooth="yes"/>
      <point x="-35" y="-107"/>
      <point x="-61" y="-131"/>
      <point x="-109" y="-132" type="curve" smooth="yes"/>
      <point x="-161" y="-133" type="line"/>
    </contour>
  </outline>
</glyph>
<glyph name="oinvertedbreve" format="1">
  <advance width="520"/>
  <unicode hex="020F"/>
  <outline>
    <component base="o"/>
    <component base="breveinvertedcomb" xOffset="162"/>
    <contour>
      <point x="282" y="517" type="move" name="top"/>
    </contour>
  </outline>
</glyph>
<glyph name="jdotless" format="1">
  <advance width="400"/>
  <unicode hex="0237"/>
  <outline>
    <contour>
      <point x="-91" y="-332" type="curve" smooth="yes"/>
      <point x="71" y="-332"/>
      <point x="121" y="-260"/>
      <point x="143" y="-100" type="curve" smooth="yes"/>
      <point x="303" y="1034" type="line"/>
      <point x="231" y="1034" type="line"/>
      <point x="73" y="-90" type="line" smooth="yes"/>
      <point x="55" y="-214"/>
      <point x="11" y="-258"/>
      <point x="-83" y="-260" type="curve" smooth="yes"/>
      <point x="-199" y="-262" type="line"/>
      <point x="-207" y="-314" type="line" smooth="yes"/>
      <point x="-209" y="-330"/>
      <point x="-199" y="-332"/>
    </contour>
    <contour>
      <point x="267" y="1034" type="move" name="top"/>
    </contour>
  </outline>
</glyph>
<glyph name="commaturnedmod" format="1">
  <advance width="167"/>
  <unicode hex="02BB"/>
  <outline>
    <contour>
      <point x="40" y="534" type="line"/>
      <point x="116" y="534" type="line"/>
      <point x="127" y="612" type="line"/>
      <point x="84" y="612" type="line"/>
      <point x="85" y="616" type="line"/>
      <point x="89" y="646"/>
      <point x="111" y="681"/>
      <point x="132" y="681" type="curve"/>
      <point x="137" y="681" type="line"/>
      <point x="141" y="708" type="line"/>
      <point x="111" y="716"/>
      <point x="59" y="669"/>
      <point x="50" y="603" type="curve"/>
    </contour>
  </outline>
</glyph>
<glyph name="gravecomb" format="1">
  <advance width="487"/>
  <unicode hex="0300"/>
  <outline>
    <contour>
      <point x="552" y="1216" type="line"/>
      <point x="580" y="1278" type="line"/>
      <point x="172" y="1462" type="line"/>
      <point x="134" y="1372" type="line"/>
    </contour>
    <contour>
      <point x="348" y="1034" type="move" name="_top"/>
    </contour>
  </outline>
</glyph>
<glyph name="acutecomb" format="1">
  <advance width="485"/>
  <unicode hex="0301"/>
  <outline>
    <contour>
      <point x="131" y="1216" type="line"/>
      <point x="591" y="1372" type="line"/>
      <point x="579" y="1462" type="line"/>
      <point x="121" y="1278" type="line"/>
    </contour>
    <contour>
      <point x="317" y="1034" type="move" name="_top"/>
    </contour>
  </outline>
</glyph>
<glyph name="circumflexcomb" format="1">
  <advance width="249"/>
  <unicode hex="0302"/>
  <outline>
    <contour>
      <point x="53" y="628" type="line"/>
      <point x="105" y="628" type="line"/>
      <point x="185" y="688" type="line"/>
      <point x="244" y="628" type="line"/>
      <point x="300" y="628" type="line"/>
      <point x="205" y="723" type="line"/>
      <point x="176" y="723" type="line"/>
    </contour>
    <contour>
      <point x="161" y="517" type="move" name="_top"/>
    </contour>
  </outline>
</glyph>
<glyph name="tildecomb" format="1">
  <advance width="253"/>
  <unicode hex="0303"/>
  <outline>
    <contour>
      <point x="75" y="656" type="line"/>
      <point x="90" y="665"/>
      <point x="106" y="680"/>
      <point x="136" y="680" type="curve" smooth="yes"/>
      <point x="173" y="680"/>
      <point x="188" y="656"/>
      <point x="234" y="656" type="curve" smooth="yes"/>
      <point x="270" y="656"/>
      <point x="290" y="670"/>
      <point x="304" y="679" type="curve"/>
      <point x="295" y="709" type="line"/>
      <point x="276" y="696"/>
      <point x="263" y="688"/>
      <point x="240" y="688" type="curve" smooth="yes"/>
      <point x="200" y="688"/>
      <point x="176" y="713"/>
      <point x="137" y="713" type="curve" smooth="yes"/>
      <point x="108" y="713"/>
      <point x="89" y="700"/>
      <point x="68" y="684" type="curve"/>
    </contour>
    <contour>
      <point x="162" y="517" type="move" name="_top"/>
    </contour>
  </outline>
</glyph>
<glyph name="macroncomb" format="1">
  <advance width="245"/>
  <unicode hex="0304"/>
  <outline>
    <contour>
      <point x="67" y="667" type="line"/>
      <point x="293" y="667" type="line"/>
      <point x="298" y="704" type="line"/>
      <point x="72" y="704" type="line"/>
    </contour>
    <contour>
      <point x="159" y="517" type="move" name="_top"/>
    </contour>
  </outline>
</glyph>
<glyph name="brevecomb" format="1">
  <advance width="251"/>
  <unicode hex="0306"/>
  <outline>
    <contour>
      <point x="176" y="634" type="curve" smooth="yes"/>
      <point x="249" y="634"/>
      <point x="294" y="689"/>
      <point x="308" y="723" type="curve"/>
      <point x="263" y="723" type="line"/>
      <point x="249" y="704"/>
      <point x="224" y="674"/>
      <point x="182" y="674" type="curve" smooth="yes"/>
      <point x="134" y="674"/>
      <point x="123" y="709"/>
      <point x="117" y="723" type="curve"/>
      <point x="73" y="723" type="line"/>
      <point x="76" y="683"/>
      <point x="105" y="634"/>
    </contour>
    <contour>
      <point x="157" y="519" type="move" name="_top"/>
    </contour>
  </outline>
</glyph>
<glyph name="dotaccentcomb" format="1">
  <advance width="62"/>
  <unicode hex="0307"/>
  <outline>
    <contour>
      <point x="61" y="628" type="line"/>
      <point x="105" y="628" type="line"/>
      <point x="113" y="688" type="line"/>
      <point x="69" y="688" type="line"/>
    </contour>
    <contour>
      <point x="67" y="517" type="move" name="_top"/>
    </contour>
  </outline>
</glyph>
<glyph name="dieresiscomb" format="1">
  <advance width="160"/>
  <unicode hex="0308"/>
  <outline>
    <contour>
      <point x="171" y="647" type="line"/>
      <point x="215" y="647" type="line"/>
      <point x="223" y="707" type="line"/>
      <point x="179" y="707" type="line"/>
    </contour>
    <contour>
      <point x="55" y="647" type="line"/>
      <point x="99" y="647" type="line"/>
      <point x="107" y="707" type="line"/>
      <point x="63" y="707" type="line"/>
    </contour>
    <contour>
      <point x="117" y="517" type="move" name="_top"/>
    </contour>
  </outline>
</glyph>
<glyph name="hookabovecomb" format="1">
  <advance width="589"/>
  <unicode hex="0309"/>
  <outline>
    <contour>
      <point x="372" y="598" type="line"/>
      <point x="424" y="630"/>
      <point x="451" y="676"/>
      <point x="430" y="720" type="curve" smooth="yes"/>
      <point x="412" y="757"/>
      <point x="365" y="763"/>
      <point x="312" y="730" type="curve"/>
      <point x="326" y="699" type="line"/>
      <point x="357" y="719"/>
      <point x="389" y="723"/>
      <point x="399" y="699" type="curve" smooth="yes"/>
      <point x="409" y="677"/>
      <point x="389" y="648"/>
      <point x="358" y="628" type="curve"/>
    </contour>
    <contour>
      <point x="346" y="530" type="move" name="_top"/>
    </contour>
    <contour>
      <point x="315" y="584" type="move" name="_topviet"/>
    </contour>
  </outline>
</glyph>
<glyph name="ringcomb" format="1">
  <advance width="196"/>
  <unicode hex="030A"/>
  <outline>
    <contour>
      <point x="144" y="586" type="curve" smooth="yes"/>
      <point x="195" y="586"/>
      <point x="241" y="628"/>
      <point x="248" y="683" type="curve" smooth="yes"/>
      <point x="256" y="737"/>
      <point x="222" y="779"/>
      <point x="172" y="779" type="curve" smooth="yes"/>
      <point x="123" y="779"/>
      <point x="76" y="737"/>
      <point x="69" y="685" type="curve" smooth="yes"/>
      <point x="61" y="629"/>
      <point x="95" y="586"/>
    </contour>
    <contour>
      <point x="149" y="625" type="curve" smooth="yes"/>
      <point x="121" y="625"/>
      <point x="100" y="652"/>
      <point x="105" y="683" type="curve" smooth="yes"/>
      <point x="110" y="717"/>
      <point x="138" y="740"/>
      <point x="165" y="740" type="curve" smooth="yes"/>
      <point x="195" y="740"/>
      <point x="214" y="717"/>
      <point x="210" y="683" type="curve" smooth="yes"/>
      <point x="205" y="652"/>
      <point x="178" y="625"/>
    </contour>
    <contour>
      <point x="135" y="517" type="move" name="_top"/>
    </contour>
  </outline>
</glyph>
<glyph name="hungarumlautcomb" format="1">
  <advance width="638"/>
  <unicode hex="030B"/>
  <outline>
    <contour>
      <point x="425" y="1136" type="line"/>
      <point x="711" y="1392" type="line"/>
      <point x="663" y="1466" type="line"/>
      <point x="401" y="1190" type="line"/>
    </contour>
    <contour>
      <point x="173" y="1138" type="line"/>
      <point x="457" y="1392" type="line"/>
      <point x="411" y="1466" type="line"/>
      <point x="147" y="1190" type="line"/>
    </contour>
    <contour>
      <point x="305" y="1034" type="move" name="_top"/>
    </contour>
  </outline>
</glyph>
<glyph name="caroncomb" format="1">
  <advance width="250"/>
  <unicode hex="030C"/>
  <outline>
    <contour>
      <point x="162" y="628" type="line"/>
      <point x="192" y="628" type="line"/>
      <point x="313" y="723" type="line"/>
      <point x="258" y="723" type="line"/>
      <point x="181" y="663" type="line"/>
      <point x="118" y="723" type="line"/>
      <point x="65" y="723" type="line"/>
    </contour>
    <contour>
      <point x="161" y="517" type="move" name="_top"/>
    </contour>
  </outline>
</glyph>
<glyph name="dblgravecomb" format="1">
  <advance width="319"/>
  <unicode hex="030F"/>
  <outline>
    <contour>
      <point x="319" y="569" type="line"/>
      <point x="340" y="595" type="line"/>
      <point x="246" y="733" type="line"/>
      <point x="213" y="696" type="line"/>
    </contour>
    <contour>
      <point x="194" y="569" type="line"/>
      <point x="213" y="595" type="line"/>
      <point x="120" y="733" type="line"/>
      <point x="87" y="696" type="line"/>
    </contour>
    <contour>
      <point x="194" y="517" type="move" name="_top"/>
    </contour>
  </outline>
</glyph>
<glyph name="breveinvertedcomb" format="1">
  <advance width="240"/>
  <unicode hex="0311"/>
  <outline>
    <component base="brevecomb" yScale="-1" yxScale="-0.281" xOffset="191" yOffset="1400"/>
    <contour>
      <point x="137" y="517" type="move" name="_top"/>
    </contour>
  </outline>
</glyph>
<glyph name="horncomb" format="1">
  <advance width="118"/>
  <unicode hex="031B"/>
  <outline>
    <contour>
      <point x="33" y="490" type="line"/>
      <point x="111" y="481"/>
      <point x="156" y="524"/>
      <point x="169" y="619" type="curve"/>
      <point x="122" y="619" type="line"/>
      <point x="110" y="546"/>
      <point x="90" y="530"/>
      <point x="39" y="531" type="curve"/>
    </contour>
    <contour>
      <point x="33" y="490" type="move" name="_horn"/>
    </contour>
    <contour>
      <point x="97" y="530" type="move" name="_topright"/>
    </contour>
    <contour>
      <point x="97" y="530" type="move" name="topright"/>
    </contour>
  </outline>
</glyph>
<glyph name="dotbelowcomb" format="1">
  <advance width="62"/>
  <unicode hex="0323"/>
  <outline>
    <component base="dotaccentcomb" xOffset="-110" yOffset="-784"/>
    <contour>
      <point x="-7" y="0" type="move" name="_bottom"/>
    </contour>
  </outline>
</glyph>
<glyph name="commaaccentcomb" format="1">
  <advance width="72"/>
  <unicode hex="0326"/>
  <outline>
    <component base="comma" xOffset="-79" yOffset="-160"/>
    <contour>
      <point x="18" y="0" type="move" name="_bottom"/>
    </contour>
  </outline>
</glyph>
<glyph name="cedillacomb" format="1">
  <advance width="175"/>
  <unicode hex="0327"/>
  <outline>
    <contour>
      <point x="13" y="-199" type="curve" smooth="yes"/>
      <point x="61" y="-199"/>
      <point x="105" y="-175"/>
      <point x="112" y="-126" type="curve" smooth="yes"/>
      <point x="116" y="-95"/>
      <point x="105" y="-62"/>
      <point x="50" y="-57" type="curve"/>
      <point x="82" y="5" type="line"/>
      <point x="51" y="5" type="line"/>
      <point x="7" y="-77" type="line" smooth="yes"/>
      <point x="5" y="-79"/>
      <point x="5" y="-81"/>
      <point x="10" y="-81" type="curve" smooth="yes"/>
      <point x="56" y="-83"/>
      <point x="77" y="-97"/>
      <point x="72" y="-128" type="curve" smooth="yes"/>
      <point x="68" y="-155"/>
      <point x="51" y="-170"/>
      <point x="13" y="-170" type="curve" smooth="yes"/>
      <point x="-15" y="-170"/>
      <point x="-28" y="-161"/>
      <point x="-39" y="-148" type="curve"/>
      <point x="-53" y="-176" type="line"/>
      <point x="-36" y="-191"/>
      <point x="-15" y="-199"/>
    </contour>
    <contour>
      <point x="64" y="0" type="move" name="_bottom"/>
    </contour>
  </outline>
</glyph>
<glyph name="ogonekcomb" format="1">
  <advance width="175"/>
  <unicode hex="0328"/>
  <outline>
    <contour>
      <point x="31" y="-164" type="curve" smooth="yes"/>
      <point x="63" y="-164"/>
      <point x="93" y="-155"/>
      <point x="108" y="-147" type="curve"/>
      <point x="113" y="-116" type="line"/>
      <point x="104" y="-121"/>
      <point x="76" y="-131"/>
      <point x="45" y="-131" type="curve" smooth="yes"/>
      <point x="8" y="-131"/>
      <point x="-4" y="-117"/>
      <point x="-1" y="-90" type="curve" smooth="yes"/>
      <point x="5" y="-52"/>
      <point x="39" y="-28"/>
      <point x="103" y="2" type="curve"/>
      <point x="73" y="11" type="line"/>
      <point x="-5" y="-13"/>
      <point x="-34" y="-45"/>
      <point x="-40" y="-88" type="curve" smooth="yes"/>
      <point x="-46" y="-132"/>
      <point x="-26" y="-164"/>
    </contour>
    <contour>
      <point x="99" y="12" type="move" name="_ogonek"/>
    </contour>
  </outline>
</glyph>
<glyph name="pi" format="1">
  <advance width="643"/>
  <unicode hex="03C0"/>
  <outline>
    <contour>
      <point x="117" y="0" type="curve"/>
      <point x="150" y="0" type="line"/>
      <point x="182" y="95"/>
      <point x="209" y="284"/>
      <point x="209" y="483" type="curve"/>
      <point x="476" y="483" type="line"/>
      <point x="477" y="0" type="line"/>
      <point x="516" y="0" type="line"/>
      <point x="516" y="483" type="line"/>
      <point x="647" y="483" type="line"/>
      <point x="647" y="517" type="line"/>
      <point x="64" y="517" type="line"/>
      <point x="64" y="483" type="line"/>
      <point x="165" y="483" type="line" smooth="yes"/>
      <point x="170" y="483"/>
      <point x="173" y="479"/>
      <point x="173" y="473" type="curve" smooth="yes"/>
      <point x="173" y="283"/>
      <point x="146" y="110"/>
    </contour>
  </outline>
</glyph>
<glyph name="endash" format="1">
  <advance width="494"/>
  <unicode hex="2013"/>
  <outline>
    <contour>
      <point x="64" y="233" type="line"/>
      <point x="424" y="234" type="line"/>
      <point x="429" y="273" type="line"/>
      <point x="69" y="272" type="line"/>
    </contour>
  </outline>
</glyph>
<glyph name="emdash" format="1">
  <advance width="782"/>
  <unicode hex="2014"/>
  <outline>
    <contour>
      <point x="63" y="233" type="line"/>
      <point x="711" y="234" type="line"/>
      <point x="717" y="273" type="line"/>
      <point x="69" y="272" type="line"/>
    </contour>
  </outline>
</glyph>
<glyph name="quoteright" format="1">
  <advance width="177"/>
  <unicode hex="2019"/>
  <outline>
    <contour>
      <point x="97" y="532" type="line"/>
      <point x="129" y="532" type="line"/>
      <point x="198" y="655" type="line"/>
      <point x="198" y="723" type="line"/>
      <point x="115" y="723" type="line"/>
      <point x="115" y="644" type="line"/>
      <point x="150" y="644" type="line"/>
    </contour>
  </outline>
</glyph>
<glyph name="quotesinglbase" format="1">
  <advance width="198"/>
  <unicode hex="201A"/>
  <outline>
    <contour>
      <point x="-12" y="-111" type="line"/>
      <point x="18" y="-111" type="line"/>
      <point x="98" y="12" type="line"/>
      <point x="107" y="80" type="line"/>
      <point x="30" y="80" type="line"/>
      <point x="19" y="0" type="line"/>
      <point x="52" y="0" type="line"/>
    </contour>
  </outline>
</glyph>
<glyph name="quotedblleft" format="1">
  <advance width="351"/>
  <unicode hex="201C"/>
  <outline>
    <contour>
      <point x="117" y="532" type="line"/>
      <point x="200" y="532" type="line"/>
      <point x="200" y="612" type="line"/>
      <point x="165" y="612" type="line"/>
      <point x="219" y="723" type="line"/>
      <point x="187" y="723" type="line"/>
      <point x="117" y="601" type="line"/>
    </contour>
    <contour>
      <point x="260" y="532" type="line"/>
      <point x="343" y="532" type="line"/>
      <point x="343" y="612" type="line"/>
      <point x="307" y="612" type="line"/>
      <point x="361" y="723" type="line"/>
      <point x="329" y="723" type="line"/>
      <point x="260" y="601" type="line"/>
    </contour>
  </outline>
</glyph>
<glyph name="quotedblright" format="1">
  <advance width="319"/>
  <unicode hex="201D"/>
  <outline>
    <contour>
      <point x="239" y="532" type="line"/>
      <point x="271" y="532" type="line"/>
      <point x="340" y="655" type="line"/>
      <point x="340" y="723" type="line"/>
      <point x="258" y="723" type="line"/>
      <point x="258" y="644" type="line"/>
      <point x="293" y="644" type="line"/>
    </contour>
    <contour>
      <point x="97" y="532" type="line"/>
      <point x="129" y="532" type="line"/>
      <point x="198" y="655" type="line"/>
      <point x="198" y="723" type="line"/>
      <point x="115" y="723" type="line"/>
      <point x="115" y="644" type="line"/>
      <point x="150" y="644" type="line"/>
    </contour>
  </outline>
</glyph>
<glyph name="dagger" format="1">
  <advance width="363"/>
  <unicode hex="2020"/>
  <outline>
    <contour>
      <point x="99" y="-161" type="line"/>
      <point x="147" y="-161" type="line"/>
      <point x="218" y="414" type="line"/>
      <point x="383" y="408" type="line"/>
      <point x="390" y="454" type="line"/>
      <point x="226" y="449" type="line"/>
      <point x="271" y="723" type="line"/>
      <point x="223" y="723" type="line"/>
      <point x="190" y="449" type="line"/>
      <point x="27" y="454" type="line"/>
      <point x="21" y="408" type="line"/>
      <point x="188" y="414" type="line"/>
    </contour>
  </outline>
</glyph>
<glyph name="daggerdbl" format="1">
  <advance width="362"/>
  <unicode hex="2021"/>
  <outline>
    <contour>
      <point x="99" y="-161" type="line"/>
      <point x="147" y="-161" type="line"/>
      <point x="179" y="113" type="line"/>
      <point x="341" y="108" type="line"/>
      <point x="348" y="155" type="line"/>
      <point x="181" y="148" type="line"/>
      <point x="218" y="414" type="line"/>
      <point x="383" y="408" type="line"/>
      <point x="390" y="454" type="line"/>
      <point x="226" y="449" type="line"/>
      <point x="271" y="723" type="line"/>
      <point x="223" y="723" type="line"/>
      <point x="190" y="449" type="line"/>
      <point x="27" y="454" type="line"/>
      <point x="21" y="408" type="line"/>
      <point x="188" y="414" type="line"/>
      <point x="151" y="148" type="line"/>
      <point x="-15" y="155" type="line"/>
      <point x="-22" y="108" type="line"/>
      <point x="143" y="113" type="line"/>
    </contour>
  </outline>
</glyph>
<glyph name="bullet" format="1">
  <advance width="281"/>
  <unicode hex="2022"/>
  <outline>
    <contour>
      <point x="156" y="297" type="curve" smooth="yes"/>
      <point x="195" y="297"/>
      <point x="226" y="329"/>
      <point x="226" y="368" type="curve" smooth="yes"/>
      <point x="226" y="407"/>
      <point x="195" y="438"/>
      <point x="156" y="438" type="curve" smooth="yes"/>
      <point x="117" y="438"/>
      <point x="86" y="407"/>
      <point x="86" y="368" type="curve" smooth="yes"/>
      <point x="86" y="329"/>
      <point x="117" y="297"/>
    </contour>
  </outline>
</glyph>
<glyph name="perthousand" format="1">
  <advance width="1165"/>
  <unicode hex="2030"/>
  <outline>
    <contour>
      <point x="566" y="-10" type="curve" smooth="yes"/>
      <point x="651" y="-10"/>
      <point x="721" y="61"/>
      <point x="741" y="199" type="curve" smooth="yes"/>
      <point x="760" y="334"/>
      <point x="710" y="406"/>
      <point x="624" y="406" type="curve" smooth="yes"/>
      <point x="539" y="406"/>
      <point x="467" y="334"/>
      <point x="448" y="199" type="curve" smooth="yes"/>
      <point x="429" y="61"/>
      <point x="480" y="-10"/>
    </contour>
    <contour>
      <point x="216" y="319" type="curve" smooth="yes"/>
      <point x="301" y="319"/>
      <point x="371" y="390"/>
      <point x="390" y="527" type="curve" smooth="yes"/>
      <point x="409" y="663"/>
      <point x="359" y="734"/>
      <point x="274" y="734" type="curve" smooth="yes"/>
      <point x="188" y="734"/>
      <point x="117" y="663"/>
      <point x="98" y="527" type="curve" smooth="yes"/>
      <point x="78" y="390"/>
      <point x="130" y="319"/>
    </contour>
    <contour>
      <point x="219" y="348" type="curve" smooth="yes"/>
      <point x="149" y="348"/>
      <point x="114" y="424"/>
      <point x="129" y="527" type="curve" smooth="yes"/>
      <point x="143" y="629"/>
      <point x="199" y="705"/>
      <point x="269" y="705" type="curve" smooth="yes"/>
      <point x="339" y="705"/>
      <point x="373" y="630"/>
      <point x="359" y="527" type="curve" smooth="yes"/>
      <point x="344" y="423"/>
      <point x="289" y="348"/>
    </contour>
    <contour>
      <point x="569" y="20" type="curve" smooth="yes"/>
      <point x="502" y="20"/>
      <point x="465" y="98"/>
      <point x="479" y="198" type="curve" smooth="yes"/>
      <point x="493" y="297"/>
      <point x="552" y="376"/>
      <point x="619" y="376" type="curve" smooth="yes"/>
      <point x="686" y="376"/>
      <point x="723" y="298"/>
      <point x="709" y="198" type="curve" smooth="yes"/>
      <point x="695" y="98"/>
      <point x="636" y="20"/>
    </contour>
    <contour>
      <point x="922" y="-10" type="curve" smooth="yes"/>
      <point x="1007" y="-10"/>
      <point x="1077" y="61"/>
      <point x="1097" y="199" type="curve" smooth="yes"/>
      <point x="1116" y="334"/>
      <point x="1066" y="406"/>
      <point x="980" y="406" type="curve" smooth="yes"/>
      <point x="895" y="406"/>
      <point x="823" y="334"/>
      <point x="804" y="199" type="curve" smooth="yes"/>
      <point x="785" y="61"/>
      <point x="836" y="-10"/>
    </contour>
    <contour>
      <point x="925" y="20" type="curve" smooth="yes"/>
      <point x="858" y="20"/>
      <point x="821" y="98"/>
      <point x="835" y="198" type="curve" smooth="yes"/>
      <point x="849" y="297"/>
      <point x="908" y="376"/>
      <point x="975" y="376" type="curve" smooth="yes"/>
      <point x="1042" y="376"/>
      <point x="1079" y="298"/>
      <point x="1065" y="198" type="curve" smooth="yes"/>
      <point x="1051" y="98"/>
      <point x="992" y="20"/>
    </contour>
    <component base="fraction" xScale="0.92" yxScale="0.141" xOffset="270"/>
  </outline>
</glyph>
<glyph name="guilsinglleft" format="1">
  <advance width="233"/>
  <unicode hex="2039"/>
  <outline>
    <contour>
      <point x="136" y="76" type="line"/>
      <point x="161" y="76" type="line"/>
      <point x="77" y="251" type="line"/>
      <point x="213" y="434" type="line"/>
      <point x="188" y="434" type="line"/>
      <point x="29" y="251" type="line"/>
    </contour>
  </outline>
</glyph>
<glyph name="guilsinglright" format="1">
  <advance width="233"/>
  <unicode hex="203A"/>
  <outline>
    <contour>
      <point x="22" y="76" type="line"/>
      <point x="45" y="76" type="line"/>
      <point x="202" y="251" type="line"/>
      <point x="95" y="434" type="line"/>
      <point x="70" y="434" type="line"/>
      <point x="155" y="251" type="line"/>
    </contour>
  </outline>
</glyph>
<glyph name="fraction" format="1">
  <advance width="204"/>
  <unicode hex="2044"/>
  <outline>
    <contour>
      <point x="-177" y="-4" type="line"/>
      <point x="-141" y="-4" type="line"/>
      <point x="410" y="731" type="line"/>
      <point x="376" y="731" type="line"/>
    </contour>
  </outline>
</glyph>
<glyph name="colonsign" format="1">
  <advance width="1063"/>
  <unicode hex="20A1"/>
  <outline>
    <contour>
      <point x="527" y="0" type="line"/>
      <point x="609" y="0" type="line"/>
      <point x="675" y="240" type="line"/>
      <point x="597" y="260" type="line"/>
    </contour>
    <contour>
      <point x="337" y="0" type="line"/>
      <point x="421" y="0" type="line"/>
      <point x="485" y="240" type="line"/>
      <point x="407" y="260" type="line"/>
    </contour>
    <contour>
      <point x="587" y="1188" type="line"/>
      <point x="657" y="1446" type="line"/>
      <point x="573" y="1446" type="line"/>
      <point x="509" y="1208" type="line"/>
    </contour>
    <contour>
      <point x="775" y="1188" type="line"/>
      <point x="845" y="1446" type="line"/>
      <point x="763" y="1446" type="line"/>
      <point x="697" y="1208" type="line"/>
    </contour>
    <component base="c" xOffset="29" yOffset="206"/>
  </outline>
</glyph>
<glyph name="franc" format="1">
  <advance width="551"/>
  <unicode hex="20A3"/>
  <outline>
    <contour>
      <point x="59" y="0" type="line"/>
      <point x="100" y="0" type="line"/>
      <point x="147" y="333" type="line"/>
      <point x="474" y="333" type="line"/>
      <point x="480" y="372" type="line"/>
      <point x="152" y="372" type="line"/>
      <point x="196" y="684" type="line"/>
      <point x="550" y="684" type="line"/>
      <point x="556" y="723" type="line"/>
      <point x="160" y="723" type="line"/>
    </contour>
    <contour>
      <point x="-10" y="147" type="line"/>
      <point x="284" y="148" type="line"/>
      <point x="289" y="185" type="line"/>
      <point x="-5" y="184" type="line"/>
    </contour>
  </outline>
</glyph>
<glyph name="lira" format="1">
  <advance width="539"/>
  <unicode hex="20A4"/>
  <outline>
    <contour>
      <point x="-25" y="0" type="line"/>
      <point x="281" y="0" type="line" smooth="yes"/>
      <point x="361" y="0"/>
      <point x="424" y="35"/>
      <point x="462" y="107" type="curve"/>
      <point x="431" y="122" type="line"/>
      <point x="400" y="60"/>
      <point x="353" y="39"/>
      <point x="287" y="39" type="curve"/>
      <point x="91" y="39" type="line"/>
      <point x="142" y="93"/>
      <point x="169" y="186"/>
      <point x="172" y="257" type="curve"/>
      <point x="317" y="257" type="line"/>
      <point x="323" y="294" type="line"/>
      <point x="172" y="293" type="line"/>
      <point x="170" y="403" type="line"/>
      <point x="338" y="404" type="line"/>
      <point x="343" y="441" type="line"/>
      <point x="178" y="440" type="line" smooth="yes"/>
      <point x="173" y="440"/>
      <point x="170" y="443"/>
      <point x="170" y="448" type="curve" smooth="yes"/>
      <point x="169" y="494"/>
      <point x="169" y="533"/>
      <point x="171" y="553" type="curve" smooth="yes"/>
      <point x="184" y="641"/>
      <point x="255" y="691"/>
      <point x="333" y="691" type="curve" smooth="yes"/>
      <point x="400" y="691"/>
      <point x="433" y="665"/>
      <point x="449" y="620" type="curve"/>
      <point x="485" y="639" type="line"/>
      <point x="474" y="685"/>
      <point x="413" y="733"/>
      <point x="337" y="733" type="curve" smooth="yes"/>
      <point x="223" y="733"/>
      <point x="127" y="666"/>
      <point x="130" y="461" type="curve" smooth="yes"/>
      <point x="131" y="440" type="line"/>
      <point x="52" y="440" type="line"/>
      <point x="47" y="403" type="line"/>
      <point x="132" y="403" type="line"/>
      <point x="134" y="293" type="line"/>
      <point x="32" y="293" type="line"/>
      <point x="27" y="256" type="line"/>
      <point x="127" y="256" type="line" smooth="yes"/>
      <point x="132" y="256"/>
      <point x="133" y="255"/>
      <point x="134" y="251" type="curve" smooth="yes"/>
      <point x="132" y="233"/>
      <point x="131" y="220"/>
      <point x="130" y="209" type="curve" smooth="yes"/>
      <point x="113" y="91"/>
      <point x="65" y="37"/>
      <point x="18" y="38" type="curve" smooth="yes"/>
      <point x="-20" y="38" type="line"/>
    </contour>
  </outline>
</glyph>
<glyph name="naira" format="1">
  <advance width="635"/>
  <unicode hex="20A6"/>
  <outline>
    <contour>
      <point x="30" y="433" type="line"/>
      <point x="655" y="434" type="line"/>
      <point x="660" y="471" type="line"/>
      <point x="35" y="470" type="line"/>
    </contour>
    <contour>
      <point x="8" y="277" type="line"/>
      <point x="633" y="278" type="line"/>
      <point x="638" y="315" type="line"/>
      <point x="13" y="314" type="line"/>
    </contour>
    <component base="N" xScale="0.92" yxScale="0.141" xOffset="-36"/>
  </outline>
</glyph>
<glyph name="won" format="1">
  <advance width="890"/>
  <unicode hex="20A9"/>
  <outline>
    <contour>
      <point x="42" y="433" type="line"/>
      <point x="906" y="434" type="line"/>
      <point x="911" y="471" type="line"/>
      <point x="47" y="470" type="line"/>
    </contour>
    <contour>
      <point x="20" y="277" type="line"/>
      <point x="884" y="278" type="line"/>
      <point x="889" y="315" type="line"/>
      <point x="25" y="314" type="line"/>
    </contour>
    <component base="W" xScale="0.92" yxScale="0.141" xOffset="-36"/>
  </outline>
</glyph>
<glyph name="dong" format="1">
  <advance width="448"/>
  <unicode hex="20AB"/>
  <outline>
    <contour>
      <point x="196" y="123" type="curve" smooth="yes"/>
      <point x="278" y="123"/>
      <point x="319" y="178"/>
      <point x="335" y="195" type="curve"/>
      <point x="326" y="131" type="line"/>
      <point x="358" y="131" type="line"/>
      <point x="441" y="722" type="line"/>
      <point x="407" y="722" type="line"/>
      <point x="378" y="520" type="line" smooth="yes"/>
      <point x="377" y="510"/>
      <point x="376" y="507"/>
      <point x="368" y="515" type="curve" smooth="yes"/>
      <point x="348" y="536"/>
      <point x="324" y="562"/>
      <point x="266" y="562" type="curve" smooth="yes"/>
      <point x="159" y="562"/>
      <point x="75" y="470"/>
      <point x="56" y="334" type="curve" smooth="yes"/>
      <point x="36" y="194"/>
      <point x="103" y="123"/>
    </contour>
    <contour>
      <point x="27" y="0" type="line"/>
      <point x="344" y="0" type="line"/>
      <point x="349" y="34" type="line"/>
      <point x="31" y="34" type="line"/>
    </contour>
    <contour>
      <point x="208" y="161" type="curve" smooth="yes"/>
      <point x="137" y="161"/>
      <point x="81" y="216"/>
      <point x="98" y="337" type="curve" smooth="yes"/>
      <point x="114" y="454"/>
      <point x="182" y="522"/>
      <point x="263" y="522" type="curve" smooth="yes"/>
      <point x="307" y="522"/>
      <point x="340" y="502"/>
      <point x="368" y="466" type="curve"/>
      <point x="340" y="266" type="line" smooth="yes"/>
      <point x="334" y="220"/>
      <point x="277" y="161"/>
    </contour>
    <contour>
      <point x="252" y="619" type="line"/>
      <point x="483" y="619" type="line"/>
      <point x="488" y="653" type="line"/>
      <point x="257" y="653" type="line"/>
    </contour>
  </outline>
</glyph>
<glyph name="euro" format="1">
  <advance width="504"/>
  <unicode hex="20AC"/>
  <outline>
    <contour>
      <point x="293" y="-10" type="curve" smooth="yes"/>
      <point x="344" y="-10"/>
      <point x="394" y="7"/>
      <point x="438" y="35" type="curve"/>
      <point x="421" y="69" type="line"/>
      <point x="386" y="46"/>
      <point x="345" y="32"/>
      <point x="302" y="32" type="curve" smooth="yes"/>
      <point x="147" y="32"/>
      <point x="87" y="149"/>
      <point x="116" y="359" type="curve" smooth="yes"/>
      <point x="147" y="576"/>
      <point x="241" y="691"/>
      <point x="387" y="691" type="curve" smooth="yes"/>
      <point x="431" y="691"/>
      <point x="465" y="673"/>
      <point x="493" y="646" type="curve"/>
      <point x="524" y="684" type="line"/>
      <point x="487" y="715"/>
      <point x="440" y="733"/>
      <point x="391" y="733" type="curve" smooth="yes"/>
      <point x="223" y="733"/>
      <point x="105" y="595"/>
      <point x="72" y="359" type="curve" smooth="yes"/>
      <point x="39" y="124"/>
      <point x="119" y="-10"/>
    </contour>
    <contour>
      <point x="-19" y="267" type="line"/>
      <point x="320" y="268" type="line"/>
      <point x="325" y="305" type="line"/>
      <point x="-14" y="304" type="line"/>
    </contour>
    <contour>
      <point x="3" y="423" type="line"/>
      <point x="342" y="424" type="line"/>
      <point x="347" y="461" type="line"/>
      <point x="8" y="460" type="line"/>
    </contour>
  </outline>
</glyph>
<glyph name="rupeeIndian" format="1">
  <advance width="483"/>
  <unicode hex="20B9"/>
  <outline>
    <contour>
      <point x="295" y="0" type="line"/>
      <point x="340" y="0" type="line"/>
      <point x="270" y="359" type="line" smooth="yes"/>
      <point x="269" y="362"/>
      <point x="271" y="365"/>
      <point x="274" y="366" type="curve" smooth="yes"/>
      <point x="339" y="386"/>
      <point x="420" y="432"/>
      <point x="437" y="551" type="curve" smooth="yes"/>
      <point x="453" y="665"/>
      <point x="385" y="723"/>
      <point x="256" y="723" type="curve" smooth="yes"/>
      <point x="64" y="723" type="line"/>
      <point x="59" y="684" type="line"/>
      <point x="250" y="684" type="line" smooth="yes"/>
      <point x="359" y="684"/>
      <point x="405" y="639"/>
      <point x="392" y="550" type="curve" smooth="yes"/>
      <point x="376" y="437"/>
      <point x="307" y="395"/>
      <point x="178" y="395" type="curve" smooth="yes"/>
      <point x="18" y="395" type="line"/>
      <point x="13" y="356" type="line"/>
      <point x="224" y="356" type="line"/>
    </contour>
    <contour>
      <point x="39" y="530" type="line"/>
      <point x="507" y="531" type="line"/>
      <point x="513" y="568" type="line"/>
      <point x="44" y="567" type="line"/>
    </contour>
    <contour>
      <point x="61" y="686" type="line"/>
      <point x="529" y="687" type="line"/>
      <point x="534" y="724" type="line"/>
      <point x="66" y="723" type="line"/>
    </contour>
  </outline>
</glyph>
<glyph name="liraTurkish" format="1">
  <advance width="444"/>
  <unicode hex="20BA"/>
  <outline>
    <contour>
      <point x="58" y="0" type="line"/>
      <point x="157" y="0" type="line" smooth="yes"/>
      <point x="266" y="0"/>
      <point x="367" y="71"/>
      <point x="427" y="212" type="curve"/>
      <point x="390" y="223" type="line"/>
      <point x="326" y="90"/>
      <point x="255" y="39"/>
      <point x="161" y="39" type="curve" smooth="yes"/>
      <point x="105" y="39" type="line"/>
      <point x="201" y="723" type="line"/>
      <point x="160" y="723" type="line"/>
    </contour>
    <contour>
      <point x="20" y="200" type="line"/>
      <point x="294" y="302" type="line"/>
      <point x="285" y="344" type="line"/>
      <point x="13" y="242" type="line"/>
    </contour>
    <contour>
      <point x="43" y="363" type="line"/>
      <point x="317" y="465" type="line"/>
      <point x="308" y="507" type="line"/>
      <point x="36" y="405" type="line"/>
    </contour>
  </outline>
</glyph>
<glyph name="literSign" format="1">
  <advance width="413"/>
  <unicode hex="2113"/>
  <outline>
    <contour>
      <point x="184" y="-10" type="curve" smooth="yes"/>
      <point x="315" y="119" type="line"/>
      <point x="308" y="111"/>
      <point x="309" y="111"/>
      <point x="309" y="111" type="curve" smooth="yes"/>
      <point x="278" y="68"/>
      <point x="250" y="29"/>
      <point x="187" y="29" type="curve" smooth="yes"/>
      <point x="126" y="29"/>
      <point x="104" y="67"/>
      <point x="123" y="201" type="curve"/>
      <point x="125" y="218" type="line"/>
      <point x="232" y="315"/>
      <point x="368" y="441"/>
      <point x="389" y="586" type="curve" smooth="yes"/>
      <point x="401" y="672"/>
      <point x="369" y="733"/>
      <point x="298" y="733" type="curve" smooth="yes"/>
      <point x="225" y="733"/>
      <point x="153" y="667"/>
      <point x="132" y="519" type="curve" smooth="yes"/>
      <point x="93" y="240" type="line"/>
      <point x="15" y="186" type="line"/>
      <point x="30" y="153" type="line"/>
      <point x="80" y="188" type="line" smooth="yes"/>
      <point x="83" y="190"/>
      <point x="85" y="191"/>
      <point x="85" y="186" type="curve" smooth="yes"/>
      <point x="87" y="164"/>
      <point x="43" y="-10"/>
    </contour>
    <contour>
      <point x="133" y="269" type="curve"/>
      <point x="163" y="487" type="line" smooth="yes"/>
      <point x="185" y="641"/>
      <point x="228" y="692"/>
      <point x="291" y="692" type="curve" smooth="yes"/>
      <point x="341" y="692"/>
      <point x="364" y="659"/>
      <point x="355" y="597" type="curve" smooth="yes"/>
      <point x="335" y="455"/>
      <point x="206" y="330"/>
    </contour>
  </outline>
</glyph>
<glyph name="published" format="1">
  <advance width="743"/>
  <unicode hex="2117"/>
  <outline>
    <contour>
      <point x="335" y="-10" type="curve" smooth="yes"/>
      <point x="522" y="-10"/>
      <point x="699" y="155"/>
      <point x="728" y="362" type="curve" smooth="yes"/>
      <point x="757" y="566"/>
      <point x="627" y="733"/>
      <point x="439" y="733" type="curve" smooth="yes"/>
      <point x="250" y="733"/>
      <point x="73" y="566"/>
      <point x="45" y="362" type="curve" smooth="yes"/>
      <point x="16" y="155"/>
      <point x="145" y="-10"/>
    </contour>
    <contour>
      <point x="341" y="33" type="curve" smooth="yes"/>
      <point x="178" y="33"/>
      <point x="57" y="162"/>
      <point x="85" y="362" type="curve" smooth="yes"/>
      <point x="113" y="559"/>
      <point x="270" y="691"/>
      <point x="433" y="691" type="curve" smooth="yes"/>
      <point x="592" y="691"/>
      <point x="716" y="559"/>
      <point x="688" y="362" type="curve" smooth="yes"/>
      <point x="660" y="162"/>
      <point x="499" y="33"/>
    </contour>
    <contour>
      <point x="246" y="164" type="line"/>
      <point x="282" y="164" type="line"/>
      <point x="305" y="331" type="line"/>
      <point x="397" y="331" type="line" smooth="yes"/>
      <point x="470" y="331"/>
      <point x="529" y="371"/>
      <point x="541" y="454" type="curve" smooth="yes"/>
      <point x="551" y="524"/>
      <point x="501" y="554"/>
      <point x="426" y="554" type="curve" smooth="yes"/>
      <point x="301" y="554" type="line"/>
    </contour>
    <contour>
      <point x="310" y="366" type="line"/>
      <point x="332" y="519" type="line"/>
      <point x="420" y="519" type="line" smooth="yes"/>
      <point x="473" y="519"/>
      <point x="511" y="503"/>
      <point x="503" y="444" type="curve" smooth="yes"/>
      <point x="495" y="390"/>
      <point x="451" y="366"/>
      <point x="402" y="366" type="curve" smooth="yes"/>
    </contour>
  </outline>
</glyph>
<glyph name="Ohm" format="1">
  <advance width="715"/>
  <unicode hex="2126"/>
  <outline>
    <contour>
      <point x="68" y="0" type="line"/>
      <point x="283" y="0" type="line"/>
      <point x="290" y="45" type="line"/>
      <point x="163" y="158"/>
      <point x="115" y="256"/>
      <point x="136" y="403" type="curve" smooth="yes"/>
      <point x="157" y="553"/>
      <point x="254" y="709"/>
      <point x="421" y="709" type="curve"/>
      <point x="587" y="709"/>
      <point x="641" y="553"/>
      <point x="620" y="403" type="curve" smooth="yes"/>
      <point x="592" y="204"/>
      <point x="442" y="98"/>
      <point x="365" y="45" type="curve"/>
      <point x="359" y="0" type="line"/>
      <point x="574" y="0" type="line"/>
      <point x="580" y="42" type="line"/>
      <point x="417" y="42" type="line"/>
      <point x="581" y="172"/>
      <point x="644" y="254"/>
      <point x="666" y="409" type="curve" smooth="yes"/>
      <point x="691" y="587"/>
      <point x="613" y="752"/>
      <point x="427" y="752" type="curve"/>
      <point x="241" y="752"/>
      <point x="117" y="588"/>
      <point x="91" y="408" type="curve" smooth="yes"/>
      <point x="58" y="171"/>
      <point x="217" y="61"/>
      <point x="235" y="42" type="curve"/>
      <point x="74" y="42" type="line"/>
    </contour>
  </outline>
</glyph>
<glyph name="partialdiff" format="1">
  <advance width="533"/>
  <unicode hex="2202"/>
  <outline>
    <contour>
      <point x="221" y="-10" type="curve" smooth="yes"/>
      <point x="360" y="-10"/>
      <point x="462" y="125"/>
      <point x="496" y="367" type="curve" smooth="yes"/>
      <point x="530" y="611"/>
      <point x="463" y="733"/>
      <point x="320" y="733" type="curve" smooth="yes"/>
      <point x="259" y="733"/>
      <point x="185" y="709"/>
      <point x="146" y="668" type="curve"/>
      <point x="157" y="639" type="line"/>
      <point x="198" y="666"/>
      <point x="236" y="690"/>
      <point x="298" y="690" type="curve" smooth="yes"/>
      <point x="423" y="690"/>
      <point x="482" y="591"/>
      <point x="451" y="376" type="curve" smooth="yes"/>
      <point x="451" y="372"/>
      <point x="449" y="370"/>
      <point x="440" y="375" type="curve" smooth="yes"/>
      <point x="396" y="407"/>
      <point x="366" y="425"/>
      <point x="299" y="425" type="curve" smooth="yes"/>
      <point x="159" y="425"/>
      <point x="65" y="345"/>
      <point x="47" y="217" type="curve" smooth="yes"/>
      <point x="29" y="88"/>
      <point x="101" y="-10"/>
    </contour>
    <contour>
      <point x="218" y="32" type="line" smooth="yes"/>
      <point x="134" y="32"/>
      <point x="76" y="115"/>
      <point x="90" y="214" type="curve" smooth="yes"/>
      <point x="104" y="312"/>
      <point x="183" y="383"/>
      <point x="280" y="383" type="curve" smooth="yes"/>
      <point x="344" y="383"/>
      <point x="412" y="352"/>
      <point x="438" y="313" type="curve" smooth="yes"/>
      <point x="443" y="306"/>
      <point x="443" y="299"/>
      <point x="439" y="278" type="curve" smooth="yes"/>
      <point x="405" y="130"/>
      <point x="313" y="32"/>
      <point x="219" y="32" type="curve" smooth="yes"/>
    </contour>
  </outline>
</glyph>
<glyph name="emptyset" format="1">
  <advance width="527"/>
  <unicode hex="2205"/>
  <outline>
    <contour>
      <point x="76" y="157" type="line"/>
      <point x="500" y="529" type="line"/>
      <point x="481" y="556" type="line"/>
      <point x="55" y="184" type="line"/>
    </contour>
    <contour>
      <point x="252" y="170" type="curve" smooth="yes"/>
      <point x="349" y="170"/>
      <point x="442" y="257"/>
      <point x="457" y="364" type="curve" smooth="yes"/>
      <point x="472" y="470"/>
      <point x="404" y="557"/>
      <point x="306" y="557" type="curve" smooth="yes"/>
      <point x="208" y="557"/>
      <point x="116" y="470"/>
      <point x="101" y="364" type="curve" smooth="yes"/>
      <point x="86" y="257"/>
      <point x="153" y="170"/>
    </contour>
    <contour>
      <point x="257" y="205" type="curve" smooth="yes"/>
      <point x="176" y="205"/>
      <point x="121" y="276"/>
      <point x="134" y="364" type="curve" smooth="yes"/>
      <point x="146" y="450"/>
      <point x="220" y="522"/>
      <point x="301" y="522" type="curve" smooth="yes"/>
      <point x="382" y="522"/>
      <point x="437" y="450"/>
      <point x="425" y="364" type="curve" smooth="yes"/>
      <point x="413" y="276"/>
      <point x="338" y="205"/>
    </contour>
  </outline>
</glyph>
<glyph name="increment" format="1">
  <advance width="589"/>
  <unicode hex="2206"/>
  <outline>
    <contour>
      <point x="-14" y="0" type="line"/>
      <point x="534" y="0" type="line"/>
      <point x="361" y="723" type="line"/>
    </contour>
    <contour>
      <point x="48" y="42" type="line"/>
      <point x="344" y="605" type="line"/>
      <point x="482" y="42" type="line"/>
    </contour>
  </outline>
</glyph>
<glyph name="product" format="1">
  <advance width="562"/>
  <unicode hex="220F"/>
  <outline>
    <contour>
      <point x="76" y="0" type="line"/>
      <point x="117" y="0" type="line"/>
      <point x="213" y="683" type="line"/>
      <point x="469" y="683" type="line"/>
      <point x="373" y="0" type="line"/>
      <point x="414" y="0" type="line"/>
      <point x="510" y="683" type="line"/>
      <point x="610" y="683" type="line"/>
      <point x="615" y="723" type="line"/>
      <point x="78" y="723" type="line"/>
      <point x="73" y="683" type="line"/>
      <point x="172" y="683" type="line"/>
    </contour>
  </outline>
</glyph>
<glyph name="summation" format="1">
  <advance width="447"/>
  <unicode hex="2211"/>
  <outline>
    <contour>
      <point x="-13" y="0" type="line"/>
      <point x="392" y="0" type="line"/>
      <point x="397" y="39" type="line"/>
      <point x="44" y="39" type="line"/>
      <point x="288" y="363" type="line"/>
      <point x="148" y="684" type="line"/>
      <point x="471" y="684" type="line"/>
      <point x="477" y="723" type="line"/>
      <point x="102" y="723" type="line"/>
      <point x="97" y="688" type="line"/>
      <point x="241" y="362" type="line"/>
      <point x="-9" y="33" type="line"/>
    </contour>
  </outline>
</glyph>
<glyph name="minus" format="1">
  <advance width="494"/>
  <unicode hex="2212"/>
  <outline>
    <contour>
      <point x="79" y="344" type="line"/>
      <point x="439" y="345" type="line"/>
      <point x="444" y="382" type="line"/>
      <point x="84" y="381" type="line"/>
    </contour>
  </outline>
</glyph>
<glyph name="bulletoperator" format="1">
  <advance width="277"/>
  <unicode hex="2219"/>
  <outline>
    <contour>
      <point x="146" y="321" type="curve" smooth="yes"/>
      <point x="170" y="321"/>
      <point x="192" y="342"/>
      <point x="195" y="368" type="curve" smooth="yes"/>
      <point x="199" y="394"/>
      <point x="183" y="414"/>
      <point x="160" y="414" type="curve" smooth="yes"/>
      <point x="136" y="414"/>
      <point x="114" y="394"/>
      <point x="111" y="368" type="curve" smooth="yes"/>
      <point x="107" y="342"/>
      <point x="123" y="321"/>
    </contour>
  </outline>
</glyph>
<glyph name="radical" format="1">
  <advance width="538"/>
  <unicode hex="221A"/>
  <outline>
    <contour>
      <point x="201" y="-161" type="line"/>
      <point x="246" y="-161" type="line"/>
      <point x="621" y="825" type="line"/>
      <point x="585" y="825" type="line"/>
      <point x="229" y="-105" type="line"/>
      <point x="141" y="374" type="line"/>
      <point x="27" y="329" type="line"/>
      <point x="34" y="293" type="line"/>
      <point x="105" y="322" type="line"/>
    </contour>
  </outline>
</glyph>
<glyph name="infinity" format="1">
  <advance width="627"/>
  <unicode hex="221E"/>
  <outline>
    <contour>
      <point x="158" y="121" type="curve" smooth="yes"/>
      <point x="232" y="121"/>
      <point x="282" y="186"/>
      <point x="298" y="202" type="curve" smooth="yes"/>
      <point x="306" y="211"/>
      <point x="308" y="209"/>
      <point x="312" y="202" type="curve" smooth="yes"/>
      <point x="341" y="158"/>
      <point x="366" y="121"/>
      <point x="425" y="121" type="curve" smooth="yes"/>
      <point x="497" y="121"/>
      <point x="565" y="176"/>
      <point x="579" y="272" type="curve" smooth="yes"/>
      <point x="579" y="273" type="line" smooth="yes"/>
      <point x="591" y="361"/>
      <point x="545" y="415"/>
      <point x="474" y="415" type="curve" smooth="yes"/>
      <point x="411" y="415"/>
      <point x="370" y="373"/>
      <point x="339" y="341" type="curve" smooth="yes"/>
      <point x="330" y="332"/>
      <point x="328" y="332"/>
      <point x="320" y="341" type="curve" smooth="yes"/>
      <point x="291" y="383"/>
      <point x="268" y="415"/>
      <point x="209" y="415" type="curve" smooth="yes"/>
      <point x="129" y="415"/>
      <point x="63" y="357"/>
      <point x="51" y="268" type="curve" smooth="yes"/>
      <point x="38" y="179"/>
      <point x="89" y="121"/>
    </contour>
    <contour>
      <point x="165" y="165" type="line" smooth="yes"/>
      <point x="116" y="165"/>
      <point x="81" y="208"/>
      <point x="90" y="271" type="curve" smooth="yes"/>
      <point x="99" y="332"/>
      <point x="141" y="374"/>
      <point x="194" y="374" type="curve" smooth="yes"/>
      <point x="240" y="374"/>
      <point x="268" y="341"/>
      <point x="293" y="288" type="curve" smooth="yes"/>
      <point x="304" y="266"/>
      <point x="304" y="262"/>
      <point x="288" y="243" type="curve" smooth="yes"/>
      <point x="262" y="210"/>
      <point x="214" y="165"/>
      <point x="168" y="165" type="curve" smooth="yes"/>
    </contour>
    <contour>
      <point x="441" y="165" type="curve" smooth="yes"/>
      <point x="418" y="165"/>
      <point x="375" y="175"/>
      <point x="337" y="250" type="curve" smooth="yes"/>
      <point x="330" y="260"/>
      <point x="328" y="275"/>
      <point x="343" y="292" type="curve" smooth="yes"/>
      <point x="378" y="330"/>
      <point x="419" y="374"/>
      <point x="467" y="374" type="curve" smooth="yes"/>
      <point x="468" y="374" type="line" smooth="yes"/>
      <point x="520" y="374"/>
      <point x="547" y="325"/>
      <point x="539" y="270" type="curve" smooth="yes"/>
      <point x="532" y="219"/>
      <point x="496" y="165"/>
    </contour>
  </outline>
</glyph>
<glyph name="integral" format="1">
  <advance width="382"/>
  <unicode hex="222B"/>
  <outline>
    <contour>
      <point x="51" y="-171" type="curve" smooth="yes"/>
      <point x="114" y="-171"/>
      <point x="181" y="-115"/>
      <point x="196" y="-7" type="curve" smooth="yes"/>
      <point x="227" y="217"/>
      <point x="213" y="452"/>
      <point x="245" y="677" type="curve" smooth="yes"/>
      <point x="256" y="755"/>
      <point x="304" y="790"/>
      <point x="352" y="790" type="curve" smooth="yes"/>
      <point x="383" y="790"/>
      <point x="402" y="783"/>
      <point x="433" y="763" type="curve"/>
      <point x="453" y="806" type="line"/>
      <point x="420" y="830"/>
      <point x="402" y="835"/>
      <point x="352" y="835" type="curve" smooth="yes"/>
      <point x="286" y="835"/>
      <point x="219" y="779"/>
      <point x="204" y="671" type="curve" smooth="yes"/>
      <point x="172" y="443"/>
      <point x="187" y="215"/>
      <point x="155" y="-13" type="curve" smooth="yes"/>
      <point x="144" y="-91"/>
      <point x="96" y="-126"/>
      <point x="51" y="-126" type="curve" smooth="yes"/>
      <point x="20" y="-126"/>
      <point x="1" y="-119"/>
      <point x="-30" y="-99" type="curve"/>
      <point x="-50" y="-142" type="line"/>
      <point x="-16" y="-166"/>
      <point x="1" y="-171"/>
    </contour>
  </outline>
</glyph>
